<?xml version="1.0"?>
<svg xmlns="http://www.w3.org/2000/svg" height="512px" viewBox="-3 0 421 421.79675" width="512px" class=""><g><path d="m184.8125 285.898438h.535156c9.84375-.039063 18.488282-6.550782 21.246094-16h-43.023438c2.757813 9.449218 11.402344 15.960937 21.242188 16zm0 0" data-original="#000000" class="active-path" data-old_color="#000000" fill="#2055EC"/><path d="m249.289062 220.898438h-.269531c-4.410156 0-7.621093 4-7.621093 8.410156v5.589844h16v-5.589844c-.023438-4.515625-3.59375-8.21875-8.109376-8.410156zm0 0" data-original="#000000" class="active-path" data-old_color="#000000" fill="#2055EC"/><path d="m226.398438 140.972656c-.097657-.625-.640626-1.082031-1.269532-1.074218h-80.09375c-.585937 0-.636718.484374-.636718 1.074218v14.925782h82zm0 0" data-original="#000000" class="active-path" data-old_color="#000000" fill="#2055EC"/><path d="m121.140625 220.898438h-.265625c-4.589844.160156-8.28125 3.824218-8.476562 8.410156v5.589844h17v-5.589844c-.09375-4.546875-3.710938-8.230469-8.257813-8.410156zm0 0" data-original="#000000" class="active-path" data-old_color="#000000" fill="#2055EC"/><path d="m274.398438 167.898438h-178c-13.253907 0-24 10.746093-24 24v89c0 13.257812 10.746093 24 24 24h178c13.253906 0 24-10.742188 24-24v-89c0-13.253907-10.746094-24-24-24zm-133 73.324218c0 3.3125-2.941407 5.675782-6.257813 5.675782h-28.265625c-3.316406 0-6.476562-2.363282-6.476562-5.675782v-11.914062c.203124-11.210938 9.261718-20.242188 20.476562-20.410156h.265625c11.171875.1875 20.15625 9.242187 20.257813 20.410156zm78 22.832032c-.058594 18.75-15.300782 33.902343-34.050782 33.84375h-.535156c-18.746094 0-34.414062-15.097657-34.414062-33.84375v-.269532c0-3.3125 3.101562-5.886718 6.414062-5.886718h56.535156c1.585938-.027344 3.117188.582031 4.253906 1.683593 1.132813 1.105469 1.78125 2.621094 1.796876 4.203125zm50-22.832032c-.039063 1.570313-.707032 3.054688-1.859376 4.125-1.148437 1.070313-2.679687 1.628906-4.25 1.550782h-28.269531c-1.515625.058593-2.988281-.519532-4.058593-1.601563-1.070313-1.078125-1.636719-2.558594-1.5625-4.074219v-11.914062c0-11.027344 8.601562-20.410156 19.621093-20.410156h.269531c11.027344 0 20.109376 9.382812 20.109376 20.410156zm0 0" data-original="#000000" class="active-path" data-old_color="#000000" fill="#2055EC"/><path d="m342.738281 133.214844c0-9.011719-7.308593-16.316406-16.320312-16.316406-9.007813 0-16.316407 7.308593-16.316407 16.320312.003907 9.011719 7.308594 16.316406 16.320313 16.316406 9.007813-.011718 16.304687-7.3125 16.316406-16.320312zm0 0" data-original="#000000" class="active-path" data-old_color="#000000" fill="#2055EC"/><path d="m414.398438 207c0-114.140625-92.859376-207-207-207-114.140626 0-207 92.859375-207 207s92.859374 207 207 207c23.886718-.007812 47.59375-4.171875 70.058593-12.300781l114.285157 19.992187c2.527343.441406 5.09375-.53125 6.6875-2.542968 1.597656-2.007813 1.964843-4.730469.960937-7.089844l-31.628906-74.367188c30.269531-36.816406 46.761719-83.03125 46.636719-130.691406zm-104.800782 79.839844c-2.917968 17.335937-17.917968 30.039062-35.5 30.058594h-178.039062c-9.507813-.023438-18.617188-3.832032-25.308594-10.589844-6.691406-6.753906-10.417969-15.898438-10.351562-25.410156v-88.777344c0-19.851563 15.808593-36.222656 35.660156-36.222656h36.339844v-14.925782c0-7.203125 5.433593-13.074218 12.636718-13.074218h33.363282v-14.722657c0-3.316406 2.6875-6 6-6s6 2.683594 6 6v14.722657h34.730468c7.253906-.003907 13.164063 5.820312 13.269532 13.074218v14.925782h35.707031c17.597656.074218 32.582031 12.816406 35.488281 30.171874 3.691406.386719 7.320312 1.234376 10.804688 2.519532v-27.699219c-14.148438-3.066406-23.707032-16.308594-22.164063-30.699219 1.542969-14.394531 13.6875-25.308594 28.164063-25.308594 14.476562 0 26.621093 10.914063 28.164062 25.308594 1.542969 14.390625-8.015625 27.632813-22.164062 30.699219v33.667969c13 9.109375 22.328124 24.515625 22.328124 41.953125-.035156 25.820312-19.464843 47.492187-45.128906 50.328125zm0 0" data-original="#000000" class="active-path" data-old_color="#000000" fill="#2055EC"/><path d="m310.398438 198.34375v76.335938c18-2.890626 32.632812-18.902344 32.632812-38.167969 0-19.269531-14.632812-35.277344-32.632812-38.167969zm0 0" data-original="#000000" class="active-path" data-old_color="#000000" fill="#2055EC"/></g> </svg>
