<svg id="Capa_1" enable-background="new 0 0 488.48 488.48" height="512" viewBox="0 0 488.48 488.48" width="512"
     xmlns="http://www.w3.org/2000/svg">
  <path
    d="m427.421 183.181c-33.675 0-61.059 27.384-61.059 61.059 0 16.83-13.699 30.529-30.529 30.529s-30.529-13.699-30.529-30.529c0-9.555 4.562-18.693 12.209-24.418 30.589-22.942 48.85-59.464 48.85-97.7 0-67.335-54.783-122.118-122.118-122.118-65.874 0-127.633 25.834-173.904 72.746-46.257 46.897-71.226 109.03-70.317 174.963 1.819 130.928 109.82 238.928 240.762 240.747 1.163.015 2.325.015 3.488.015 64.607 0 125.382-24.895 171.46-70.331 46.912-46.271 72.746-108.03 72.746-173.904 0-33.675-27.384-61.059-61.059-61.059zm-335.824 61.059c0-16.862 13.668-30.529 30.529-30.529s30.529 13.668 30.529 30.529c0 16.86-13.668 30.529-30.529 30.529s-30.529-13.669-30.529-30.529zm87.884 107.937c-11.922 11.922-31.252 11.922-43.174 0-11.924-11.922-11.924-31.252 0-43.176 11.922-11.922 31.252-11.922 43.174 0 11.924 11.924 11.924 31.254 0 43.176zm0-172.7c-11.922 11.922-31.252 11.922-43.174 0-11.924-11.922-11.924-31.252 0-43.174 11.922-11.924 31.252-11.924 43.174 0 11.924 11.922 11.924 31.252 0 43.174zm64.763 217.41c-16.862 0-30.529-13.67-30.529-30.529 0-16.862 13.668-30.529 30.529-30.529s30.529 13.668 30.529 30.529c.001 16.859-13.667 30.529-30.529 30.529zm0-244.235c-16.862 0-30.529-13.67-30.529-30.529 0-16.862 13.668-30.529 30.529-30.529s30.529 13.668 30.529 30.529c.001 16.859-13.667 30.529-30.529 30.529z"/>
</svg>
