<?xml version="1.0"?>
<svg xmlns="http://www.w3.org/2000/svg" xmlns:xlink="http://www.w3.org/1999/xlink" version="1.1" id="Capa_1" x="0px" y="0px" viewBox="0 0 512 512" style="enable-background:new 0 0 512 512;" xml:space="preserve" width="512px" height="512px" class=""><g><g>
	<g>
		<path d="M470.932,40.697H41.067C18.386,40.697,0,59.084,0,81.764v269.675c0,22.681,18.386,41.068,41.067,41.068h128.656    l-5.372,33.457h-47.76c-4.199,0-7.604,3.405-7.604,7.604v30.131c0,4.199,3.405,7.604,7.604,7.604h278.816    c4.199,0,7.604-3.405,7.604-7.604v-30.131c0-4.199-3.405-7.604-7.604-7.604h-47.76l-5.372-33.457h27.87    c4.199,0,7.604-3.405,7.604-7.604s-3.405-7.604-7.604-7.604h-36.792H178.646H41.067c-14.282,0.001-25.859-11.577-25.859-25.859    V81.765c0-14.282,11.578-25.86,25.859-25.86h429.864c14.282,0,25.861,11.577,25.861,25.86v269.674    c0,14.282-11.578,25.86-25.86,25.86h-65.301c-4.199,0-7.604,3.405-7.604,7.604s3.405,7.604,7.604,7.604h65.3    c22.681,0,41.068-18.387,41.068-41.068V81.765C512,59.084,493.613,40.697,470.932,40.697z M185.126,392.507h141.747l5.371,33.457    h-152.49L185.126,392.507z M341.167,441.172h46.637v14.923H124.196v-14.923h46.637H341.167z" data-original="#000000" class="active-path" data-old_color="#FFF2F2" fill="#FFF3F3"/>
	</g>
</g><g>
	<g>
		<path d="M470.932,71.112H138.495c-4.199,0-7.604,3.405-7.604,7.604s3.405,7.604,7.604,7.604h327.881v260.562H45.624V86.32h57.387    c4.198,0.001,7.603-3.404,7.603-7.603s-3.405-7.604-7.604-7.604H41.067c-5.883,0-10.652,4.768-10.652,10.652v269.674    c0,5.882,4.769,10.652,10.652,10.652h429.864c5.883,0,10.653-4.769,10.653-10.653V81.765    C481.584,75.881,476.815,71.112,470.932,71.112z" data-original="#000000" class="active-path" data-old_color="#FFF2F2" fill="#FFF3F3"/>
	</g>
</g><g>
	<g>
		<path d="M72.227,100.255c-0.747,0-1.427,0.136-1.97,0.475l-8.967,5.434c-1.359,0.815-1.97,2.174-1.97,3.6    c0,2.106,1.359,4.212,3.328,4.212c0.476,0,1.087-0.136,1.698-0.543l1.97-1.223c0,0,0,34.577,0,34.577    c0,2.174,2.649,3.261,5.298,3.261s5.298-1.087,5.298-3.261v-43.204C76.914,101.545,74.4,100.255,72.227,100.255z" data-original="#000000" class="active-path" data-old_color="#FFF2F2" fill="#FFF3F3"/>
	</g>
</g><g>
	<g>
		<path d="M104.063,100.255c-0.747,0-1.427,0.136-1.97,0.475l-8.967,5.434c-1.359,0.815-1.97,2.174-1.97,3.6    c0,2.106,1.359,4.212,3.329,4.212c0.475,0,1.087-0.136,1.698-0.543l1.97-1.223v34.577c0,2.174,2.649,3.261,5.298,3.261    c2.649,0,5.298-1.087,5.298-3.261v-43.204C108.75,101.545,106.236,100.255,104.063,100.255z" data-original="#000000" class="active-path" data-old_color="#FFF2F2" fill="#FFF3F3"/>
	</g>
</g><g>
	<g>
		<path d="M142.42,100.39c-9.374,0-16.643,4.348-16.643,16.032v18.002c0,11.683,7.268,16.03,16.643,16.03    c9.374,0,16.71-4.347,16.71-16.031v-18.001C159.131,104.737,151.794,100.39,142.42,100.39z M148.534,134.423    c0,4.687-2.31,6.793-6.114,6.793s-6.046-2.106-6.046-6.793v-18.001c0-4.687,2.242-6.793,6.046-6.793s6.114,2.106,6.114,6.793    V134.423z" data-original="#000000" class="active-path" data-old_color="#FFF2F2" fill="#FFF3F3"/>
	</g>
</g><g>
	<g>
		<path d="M191.985,100.39c-9.374,0-16.643,4.348-16.643,16.032v18.002c0,11.683,7.268,16.03,16.643,16.03    c9.374,0,16.71-4.347,16.71-16.031v-18.001C208.695,104.737,201.359,100.39,191.985,100.39z M198.098,134.423    c0,4.687-2.31,6.793-6.114,6.793s-6.046-2.106-6.046-6.793v-18.001c0-4.687,2.242-6.793,6.046-6.793s6.114,2.106,6.114,6.793    V134.423z" data-original="#000000" class="active-path" data-old_color="#FFF2F2" fill="#FFF3F3"/>
	</g>
</g><g>
	<g>
		<path d="M235.027,100.255c-0.747,0-1.426,0.136-1.97,0.475l-8.967,5.434c-1.359,0.815-1.97,2.174-1.97,3.6    c0,2.106,1.359,4.212,3.329,4.212c0.476,0,1.087-0.136,1.698-0.543l1.97-1.223v34.577c0,2.174,2.649,3.261,5.298,3.261    s5.298-1.087,5.298-3.261v-43.204C239.714,101.545,237.201,100.255,235.027,100.255z" data-original="#000000" class="active-path" data-old_color="#FFF2F2" fill="#FFF3F3"/>
	</g>
</g><g>
	<g>
		<path d="M273.385,100.39c-9.374,0-16.643,4.348-16.643,16.032v18.002c0,11.683,7.268,16.03,16.643,16.03    c9.374,0,16.71-4.347,16.71-16.031v-18.001C290.095,104.737,282.759,100.39,273.385,100.39z M279.499,134.423    c0,4.687-2.31,6.793-6.114,6.793c-3.804,0-6.046-2.106-6.046-6.793v-18.001c0-4.687,2.242-6.793,6.046-6.793    c3.804,0,6.114,2.106,6.114,6.793V134.423z" data-original="#000000" class="active-path" data-old_color="#FFF2F2" fill="#FFF3F3"/>
	</g>
</g><g>
	<g>
		<path d="M316.428,100.255c-0.747,0-1.427,0.136-1.97,0.475l-8.968,5.434c-1.358,0.815-1.969,2.174-1.969,3.6    c0,2.106,1.359,4.212,3.328,4.212c0.475,0,1.086-0.136,1.698-0.543l1.969-1.222v34.576c0,2.174,2.648,3.261,5.298,3.261    c2.65,0,5.299-1.087,5.299-3.261v-43.204C321.115,101.545,318.602,100.255,316.428,100.255z" data-original="#000000" class="active-path" data-old_color="#FFF2F2" fill="#FFF3F3"/>
	</g>
</g><g>
	<g>
		<path d="M354.785,100.39c-9.374,0-16.643,4.348-16.643,16.032v18.002c0,11.683,7.268,16.03,16.643,16.03s16.71-4.347,16.71-16.031    v-18.001C371.495,104.737,364.159,100.39,354.785,100.39z M360.899,134.423c0,4.687-2.31,6.793-6.114,6.793    s-6.046-2.106-6.046-6.793v-18.001c0-4.687,2.242-6.793,6.046-6.793c3.804,0,6.114,2.106,6.114,6.793V134.423z" data-original="#000000" class="active-path" data-old_color="#FFF2F2" fill="#FFF3F3"/>
	</g>
</g><g>
	<g>
		<path d="M404.349,100.39c-9.374,0-16.643,4.348-16.643,16.032v18.002c0,11.683,7.268,16.03,16.643,16.03s16.71-4.347,16.71-16.031    v-18.001C421.06,104.737,413.723,100.39,404.349,100.39z M410.463,134.423c0,4.687-2.31,6.793-6.114,6.793    s-6.046-2.106-6.046-6.793v-18.001c0-4.687,2.242-6.793,6.046-6.793s6.114,2.106,6.114,6.793V134.423z" data-original="#000000" class="active-path" data-old_color="#FFF2F2" fill="#FFF3F3"/>
	</g>
</g><g>
	<g>
		<path d="M447.394,100.255c-0.747,0-1.427,0.136-1.97,0.475l-8.968,5.434c-1.358,0.815-1.969,2.174-1.969,3.6    c0,2.106,1.359,4.212,3.328,4.212c0.475,0,1.086-0.136,1.698-0.543l1.969-1.222v34.576c0,2.174,2.648,3.261,5.298,3.261    s5.299-1.087,5.299-3.261v-43.204C452.081,101.545,449.567,100.255,447.394,100.255z" data-original="#000000" class="active-path" data-old_color="#FFF2F2" fill="#FFF3F3"/>
	</g>
</g><g>
	<g>
		<path d="M78.749,161.221c-9.374,0-16.643,4.348-16.643,16.032v18.002c0,11.683,7.268,16.03,16.643,16.03    c9.374,0,16.71-4.347,16.71-16.031v-18.001C95.459,165.569,88.123,161.221,78.749,161.221z M84.862,195.255    c0,4.687-2.31,6.793-6.114,6.793s-6.046-2.106-6.046-6.793v-18.001c0-4.687,2.242-6.793,6.046-6.793s6.114,2.106,6.114,6.793    V195.255z" data-original="#000000" class="active-path" data-old_color="#FFF2F2" fill="#FFF3F3"/>
	</g>
</g><g>
	<g>
		<path d="M126.343,161.221c-9.374,0-16.643,4.348-16.643,16.032v18.002c0,11.683,7.268,16.03,16.643,16.03    c9.374,0,16.711-4.347,16.711-16.031v-18.001C143.054,165.569,135.718,161.221,126.343,161.221z M132.457,195.255    c0,4.687-2.31,6.793-6.114,6.793c-3.804,0-6.046-2.106-6.046-6.793v-18.001c0-4.687,2.242-6.793,6.046-6.793    c3.804,0,6.114,2.106,6.114,6.793V195.255z" data-original="#000000" class="active-path" data-old_color="#FFF2F2" fill="#FFF3F3"/>
	</g>
</g><g>
	<g>
		<path d="M173.937,161.221c-9.374,0-16.643,4.348-16.643,16.032v18.002c0,11.683,7.268,16.03,16.643,16.03    c9.374,0,16.711-4.347,16.711-16.031v-18.001C190.648,165.569,183.311,161.221,173.937,161.221z M180.052,195.255    c0,4.687-2.31,6.793-6.114,6.793s-6.046-2.106-6.046-6.793v-18.001c0-4.687,2.242-6.793,6.046-6.793s6.114,2.106,6.114,6.793    V195.255z" data-original="#000000" class="active-path" data-old_color="#FFF2F2" fill="#FFF3F3"/>
	</g>
</g><g>
	<g>
		<path d="M221.533,161.221c-9.374,0-16.643,4.348-16.643,16.032v18.002c0,11.683,7.268,16.03,16.643,16.03    s16.71-4.347,16.71-16.031v-18.001C238.243,165.569,230.907,161.221,221.533,161.221z M227.646,195.255    c0,4.687-2.31,6.793-6.114,6.793s-6.046-2.106-6.046-6.793v-18.001c0-4.687,2.242-6.793,6.046-6.793s6.114,2.106,6.114,6.793    V195.255z" data-original="#000000" class="active-path" data-old_color="#FFF2F2" fill="#FFF3F3"/>
	</g>
</g><g>
	<g>
		<path d="M269.128,161.221c-9.376,0-16.643,4.348-16.643,16.032v18.002c0,11.683,7.267,16.031,16.643,16.03    c9.374,0,16.709-4.347,16.709-16.031v-18.001C285.838,165.569,278.503,161.221,269.128,161.221z M275.24,195.255    c0,4.687-2.309,6.793-6.113,6.793c-3.805,0-6.047-2.106-6.047-6.793v-18.001c0-4.687,2.242-6.793,6.047-6.793    c3.804,0,6.113,2.106,6.113,6.793V195.255z" data-original="#000000" class="active-path" data-old_color="#FFF2F2" fill="#FFF3F3"/>
	</g>
</g><g>
	<g>
		<path d="M310.201,161.086c-0.747,0-1.426,0.136-1.97,0.475l-8.968,5.434c-1.358,0.815-1.969,2.174-1.969,3.6    c0,2.106,1.359,4.212,3.328,4.212c0.476,0,1.086-0.136,1.698-0.543l1.969-1.222v34.576c0,2.174,2.648,3.261,5.298,3.261    s5.299-1.087,5.299-3.261v-43.204C314.888,162.377,312.375,161.086,310.201,161.086z" data-original="#000000" class="active-path" data-old_color="#FFF2F2" fill="#FFF3F3"/>
	</g>
</g><g>
	<g>
		<path d="M346.588,161.221c-9.374,0-16.643,4.348-16.643,16.032v18.002c0,11.683,7.268,16.03,16.643,16.03    c9.374,0,16.71-4.347,16.71-16.031v-18.001C363.298,165.569,355.962,161.221,346.588,161.221z M352.702,195.255    c0,4.687-2.31,6.793-6.114,6.793c-3.804,0-6.046-2.106-6.046-6.793v-18.001c0-4.687,2.242-6.793,6.046-6.793    c3.804,0,6.114,2.106,6.114,6.793V195.255z" data-original="#000000" class="active-path" data-old_color="#FFF2F2" fill="#FFF3F3"/>
	</g>
</g><g>
	<g>
		<path d="M387.661,161.086c-0.747,0-1.426,0.136-1.97,0.475l-8.968,5.434c-1.358,0.815-1.969,2.174-1.969,3.6    c0,2.106,1.359,4.212,3.328,4.212c0.476,0,1.086-0.136,1.698-0.543l1.969-1.222v34.576c0,2.174,2.648,3.261,5.298,3.261    s5.299-1.087,5.299-3.261v-43.204C392.348,162.377,389.835,161.086,387.661,161.086z" data-original="#000000" class="active-path" data-old_color="#FFF2F2" fill="#FFF3F3"/>
	</g>
</g><g>
	<g>
		<path d="M417.527,161.086c-0.747,0-1.427,0.136-1.97,0.475l-8.968,5.434c-1.358,0.815-1.969,2.174-1.969,3.6    c0,2.106,1.359,4.212,3.328,4.212c0.475,0,1.086-0.136,1.698-0.543l1.969-1.222v34.576c0,2.174,2.648,3.261,5.298,3.261    s5.299-1.087,5.299-3.261v-43.204C422.214,162.377,419.701,161.086,417.527,161.086z" data-original="#000000" class="active-path" data-old_color="#FFF2F2" fill="#FFF3F3"/>
	</g>
</g><g>
	<g>
		<path d="M447.394,161.086c-0.747,0-1.427,0.136-1.97,0.475l-8.968,5.434c-1.358,0.815-1.969,2.174-1.969,3.6    c0,2.106,1.359,4.212,3.328,4.212c0.475,0,1.086-0.136,1.698-0.543l1.969-1.222v34.576c0,2.174,2.648,3.261,5.298,3.261    s5.299-1.087,5.299-3.261v-43.204C452.081,162.377,449.567,161.086,447.394,161.086z" data-original="#000000" class="active-path" data-old_color="#FFF2F2" fill="#FFF3F3"/>
	</g>
</g><g>
	<g>
		<path d="M72.227,221.918c-0.747,0-1.427,0.136-1.97,0.476l-8.967,5.434c-1.359,0.815-1.97,2.174-1.97,3.6    c0,2.106,1.359,4.212,3.328,4.212c0.476,0,1.087-0.136,1.698-0.543l1.97-1.223c0,0,0,34.577,0,34.577    c0,2.174,2.649,3.261,5.298,3.261s5.298-1.087,5.298-3.261v-43.204C76.914,223.209,74.4,221.918,72.227,221.918z" data-original="#000000" class="active-path" data-old_color="#FFF2F2" fill="#FFF3F3"/>
	</g>
</g><g>
	<g>
		<path d="M104.063,221.918c-0.747,0-1.427,0.136-1.97,0.476l-8.967,5.434c-1.359,0.815-1.97,2.174-1.97,3.6    c0,2.106,1.359,4.212,3.329,4.212c0.475,0,1.087-0.136,1.698-0.543l1.97-1.223v34.577c0,2.174,2.649,3.261,5.298,3.261    c2.649,0,5.298-1.087,5.298-3.261v-43.204C108.75,223.209,106.236,221.918,104.063,221.918z" data-original="#000000" class="active-path" data-old_color="#FFF2F2" fill="#FFF3F3"/>
	</g>
</g><g>
	<g>
		<path d="M142.42,222.053c-9.374,0-16.643,4.349-16.643,16.032v18.002c0,11.683,7.268,16.03,16.643,16.03    c9.374,0,16.71-4.347,16.71-16.031v-18.001C159.131,226.4,151.794,222.053,142.42,222.053z M148.534,256.086    c0,4.687-2.31,6.793-6.114,6.793s-6.046-2.106-6.046-6.793v-18.001c0-4.687,2.242-6.793,6.046-6.793s6.114,2.106,6.114,6.793    V256.086z" data-original="#000000" class="active-path" data-old_color="#FFF2F2" fill="#FFF3F3"/>
	</g>
</g><g>
	<g>
		<path d="M185.463,221.918c-0.747,0-1.426,0.136-1.97,0.476l-8.967,5.434c-1.359,0.815-1.97,2.174-1.97,3.6    c0,2.106,1.359,4.212,3.329,4.212c0.476,0,1.087-0.136,1.698-0.543l1.97-1.223v34.577c0,2.174,2.649,3.261,5.298,3.261    s5.298-1.087,5.298-3.261v-43.204C190.15,223.209,187.636,221.918,185.463,221.918z" data-original="#000000" class="active-path" data-old_color="#FFF2F2" fill="#FFF3F3"/>
	</g>
</g><g>
	<g>
		<path d="M223.82,222.053c-9.374,0-16.643,4.349-16.643,16.032v18.002c0,11.683,7.268,16.03,16.643,16.03    c9.374,0,16.71-4.347,16.71-16.031v-18.001C240.531,226.4,233.194,222.053,223.82,222.053z M229.934,256.086    c0,4.687-2.31,6.793-6.114,6.793c-3.804,0-6.046-2.106-6.046-6.793v-18.001c0-4.687,2.242-6.793,6.046-6.793    c3.804,0,6.114,2.106,6.114,6.793V256.086z" data-original="#000000" class="active-path" data-old_color="#FFF2F2" fill="#FFF3F3"/>
	</g>
</g><g>
	<g>
		<path d="M273.385,222.053c-9.374,0-16.643,4.349-16.643,16.032v18.002c0,11.683,7.268,16.03,16.643,16.03    c9.374,0,16.71-4.347,16.71-16.031v-18.001C290.095,226.4,282.759,222.053,273.385,222.053z M279.499,256.086    c0,4.687-2.31,6.793-6.114,6.793c-3.804,0-6.046-2.106-6.046-6.793v-18.001c0-4.687,2.242-6.793,6.046-6.793    c3.804,0,6.114,2.106,6.114,6.793V256.086z" data-original="#000000" class="active-path" data-old_color="#FFF2F2" fill="#FFF3F3"/>
	</g>
</g><g>
	<g>
		<path d="M316.428,221.918c-0.747,0-1.427,0.136-1.97,0.476l-8.968,5.434c-1.358,0.815-1.969,2.174-1.969,3.6    c0,2.106,1.359,4.212,3.328,4.212c0.475,0,1.086-0.136,1.698-0.543l1.969-1.222v34.576c0,2.174,2.648,3.261,5.298,3.261    c2.65,0,5.299-1.087,5.299-3.261v-43.204C321.115,223.209,318.602,221.918,316.428,221.918z" data-original="#000000" class="active-path" data-old_color="#FFF2F2" fill="#FFF3F3"/>
	</g>
</g><g>
	<g>
		<path d="M354.785,222.053c-9.374,0-16.643,4.349-16.643,16.032v18.002c0,11.683,7.268,16.03,16.643,16.03    s16.71-4.347,16.71-16.031v-18.001C371.495,226.4,364.159,222.053,354.785,222.053z M360.899,256.086    c0,4.687-2.31,6.793-6.114,6.793s-6.046-2.106-6.046-6.793v-18.001c0-4.687,2.242-6.793,6.046-6.793    c3.804,0,6.114,2.106,6.114,6.793V256.086z" data-original="#000000" class="active-path" data-old_color="#FFF2F2" fill="#FFF3F3"/>
	</g>
</g><g>
	<g>
		<path d="M404.349,222.053c-9.374,0-16.643,4.349-16.643,16.032v18.002c0,11.683,7.268,16.03,16.643,16.03    s16.71-4.347,16.71-16.031v-18.001C421.06,226.4,413.723,222.053,404.349,222.053z M410.463,256.086    c0,4.687-2.31,6.793-6.114,6.793s-6.046-2.106-6.046-6.793v-18.001c0-4.687,2.242-6.793,6.046-6.793s6.114,2.106,6.114,6.793    V256.086z" data-original="#000000" class="active-path" data-old_color="#FFF2F2" fill="#FFF3F3"/>
	</g>
</g><g>
	<g>
		<path d="M447.393,221.918c-0.747,0-1.426,0.136-1.97,0.476l-8.968,5.434c-1.358,0.815-1.969,2.174-1.969,3.6    c0,2.106,1.359,4.212,3.328,4.212c0.476,0,1.086-0.136,1.698-0.543l1.969-1.222v34.576c0,2.174,2.648,3.261,5.298,3.261    s5.299-1.087,5.299-3.261v-43.204C452.08,223.209,449.566,221.918,447.393,221.918z" data-original="#000000" class="active-path" data-old_color="#FFF2F2" fill="#FFF3F3"/>
	</g>
</g><g>
	<g>
		<path d="M78.966,282.885c-9.374,0-16.643,4.348-16.643,16.032v18.002c0,11.683,7.268,16.03,16.643,16.03    c9.374,0,16.71-4.347,16.71-16.031v-18.001C95.676,287.232,88.34,282.885,78.966,282.885z M85.079,316.918    c0,4.687-2.31,6.793-6.114,6.793c-3.804,0-6.046-2.106-6.046-6.793v-18.001c0-4.687,2.242-6.793,6.046-6.793    c3.804,0,6.114,2.106,6.114,6.793V316.918z" data-original="#000000" class="active-path" data-old_color="#FFF2F2" fill="#FFF3F3"/>
	</g>
</g><g>
	<g>
		<path d="M119.99,282.75c-0.747,0-1.426,0.136-1.97,0.476l-8.967,5.434c-1.359,0.815-1.97,2.174-1.97,3.6    c0,2.106,1.359,4.212,3.328,4.212c0.476,0,1.087-0.136,1.698-0.543l1.97-1.223v34.577c0,2.174,2.649,3.261,5.298,3.261    s5.298-1.087,5.298-3.261v-43.204C124.678,284.04,122.164,282.75,119.99,282.75z" data-original="#000000" class="active-path" data-old_color="#FFF2F2" fill="#FFF3F3"/>
	</g>
</g><g>
	<g>
		<path d="M156.329,282.885c-9.374,0-16.643,4.348-16.643,16.032v18.002c0,11.683,7.268,16.03,16.643,16.03    c9.374,0,16.71-4.347,16.71-16.031v-18.001C173.04,287.232,165.703,282.885,156.329,282.885z M162.444,316.918    c0,4.687-2.31,6.793-6.114,6.793s-6.046-2.106-6.046-6.793v-18.001c0-4.687,2.242-6.793,6.046-6.793s6.114,2.106,6.114,6.793    V316.918z" data-original="#000000" class="active-path" data-old_color="#FFF2F2" fill="#FFF3F3"/>
	</g>
</g><g>
	<g>
		<path d="M197.354,282.75c-0.747,0-1.427,0.136-1.97,0.476l-8.967,5.434c-1.359,0.815-1.97,2.174-1.97,3.6    c0,2.106,1.359,4.212,3.328,4.212c0.476,0,1.087-0.136,1.698-0.543l1.97-1.223v34.577c0,2.174,2.649,3.261,5.298,3.261    c2.649,0,5.298-1.087,5.298-3.261v-43.204C202.041,284.04,199.528,282.75,197.354,282.75z" data-original="#000000" class="active-path" data-old_color="#FFF2F2" fill="#FFF3F3"/>
	</g>
</g><g>
	<g>
		<path d="M233.694,282.885c-9.374,0-16.643,4.348-16.643,16.032v18.002c0,11.683,7.268,16.03,16.643,16.03    s16.71-4.347,16.71-16.031v-18.001C250.404,287.232,243.068,282.885,233.694,282.885z M239.808,316.918    c0,4.687-2.31,6.793-6.114,6.793s-6.046-2.106-6.046-6.793v-18.001c0-4.687,2.242-6.793,6.046-6.793s6.114,2.106,6.114,6.793    V316.918z" data-original="#000000" class="active-path" data-old_color="#FFF2F2" fill="#FFF3F3"/>
	</g>
</g><g>
	<g>
		<path d="M274.72,282.75c-0.747,0-1.427,0.136-1.97,0.476l-8.968,5.434c-1.358,0.815-1.969,2.174-1.969,3.6    c0,2.106,1.359,4.212,3.328,4.212c0.475,0,1.086-0.136,1.698-0.543l1.969-1.222v34.576c0,2.174,2.648,3.261,5.298,3.261    s5.299-1.087,5.299-3.261v-43.204C279.407,284.04,276.894,282.75,274.72,282.75z" data-original="#000000" class="active-path" data-old_color="#FFF2F2" fill="#FFF3F3"/>
	</g>
</g><g>
	<g>
		<path d="M311.058,282.885c-9.374,0-16.643,4.348-16.643,16.032v18.002c0,11.683,7.268,16.03,16.643,16.03    c9.374,0,16.71-4.347,16.71-16.031v-18.001C327.768,287.232,320.432,282.885,311.058,282.885z M317.172,316.918    c0,4.687-2.31,6.793-6.114,6.793s-6.046-2.106-6.046-6.793v-18.001c0-4.687,2.242-6.793,6.046-6.793    c3.804,0,6.114,2.106,6.114,6.793V316.918z" data-original="#000000" class="active-path" data-old_color="#FFF2F2" fill="#FFF3F3"/>
	</g>
</g><g>
	<g>
		<path d="M352.083,282.75c-0.747,0-1.426,0.136-1.97,0.476l-8.968,5.434c-1.358,0.815-1.969,2.174-1.969,3.6    c0,2.106,1.359,4.212,3.328,4.212c0.476,0,1.086-0.136,1.698-0.543l1.969-1.222v34.576c0,2.174,2.648,3.261,5.298,3.261    s5.299-1.087,5.299-3.261v-43.204C356.77,284.04,354.256,282.75,352.083,282.75z" data-original="#000000" class="active-path" data-old_color="#FFF2F2" fill="#FFF3F3"/>
	</g>
</g><g>
	<g>
		<path d="M388.422,282.885c-9.374,0-16.643,4.348-16.643,16.032v18.002c0,11.683,7.268,16.03,16.643,16.03    c9.374,0,16.71-4.347,16.71-16.031v-18.001C405.132,287.232,397.796,282.885,388.422,282.885z M394.535,316.918    c0,4.687-2.31,6.793-6.114,6.793s-6.046-2.106-6.046-6.793v-18.001c0-4.687,2.242-6.793,6.046-6.793    c3.804,0,6.114,2.106,6.114,6.793V316.918z" data-original="#000000" class="active-path" data-old_color="#FFF2F2" fill="#FFF3F3"/>
	</g>
</g><g>
	<g>
		<path d="M435.969,282.885c-9.374,0-16.643,4.348-16.643,16.032v18.002c0,11.683,7.268,16.03,16.643,16.03    s16.71-4.347,16.71-16.031v-18.001C452.679,287.232,445.343,282.885,435.969,282.885z M442.082,316.918    c0,4.687-2.31,6.793-6.114,6.793s-6.046-2.106-6.046-6.793v-18.001c0-4.687,2.242-6.793,6.046-6.793    c3.804,0,6.114,2.106,6.114,6.793V316.918z" data-original="#000000" class="active-path" data-old_color="#FFF2F2" fill="#FFF3F3"/>
	</g>
</g></g> </svg>
