<?xml version="1.0"?>
<svg xmlns="http://www.w3.org/2000/svg" height="512px" viewBox="-15 1 511 511.999" width="512px"><g><path d="m112.527344 250.882812h33.304687c4.144531 0 7.503907-3.355468 7.503907-7.503906 0-4.144531-3.359376-7.5-7.503907-7.5h-33.304687c-33.441406 0-60.742188-26.875-60.855469-59.910156-.054687-16.101562 6.171875-31.25 17.535156-42.652344s26.488281-17.683594 42.640625-17.683594h.011719c6.609375 0 12.460937-4.449218 14.226563-10.824218 4.988281-17.996094 21.53125-30.5625 40.230468-30.5625.484375 0 .96875.007812 1.445313.023437 7.195312.269531 13.445312-4.605469 14.902343-11.558593 5.800782-27.640626 30.546876-47.703126 58.835938-47.703126s53.03125 20.0625 58.832031 47.703126c1.460938 6.953124 7.734375 11.828124 14.898438 11.5625.480469-.019532.964843-.027344 1.453125-.027344 18.695312 0 35.238281 12.570312 40.226562 30.5625 1.765625 6.375 7.617188 10.824218 14.28125 10.824218h.011719c16.097656 0 31.222656 6.28125 42.585937 17.6875 11.363282 11.402344 17.589844 26.546876 17.535157 42.652344-.113281 33.03125-27.414063 59.90625-60.855469 59.90625h-189.621094c-4.144531 0-7.503906 3.359375-7.503906 7.503906 0 4.144532 3.359375 7.503907 7.503906 7.503907h189.625c41.6875 0 75.71875-33.585938 75.859375-74.863281.070313-20.121094-7.710937-39.046876-21.910156-53.296876-14.15625-14.207031-32.984375-22.046874-53.09375-22.097656-7-24.9375-30.324219-42.164062-56.382813-41.359375-7.390624-34.367187-38.21875-59.269531-73.445312-59.269531s-66.054688 24.902344-73.445312 59.265625c-.578126-.019531-1.15625-.027344-1.738282-.027344-25.355468 0-47.800781 17.011719-54.640625 41.386719-20.074219.03125-38.925781 7.878906-53.097656 22.097656-14.199219 14.25-21.980469 33.179688-21.910156 53.296875.140625 41.28125 34.171875 74.863281 75.859375 74.863281zm0 0" data-original="#fff" class="active-path" fill="#fff"/><path d="m267.761719 415.832031v-122.128906c0-14.480469-11.78125-26.261719-26.261719-26.261719s-26.261719 11.78125-26.261719 26.261719v122.125c-15.203125 9.007813-25.421875 25.574219-25.421875 44.488281 0 28.496094 23.183594 51.683594 51.683594 51.683594 28.496094 0 51.683594-23.1875 51.683594-51.683594 0-18.914062-10.222656-35.476562-25.421875-44.484375zm-37.515625-122.128906c0-6.207031 5.046875-11.253906 11.253906-11.253906 6.203125 0 11.253906 5.046875 11.253906 11.253906v116.179687c-3.625-.808593-7.386718-1.246093-11.253906-1.246093s-7.628906.4375-11.253906 1.246093zm11.253906 203.289063c-20.222656 0-36.675781-16.453126-36.675781-36.675782s16.453125-36.671875 36.675781-36.671875 36.675781 16.449219 36.675781 36.671875-16.453125 36.675782-36.675781 36.675782zm0 0" data-original="#fff" class="active-path" fill="#fff"/><path d="m165.082031 267.441406c-13.03125 0-23.632812 10.601563-23.632812 23.628906v71.382813c0 .8125-.65625 1.472656-1.46875 1.472656h-41.660157c-8.523437-16.851562-26-28.441406-46.136718-28.441406-28.5 0-51.683594 23.183594-51.683594 51.683594 0 28.496093 23.183594 51.679687 51.683594 51.679687 19.828125 0 37.078125-11.230468 45.738281-27.664062h56.1875c19.078125 0 34.601563-15.523438 34.601563-34.601563v-85.511719c0-13.027343-10.601563-23.628906-23.628907-23.628906zm-112.898437 156.402344c-20.222656 0-36.675782-16.453125-36.675782-36.675781 0-20.226563 16.453126-36.675781 36.675782-36.675781s36.675781 16.449218 36.675781 36.675781c0 20.222656-16.453125 36.675781-36.675781 36.675781zm121.523437-47.261719c0 10.804688-8.792969 19.597657-19.597656 19.597657h-51.046875c.515625-2.929688.800781-5.9375.800781-9.011719 0-2.804688-.230469-5.554688-.660156-8.238281h36.777344c9.085937 0 16.476562-7.390626 16.476562-16.476563v-71.382813c0-4.753906 3.871094-8.621093 8.625-8.621093 4.753907 0 8.625 3.867187 8.625 8.621093zm0 0" data-original="#fff" class="active-path" fill="#fff"/><path d="m430.816406 335.484375c-20.140625 0-37.613281 11.589844-46.140625 28.441406h-41.660156c-.808594 0-1.46875-.660156-1.46875-1.472656v-12.742187c0-4.144532-3.359375-7.503907-7.503906-7.503907s-7.503907 3.359375-7.503907 7.503907v12.742187c0 9.085937 7.394532 16.476563 16.476563 16.476563h36.78125c-.429687 2.683593-.664063 5.433593-.664063 8.238281 0 3.074219.285157 6.082031.804688 9.011719h-51.046875c-10.804687 0-19.597656-8.792969-19.597656-19.597657v-85.511719c0-4.753906 3.867187-8.621093 8.625-8.621093 4.753906 0 8.621093 3.867187 8.621093 8.621093v23.789063c0 4.144531 3.359376 7.503906 7.503907 7.503906s7.503906-3.359375 7.503906-7.503906v-23.789063c0-13.027343-10.601563-23.628906-23.628906-23.628906-13.03125 0-23.628907 10.601563-23.628907 23.628906v85.511719c0 19.078125 15.519532 34.601563 34.601563 34.601563h56.183594c8.664062 16.433594 25.910156 27.664062 45.742187 27.664062 28.496094 0 51.679688-23.183594 51.679688-51.679687 0-28.5-23.183594-51.683594-51.679688-51.683594zm0 88.359375c-20.222656 0-36.675781-16.453125-36.675781-36.675781 0-20.226563 16.453125-36.675781 36.675781-36.675781s36.675782 16.449218 36.675782 36.675781c0 20.222656-16.453126 36.675781-36.675782 36.675781zm0 0" data-original="#fff" class="active-path" fill="#fff"/></g> </svg>
