<?xml version="1.0" encoding="utf-8"?>
<!-- Generator: Adobe Illustrator 23.0.1, SVG Export Plug-In . SVG Version: 6.00 Build 0)  -->
<svg version="1.1" id="Capa_1" xmlns="http://www.w3.org/2000/svg" x="0px" y="0px"
     viewBox="0 0 405.3 405.3" style="enable-background:new 0 0 405.3 405.3;" xml:space="preserve">
<style type="text/css">
	.st0{fill:#FFFFFF;}
</style>
  <g>
	<g>
		<g>
			<path class="st0" d="M85.3,53.3h-64C9.6,53.3,0,62.9,0,74.7v256C0,342.4,9.6,352,21.3,352h64c11.7,0,21.3-9.6,21.3-21.3v-256
				C106.7,62.9,97.1,53.3,85.3,53.3z"/>
      <path class="st0" d="M234.7,53.3h-64c-11.7,0-21.3,9.6-21.3,21.3v256c0,11.7,9.6,21.3,21.3,21.3h64c11.7,0,21.3-9.6,21.3-21.3
				v-256C256,62.9,246.4,53.3,234.7,53.3z"/>
      <path class="st0" d="M384,53.3h-64c-11.7,0-21.3,9.6-21.3,21.3v256c0,11.7,9.6,21.3,21.3,21.3h64c11.7,0,21.3-9.6,21.3-21.3v-256
				C405.3,62.9,395.7,53.3,384,53.3z"/>
		</g>
	</g>
</g>
</svg>
