<?xml version="1.0" standalone="no"?>
<!DOCTYPE svg PUBLIC "-//W3C//DTD SVG 20010904//EN"
 "http://www.w3.org/TR/2001/REC-SVG-20010904/DTD/svg10.dtd">
<svg version="1.0" xmlns="http://www.w3.org/2000/svg"
 width="158.000000pt" height="158.000000pt" viewBox="0 0 158.000000 158.000000"
 preserveAspectRatio="xMidYMid meet">
<metadata>
Created by potrace 1.15, written by Peter Selinger 2001-2017
</metadata>
<g transform="translate(0.000000,158.000000) scale(0.100000,-0.100000)"
fill="#2055EC" stroke="none">
<path d="M635 1545 c-234 -51 -426 -200 -530 -410 -64 -129 -80 -196 -80 -345
0 -149 16 -216 80 -345 155 -313 500 -480 843 -409 298 62 534 298 596 596 86
417 -181 826 -596 912 -124 26 -118 29 -118 -66 l0 -83 -67 -3 c-152 -5 -287
-65 -398 -177 -120 -119 -175 -254 -175 -425 0 -110 19 -191 66 -280 36 -70
118 -170 138 -170 6 0 36 24 65 54 l53 53 56 -33 c67 -41 105 -53 193 -61 288
-26 530 262 455 542 -14 53 -49 130 -72 156 -12 13 -10 19 16 44 29 28 30 28
45 9 9 -10 29 -45 45 -76 107 -206 70 -439 -95 -603 -158 -158 -376 -199 -577
-108 l-59 26 -31 -30 -31 -31 59 -30 c77 -38 114 -49 201 -62 136 -19 280 15
403 95 366 238 366 770 0 1010 -36 24 -96 53 -133 66 l-67 24 0 39 0 38 37 -7
c98 -18 232 -94 318 -180 104 -105 165 -226 191 -381 14 -82 15 -109 5 -183
-23 -164 -83 -291 -188 -397 -137 -139 -293 -206 -483 -207 -153 -1 -254 28
-380 108 -147 94 -251 240 -296 415 -22 84 -22 235 0 320 66 263 288 470 551
514 l70 12 3 42 c3 40 2 42 -25 41 -15 0 -55 -7 -88 -14z m255 -245 c85 -16
230 -89 230 -116 0 -6 -11 -21 -25 -34 -23 -21 -26 -22 -42 -8 -72 64 -222 99
-335 80 -311 -54 -467 -411 -293 -674 l27 -40 -23 -24 c-12 -13 -28 -24 -34
-24 -6 0 -26 25 -45 56 -128 212 -98 465 76 642 121 122 293 174 464 142z m58
-194 c72 -37 128 -96 164 -172 25 -54 30 -75 30 -144 0 -69 -5 -90 -30 -144
-36 -76 -92 -135 -164 -173 -48 -25 -62 -28 -158 -28 -94 0 -110 3 -155 27
-70 37 -132 100 -163 166 -23 49 -27 70 -27 152 0 82 4 103 27 152 40 85 124
158 218 189 14 5 66 7 115 6 75 -3 99 -8 143 -31z"/>
</g>
</svg>