<svg id="Individual_Logo" xmlns="http://www.w3.org/2000/svg" viewBox="0 0 158 158">
  <defs>
    <style>.cls-1{fill:#2055ec;stroke:#2055ec;stroke-linejoin:round;stroke-width:0.75px;}</style>
  </defs>
  <title>Logo</title>
  <path class="cls-1"
        d="M83.76,2.46v16.2c-1.57-.13-3.16-.19-4.76-.19A60.42,60.42,0,0,0,38.47,123.73l2.68-2.63L44,118.28h0l6.65-6.56A43.33,43.33,0,0,0,112.2,51.09l6.65-6.56a52.65,52.65,0,0,1-67.24,79.38l-5.69,5.61A60.45,60.45,0,1,0,91.53,19.78V11.23a68.84,68.84,0,1,1-16.94-1V2.43a76.71,76.71,0,1,0,9.17,0ZM114.45,78c0,.19,0,.4,0,.61s0,.62,0,.91A35.5,35.5,0,0,1,79,114.4l-1.11,0c-.24,0-.48,0-.71,0a35.39,35.39,0,0,1-21.06-8,34.89,34.89,0,0,1-5.46-5.54A35.75,35.75,0,0,1,101.3,50.92a36.67,36.67,0,0,1,5.46,5.54A35.59,35.59,0,0,1,114.45,78Zm-1.1-39-6.66,6.56a43.33,43.33,0,0,0-61.42,60.53L38.6,112.7A52.65,52.65,0,0,1,113.35,39Z"/>
</svg>
