<svg width="512" height="512" xmlns="http://www.w3.org/2000/svg">

 <g>
  <title>background</title>
  <rect fill="none" id="canvas_background" height="402" width="582" y="-1" x="-1"/>
 </g>
 <g>
  <title>Layer 1</title>
  <circle r="256" id="ellipse" fill="#2055ec" cy="256" cx="256"/>
  <path id="logo" fill="#FFFFFF" d="m358.4,145.7c-1.1,-0.1 -25.6,-1.9 -25.6,-1.9s-17,-17 -18.9,-18.8c-1.9,-1.9 -5.5,-1.3 -6.9,-0.9c-0.2,0.1 -3.7,1.2 -9.5,3c-5.7,-16.4 -15.7,-31.5 -33.4,-31.5c-0.5,0 -1,0 -1.5,0.1c-5,-6.7 -11.2,-9.6 -16.6,-9.6c-41.1,0 -60.7,51.6 -66.8,77.8c-16,5 -27.3,8.5 -28.7,9c-8.9,2.8 -9.2,3.1 -10.4,11.5c-0.9,6.4 -24.2,187.5 -24.2,187.5l181.7,34.1l98.4,-21.4c0,0 -34.5,-234.7 -34.8,-236.3c-0.2,-1.6 -1.6,-2.5 -2.8,-2.6zm-97,-9.2c0,0.6 0,1.2 0,1.8c-10,3.1 -20.9,6.5 -31.7,9.9c6.1,-23.7 17.5,-35.1 27.6,-39.5c2.4,6.3 4.1,15.5 4.1,27.8zm-16.4,-39.4c1.8,0 3.5,0.6 5.3,1.8c-13.2,6.2 -27.3,21.9 -33.2,53.2c-8.7,2.7 -17.2,5.4 -25.1,7.8c6.9,-23.9 23.5,-62.8 53,-62.8zm7.1,139.5c0,0 -10.6,-5.7 -23.7,-5.7c-19.1,0 -20.1,12.1 -20.1,15.1c0,16.6 43,22.9 43,61.7c0,30.5 -19.3,50.2 -45.2,50.2c-31.2,0 -47.1,-19.5 -47.1,-19.5l8.4,-27.7c0,0 16.4,14.1 30.2,14.1c9,0 12.7,-7.2 12.7,-12.4c0,-21.6 -35.2,-22.6 -35.2,-58.1c0,-29.9 21.3,-58.8 64.4,-58.8c16.6,0 24.8,4.8 24.8,4.8l-12.2,36.3zm20,-101.7c0,-1.1 0,-2.2 0,-3.3c0,-10.2 -1.4,-18.4 -3.7,-24.9c9.1,1.1 15.1,11.5 19,23.5c-4.5,1.3 -9.7,3 -15.3,4.7z"/>
 </g>
</svg>