<svg xmlns="http://www.w3.org/2000/svg" xmlns:xlink="http://www.w3.org/1999/xlink" viewBox="0 0 650 650"><defs><style>.cls-1{fill:url(#Безымянный_градиент_263);}.cls-2{fill:url(#Безымянный_градиент_170);}.cls-3{fill:#fff;}.cls-25,.cls-26,.cls-27,.cls-4,.cls-42,.cls-43,.cls-44,.cls-45,.cls-46,.cls-47,.cls-48,.cls-49,.cls-50,.cls-51,.cls-52,.cls-53,.cls-54,.cls-55{fill:none;stroke-miterlimit:10;}.cls-4{stroke:#a19fa2;stroke-width:2.7px;}.cls-5{fill:url(#Безымянный_градиент_123);}.cls-6{fill:url(#Безымянный_градиент_123-2);}.cls-7{fill:url(#Безымянный_градиент_123-3);}.cls-8{fill:url(#Безымянный_градиент_123-4);}.cls-9{fill:#201f4f;}.cls-10{fill:url(#Безымянный_градиент_123-5);}.cls-11{fill:url(#Безымянный_градиент_123-6);}.cls-12{fill:#141330;}.cls-13{fill:#d5527e;}.cls-14{fill:url(#Безымянный_градиент_123-7);}.cls-15{fill:url(#Безымянный_градиент_170-2);}.cls-16{fill:url(#Безымянный_градиент_171);}.cls-17{fill:url(#Безымянный_градиент_171-2);}.cls-18{fill:url(#Безымянный_градиент_123-8);}.cls-19{fill:url(#Безымянный_градиент_48);}.cls-20{fill:url(#Безымянный_градиент_139);}.cls-21{fill:url(#Безымянный_градиент_123-9);}.cls-22{fill:url(#Безымянный_градиент_140);}.cls-23{fill:url(#Безымянный_градиент_48-2);}.cls-24{fill:url(#Безымянный_градиент_123-10);}.cls-25,.cls-26,.cls-27,.cls-42,.cls-43,.cls-44,.cls-45,.cls-46,.cls-47,.cls-48,.cls-49,.cls-50,.cls-51,.cls-52,.cls-53,.cls-54,.cls-55{stroke-linecap:round;stroke-width:5.52px;}.cls-25{stroke:url(#Безымянный_градиент_139-2);}.cls-26{stroke:url(#Безымянный_градиент_139-3);}.cls-27{stroke:url(#Безымянный_градиент_139-4);}.cls-28{fill:url(#Безымянный_градиент_29);}.cls-29{fill:url(#Безымянный_градиент_29-2);}.cls-30{fill:url(#Безымянный_градиент_48-3);}.cls-31{fill:url(#Безымянный_градиент_157);}.cls-32{fill:url(#Безымянный_градиент_160);}.cls-33{fill:url(#Безымянный_градиент_162);}.cls-34{fill:url(#Безымянный_градиент_157-2);}.cls-35{fill:url(#Безымянный_градиент_163);}.cls-36{fill:url(#Безымянный_градиент_157-3);}.cls-37{fill:url(#Безымянный_градиент_3);}.cls-38{fill:url(#Безымянный_градиент_157-4);}.cls-39{fill:url(#Безымянный_градиент_157-5);}.cls-40{fill:#a19fa2;}.cls-41{fill:url(#Безымянный_градиент_139-5);}.cls-42{stroke:url(#Безымянный_градиент_139-6);}.cls-43{stroke:url(#Безымянный_градиент_139-7);}.cls-44{stroke:url(#Безымянный_градиент_139-8);}.cls-45{stroke:url(#Безымянный_градиент_139-9);}.cls-46{stroke:url(#Безымянный_градиент_139-10);}.cls-47{stroke:url(#Безымянный_градиент_139-11);}.cls-48{stroke:url(#Безымянный_градиент_139-12);}.cls-49{stroke:url(#Безымянный_градиент_139-13);}.cls-50{stroke:url(#Безымянный_градиент_39);}.cls-51{stroke:url(#Безымянный_градиент_39-2);}.cls-52{stroke:url(#Безымянный_градиент_39-3);}.cls-53{stroke:url(#Безымянный_градиент_139-14);}.cls-54{stroke:url(#Безымянный_градиент_38);}.cls-55{stroke:url(#Безымянный_градиент_37);}</style><linearGradient id="Безымянный_градиент_263" x1="11.51" y1="321.12" x2="636.57" y2="321.12" gradientUnits="userSpaceOnUse"><stop offset="0" stop-color="#f0f2f5"/><stop offset="0.99" stop-color="#f5f7f8"/></linearGradient><linearGradient id="Безымянный_градиент_170" x1="151.25" y1="204.75" x2="459.04" y2="204.75" gradientUnits="userSpaceOnUse"><stop offset="0.01" stop-color="#bbbfd9"/><stop offset="1" stop-color="#d6dbf8"/></linearGradient><linearGradient id="Безымянный_градиент_123" x1="466.08" y1="235.58" x2="502.3" y2="235.58" gradientUnits="userSpaceOnUse"><stop offset="0" stop-color="#753200"/><stop offset="1" stop-color="#a04400"/></linearGradient><linearGradient id="Безымянный_градиент_123-2" x1="470.44" y1="225.17" x2="479.02" y2="225.17" xlink:href="#Безымянный_градиент_123"/><linearGradient id="Безымянный_градиент_123-3" x1="474.12" y1="222.92" x2="480.94" y2="222.92" xlink:href="#Безымянный_градиент_123"/><linearGradient id="Безымянный_градиент_123-4" x1="478.03" y1="226.23" x2="482.41" y2="226.23" xlink:href="#Безымянный_градиент_123"/><linearGradient id="Безымянный_градиент_123-5" x1="487.86" y1="434.72" x2="527.63" y2="434.72" xlink:href="#Безымянный_градиент_123"/><linearGradient id="Безымянный_градиент_123-6" x1="429.18" y1="508.48" x2="462.17" y2="508.48" xlink:href="#Безымянный_градиент_123"/><linearGradient id="Безымянный_градиент_123-7" x1="467.45" y1="308.38" x2="526.71" y2="308.38" xlink:href="#Безымянный_градиент_123"/><linearGradient id="Безымянный_градиент_170-2" x1="509.94" y1="365.58" x2="604.12" y2="365.58" xlink:href="#Безымянный_градиент_170"/><linearGradient id="Безымянный_градиент_171" x1="520.36" y1="247.54" x2="554.23" y2="247.54" gradientUnits="userSpaceOnUse"><stop offset="0" stop-color="#d5527e"/><stop offset="1" stop-color="#ff6297"/></linearGradient><linearGradient id="Безымянный_градиент_171-2" x1="526.71" y1="267.32" x2="573.7" y2="267.32" xlink:href="#Безымянный_градиент_171"/><linearGradient id="Безымянный_градиент_123-8" x1="-4325.91" y1="157.93" x2="-4257.85" y2="126.43" gradientTransform="matrix(-1, 0, 0, 1, -3729.49, 0)" xlink:href="#Безымянный_градиент_123"/><linearGradient id="Безымянный_градиент_48" x1="-2037.56" y1="103.75" x2="-2061.84" y2="127.57" gradientTransform="translate(2578.81 507.23) rotate(12.28)" gradientUnits="userSpaceOnUse"><stop offset="0" stop-color="#a04400"/><stop offset="1" stop-color="#753200"/></linearGradient><linearGradient id="Безымянный_градиент_139" x1="499.63" y1="150.06" x2="601.25" y2="150.06" gradientUnits="userSpaceOnUse"><stop offset="0" stop-color="#201f4f"/><stop offset="0.26" stop-color="#27275a"/><stop offset="0.72" stop-color="#393c76"/><stop offset="1" stop-color="#464b8b"/></linearGradient><linearGradient id="Безымянный_градиент_123-9" x1="-4245.85" y1="177.96" x2="-4303.09" y2="165.21" gradientTransform="matrix(-1, 0, 0, 1, -3729.49, 0)" xlink:href="#Безымянный_градиент_123"/><linearGradient id="Безымянный_градиент_140" x1="-4261.49" y1="140.26" x2="-4293.65" y2="155.55" gradientTransform="matrix(-1, 0, 0, 1, -3729.49, 0)" gradientUnits="userSpaceOnUse"><stop offset="0.1" stop-color="#753200"/><stop offset="0.48" stop-color="#8a3b00" stop-opacity="0.52"/><stop offset="0.82" stop-color="#9a4100" stop-opacity="0.14"/><stop offset="1" stop-color="#a04400" stop-opacity="0"/></linearGradient><linearGradient id="Безымянный_градиент_48-2" x1="-4300.04" y1="175.19" x2="-4270.36" y2="191.68" gradientTransform="matrix(-1, 0, 0, 1, -3729.49, 0)" xlink:href="#Безымянный_градиент_48"/><linearGradient id="Безымянный_градиент_123-10" x1="-2037.61" y1="86.79" x2="-2040.75" y2="89.87" gradientTransform="translate(2578.81 507.23) rotate(12.28)" xlink:href="#Безымянный_градиент_123"/><linearGradient id="Безымянный_градиент_139-2" x1="-4257.38" y1="-249.53" x2="-4209.13" y2="-249.53" gradientTransform="matrix(-0.99, -0.17, -0.17, 0.99, -4068.34, -333.33)" xlink:href="#Безымянный_градиент_139"/><linearGradient id="Безымянный_градиент_139-3" x1="-4250.15" y1="-248.28" x2="-4201.91" y2="-248.28" gradientTransform="matrix(-0.99, -0.17, -0.17, 0.99, -4068.34, -333.33)" xlink:href="#Безымянный_градиент_139"/><linearGradient id="Безымянный_градиент_139-4" x1="-4265.86" y1="-253.66" x2="-4217.61" y2="-253.66" gradientTransform="matrix(-0.99, -0.17, -0.17, 0.99, -4068.34, -333.33)" xlink:href="#Безымянный_градиент_139"/><linearGradient id="Безымянный_градиент_29" x1="118.8" y1="196.96" x2="133.81" y2="114.68" gradientUnits="userSpaceOnUse"><stop offset="0.28" stop-color="#201f4f"/><stop offset="1" stop-color="#201f4f"/></linearGradient><linearGradient id="Безымянный_градиент_29-2" x1="78.46" y1="137.46" x2="146.77" y2="105.84" xlink:href="#Безымянный_градиент_29"/><linearGradient id="Безымянный_градиент_48-3" x1="-6346.5" y1="1024.37" x2="-6370.43" y2="1047.85" gradientTransform="matrix(-0.98, 0.21, 0.21, 0.98, -6308.3, 507.23)" xlink:href="#Безымянный_градиент_48"/><linearGradient id="Безымянный_градиент_157" x1="161.64" y1="180.97" x2="99.06" y2="167.03" gradientUnits="userSpaceOnUse"><stop offset="0" stop-color="#a96e46"/><stop offset="1" stop-color="#ffd0b9"/></linearGradient><linearGradient id="Безымянный_градиент_160" x1="144.18" y1="123.95" x2="112.49" y2="139.02" gradientUnits="userSpaceOnUse"><stop offset="0.1" stop-color="#ad724b"/><stop offset="0.29" stop-color="#aa6739" stop-opacity="0.76"/><stop offset="0.63" stop-color="#a5541a" stop-opacity="0.35"/><stop offset="0.87" stop-color="#a14907" stop-opacity="0.1"/><stop offset="1" stop-color="#a04400" stop-opacity="0"/></linearGradient><linearGradient id="Безымянный_градиент_162" x1="106.59" y1="157.93" x2="134.75" y2="173.57" gradientUnits="userSpaceOnUse"><stop offset="0" stop-color="#a96e46"/><stop offset="1" stop-color="#ffd0b9" stop-opacity="0"/></linearGradient><linearGradient id="Безымянный_градиент_157-2" x1="-6346.56" y1="1007.66" x2="-6349.65" y2="1010.69" gradientTransform="matrix(-0.98, 0.21, 0.21, 0.98, -6308.3, 507.23)" xlink:href="#Безымянный_градиент_157"/><linearGradient id="Безымянный_градиент_163" x1="95.47" y1="543.14" x2="92.56" y2="502.67" gradientUnits="userSpaceOnUse"><stop offset="0" stop-color="#ffd0b9"/><stop offset="1" stop-color="#a96e46"/></linearGradient><linearGradient id="Безымянный_градиент_157-3" x1="149.54" y1="500.72" x2="156.34" y2="545.07" xlink:href="#Безымянный_градиент_157"/><linearGradient id="Безымянный_градиент_3" x1="52.67" y1="389.53" x2="182.83" y2="389.53" gradientUnits="userSpaceOnUse"><stop offset="0.09" stop-color="#d9d9d9"/><stop offset="0.12" stop-color="#d6d6d6"/><stop offset="0.7" stop-color="#aeaeae"/><stop offset="1" stop-color="#9f9f9f"/></linearGradient><linearGradient id="Безымянный_градиент_157-4" x1="200.45" y1="231.33" x2="318.79" y2="231.33" xlink:href="#Безымянный_градиент_157"/><linearGradient id="Безымянный_градиент_157-5" x1="71.34" y1="309.88" x2="91.42" y2="309.88" xlink:href="#Безымянный_градиент_157"/><linearGradient id="Безымянный_градиент_139-5" x1="103.63" y1="207.89" x2="144.25" y2="207.89" xlink:href="#Безымянный_градиент_139"/><linearGradient id="Безымянный_градиент_139-6" x1="81.44" y1="131.73" x2="129.68" y2="131.73" xlink:href="#Безымянный_градиент_139"/><linearGradient id="Безымянный_градиент_139-7" x1="87.75" y1="139.05" x2="135.99" y2="139.05" xlink:href="#Безымянный_градиент_139"/><linearGradient id="Безымянный_градиент_139-8" x1="73.68" y1="133.92" x2="121.93" y2="133.92" xlink:href="#Безымянный_градиент_139"/><linearGradient id="Безымянный_градиент_139-9" x1="-115.68" y1="-68.54" x2="-67.08" y2="-68.54" gradientTransform="translate(180.64 203.9) rotate(4.85)" xlink:href="#Безымянный_градиент_139"/><linearGradient id="Безымянный_градиент_139-10" x1="85.79" y1="131.73" x2="133.45" y2="131.73" xlink:href="#Безымянный_градиент_139"/><linearGradient id="Безымянный_градиент_139-11" x1="110.29" y1="113.55" x2="137.93" y2="113.55" xlink:href="#Безымянный_градиент_139"/><linearGradient id="Безымянный_градиент_139-12" x1="94.11" y1="137.05" x2="128.72" y2="137.05" xlink:href="#Безымянный_градиент_139"/><linearGradient id="Безымянный_градиент_139-13" x1="102.8" y1="137.05" x2="137.41" y2="137.05" xlink:href="#Безымянный_градиент_139"/><linearGradient id="Безымянный_градиент_39" x1="137.15" y1="129.84" x2="170.62" y2="129.84" gradientUnits="userSpaceOnUse"><stop offset="0" stop-color="#464b8b"/><stop offset="0.28" stop-color="#393c76"/><stop offset="0.74" stop-color="#27275a"/><stop offset="1" stop-color="#201f4f"/></linearGradient><linearGradient id="Безымянный_градиент_39-2" x1="296.12" y1="320.82" x2="333.29" y2="320.82" gradientTransform="matrix(1, -0.08, 0.08, 1, -180.88, -169.13)" xlink:href="#Безымянный_градиент_39"/><linearGradient id="Безымянный_градиент_39-3" x1="139.46" y1="114.73" x2="162.02" y2="114.73" xlink:href="#Безымянный_градиент_39"/><linearGradient id="Безымянный_градиент_139-14" x1="114.12" y1="119.83" x2="144.77" y2="119.83" xlink:href="#Безымянный_градиент_139"/><linearGradient id="Безымянный_градиент_38" x1="127.93" y1="115.7" x2="151.83" y2="115.7" gradientUnits="userSpaceOnUse"><stop offset="0" stop-color="#201f4f"/><stop offset="0.12" stop-color="#252558"/><stop offset="0.7" stop-color="#3d417d"/><stop offset="1" stop-color="#464b8b"/></linearGradient><linearGradient id="Безымянный_градиент_37" x1="101.79" y1="129.78" x2="153.91" y2="129.78" gradientUnits="userSpaceOnUse"><stop offset="0" stop-color="#201f4f"/><stop offset="0.23" stop-color="#303168"/><stop offset="0.48" stop-color="#3c407b"/><stop offset="0.74" stop-color="#444887"/><stop offset="1" stop-color="#464b8b"/></linearGradient></defs><title>Black Women Using a White Board</title><g id="Слой_3" data-name="Слой 3"><path class="cls-1" d="M617.08,341.17C567,228.7,380.65,51.77,194.41,51.34.06,50.9-34.09,263.59,66.76,347.07c93.94,77.76-5.87,112.43,103.62,186.1C281.2,607.73,537.73,606.9,596,548.9S638.73,389.76,617.08,341.17Z"/><rect class="cls-2" x="151.25" y="97.38" width="307.79" height="214.74" rx="11.27" ry="11.27"/><rect class="cls-3" x="160" y="106.59" width="290.28" height="196.31" rx="6.73" ry="6.73"/><path class="cls-4" d="M534.45,374.58l-28.69,161.8s5-16.83,51.26-18.23,66.88,2,71.6,12.49S593,558,548,551.57"/><line class="cls-4" x1="555.72" y1="374.58" x2="550.77" y2="551.57"/><line class="cls-4" x1="576.99" y1="374.58" x2="620.89" y2="523.02"/><line class="cls-4" x1="564.16" y1="374.58" x2="604.12" y2="519.84"/><path class="cls-4" d="M513.15,447.21s-8.06,22.71,52.36,16.8"/><path class="cls-5" d="M502.3,247.63l-5.89,7s-6.16-6.41-8.28-7.93-13.41-5.83-13.41-5.83-6.52-10.29-6.52-10.63-2.38-12.76-2.11-13.26,1-.95,2.72,1c1.11,1.28,1.08,4.79,1.62,7.62a14.17,14.17,0,0,0,1,3.54c1.19,2.28,7.35,5.16,7.6,4.31s-7.35-8.68-6.33-9.19a1.73,1.73,0,0,1,1.44.24,3.51,3.51,0,0,1,.38.2,17.22,17.22,0,0,1,2,1.4c.51.41,1,.84,1.51,1.23l.08.07,1.81,1.53c2.09,1.69,5,3.83,7.87,4.33a7,7,0,0,1,6,5.28C494.31,240.66,502.3,247.63,502.3,247.63Z"/><path class="cls-6" d="M479,233.43c-.26.85-6.41-2-7.6-4.31a14.17,14.17,0,0,1-1-3.54c.54-1.84,1.49-4.64,2.32-5.32,1.27-1,3.58-3.85,4.23-3.47s.1,2.92-1.35,4c-1.83,1.35-1.3,2.5-1.19,3.46l-.32.24a1.73,1.73,0,0,0-1.44-.24C471.67,224.74,479.27,232.59,479,233.43Z"/><path class="cls-7" d="M480.28,223.14c-1.19.76-3.77,2.94-3.77,2.94a17.22,17.22,0,0,0-2-1.4s-.1,0-.38-.2c0,0,5.63-4.91,6.16-4.71S481.46,222.37,480.28,223.14Z"/><path class="cls-8" d="M479.92,228.9l-1.81-1.53-.08-.07s3.4-3.75,3.77-3.75S483.68,225.67,479.92,228.9Z"/><path class="cls-9" d="M474.55,400.52l-10.13,10.8-1.7,69.54-3.71-.54-20.7-3-5.79-.84s-.5-76.11-.85-82.36,24-27,24-27Z"/><path class="cls-9" d="M583.84,338.58c-2.7,20.25-21.14,27.45-47.7,28.8s-41.86,0-41.86,0l15.3,36s-1.4.68-3.7,1.59a79,79,0,0,1-18,5.1,28.66,28.66,0,0,1-11.57-.39c-9.45-18.46-30.16-45-31.51-58.52s20.71-23.4,48.16-28.35,36.9-5.4,36.9-5.4l.46-13.95,39.16-7.28S586.54,318.32,583.84,338.58Z"/><path class="cls-10" d="M527.51,454.21c-.88,5.7-3.24,10.52-6.78,10.23a3.88,3.88,0,0,1-3.85-3.25.3.3,0,0,0-.05-.07c-.66-.82-5.21-12.54-6.9-16.1-1.78-3.74-5.59-9.44-7.15-15.54-1.23-4.77-11.48-14.26-14.92-19.39a79,79,0,0,0,18-5.1l7.47,15.19h2.36s2.59,1.62,5.43,10.33S528.41,448.5,527.51,454.21Z"/><path class="cls-9" d="M529.58,430.69s-2.94,9.25,1.19,16.13,6.2,9.36,4.71,13.58-8.06,14.85-14.06,17.42-5.62-4.73-5.32-8.07c.18-2,.5-5.87.73-8.63a.3.3,0,0,1,.05.07,3.88,3.88,0,0,0,3.85,3.25c3.54.28,5.9-4.54,6.78-10.23s-3.54-15-6.37-23.71-5.43-10.33-5.43-10.33h-.13a11.52,11.52,0,0,1,7.71-.59c4.91,1.47,7.18,6.2,10.42,8.56a118.59,118.59,0,0,1,9,7.87l-.78,2.55Z"/><path class="cls-11" d="M455.81,518.61c-2.12,3.47-10.59,15.58-13.46,18.15S431,541.15,429.18,538c.72-.18,1.62-1.31,2.52-3.06a39,39,0,0,0,3.52-11.76c1.07-7.56,4.54-15.58,5-21.33.35-4.44-1.2-18.44-1.92-24.52l20.7,3c-.18,4.85-.47,13.35-.47,15.91s1.63,6,2.71,8.43h0a13.65,13.65,0,0,1,.89,2.39C462.46,508.81,457.92,515.13,455.81,518.61Z"/><path class="cls-9" d="M465.63,525c-.61,2.73-2.27,17.85-2.27,17.85h-2.73V525.42s-6.2,2.12-9.52,7.26-5.6,14.06-7.26,15.12-21.33,3.32-25,0,4.24-8,6.66-9.38c1.35-.76,4-2.3,6.16-3.51-.9,1.76-1.81,2.89-2.52,3.06,1.82,3.17,10.29,1.36,13.16-1.22s11.34-14.68,13.46-18.15,6.66-9.8,6.35-11.56a13.65,13.65,0,0,0-.89-2.39c.3.24,5,4.27,5.74,8.8S466.24,522.24,465.63,525Z"/><path class="cls-12" d="M523.67,132.63c20.55-18,45.27,4.38,53.91,26.44C587.66,184.78,545.64,197,545,197.49s-11.24-4.56-18-2.06C503.15,179.12,506.1,149.4,523.67,132.63Z"/><path class="cls-13" d="M573.7,300.32l-5.16-14.23s12.83-41.69,9.28-60.76a54.73,54.73,0,0,0-16-29.7l-17.42,3.76a21.65,21.65,0,0,0-14.66,11.22c-5.34,10.31-13.39,26.17-14.28,29.63-1.35,5.23,11.74,66.88,11.74,66.88l4.41-.6"/><path class="cls-14" d="M524.21,289.22l-23.84,21.84-16.31,2a4.82,4.82,0,0,0-3.17,1.19c-2.43,2.12-7.28,6.35-7.53,6.52s-3.56,3.41-5.68,5.49a.73.73,0,0,0,.69,1.23c2.25-.56,5.48-1.71,7.08-3.85a10.7,10.7,0,0,1,6.58-4.22c.34,0,5.06-.9,4.73.45s-5.18,2.25-5.51,2.59-5.52,2-4.5,4,10.63-2.64,12.82-3.06,5.52.93,7.77.26,29.39-19.41,29.39-19.41Z"/><path class="cls-15" d="M509.94,368v6.62h94.18a18,18,0,0,0-18-18H572.73Z"/><polyline class="cls-16" points="554.23 218.85 553.88 219.59 530.52 269.04 520.36 264.46 531.19 276.24"/><path class="cls-17" d="M573.7,233.58s-27,64-37.34,65.39c-3.15,0-9.65-4.65-9.65-4.65A9.55,9.55,0,0,0,537.29,301C552,299.44,573.7,233.58,573.7,233.58Z"/><path class="cls-18" d="M515.71,139c.12,1.3.28,2.6.46,3.87,1.73-6.62,13-14.12,25.83-13,0,0,0,1.55,2.41,2s3.47-2.57,4,0,.53,6,3.47,6,4.82,1.87,5.08,3.74-4.7,8.6-2.21,10.25c2.85,1.89,4.91,9,4.91,9s2.22-16.42,11.06-6.8c.62,1.76,1.15,3.54,1.59,5.32.41-2.57-.25-4.58-1.67-5.86a5.35,5.35,0,0,0-1.34-.89,45.82,45.82,0,0,0,2.14-13.49,31.13,31.13,0,0,0-.93-7.79c-3.5-13.5-21-17.45-32.37-16.67S514.62,126.38,515.71,139Z"/><path class="cls-19" d="M565.29,176.37a39.51,39.51,0,0,1-28.37,17.1l.08-1.52.09-1.87c8.14-2.4,17.87-8,29.2-19.83l-.24.28a39.84,39.84,0,0,0-.69,5.05C565.34,175.83,565.31,176.09,565.29,176.37Z"/><path class="cls-20" d="M599.77,177.12c2.57-3,1.43-7.18-.55-9.91s2.73-10.78-.14-13.94c-6.12-6.73-2.93-9.48-3.31-11.93-1.5-9.65-6.1-6.36-5.78-11.2s-3.86-6.58-5.1-7.83c-3.22-3.27-3-4.75-3.93-8.27-1.57-6.3-11.88-6.27-17.77-6.39s-4.18-8.37-17.87-5.06c-2.19.53-5.14,5.16-12.43,3.65-7.68-1.59-16.39,5.75-15.88,9.4s-9.57,3.9-10.32,15.36c0,.3,0,.63-.07,1a21.33,21.33,0,0,1-3.09,9.26,20.4,20.4,0,0,0-1.72,3.62c-1.68,4.66,1.3,9.34,0,13.41s-3.61,10.18-1,16.2c3.7,8.58-6.05,11.37,4.14,19.84,6.5,5.4,17.68,5.09,22.64.43-12-16.38,2.21-43.16,3.68-48.84L559.71,164a23.92,23.92,0,0,0,1.09,28.72c2.42,3.19,6.27,6.65,15,4.75,7.08-1.55,7.41.81,16.32-4.94C605.8,183.68,597.19,180.09,599.77,177.12Z"/><path class="cls-21" d="M515.08,172.17c2.55,11.07,12.81,16.11,19.46,17.52.64.13,1.24.22,1.8.29.27,0,.52.07.76.09l-.09,1.87-.17,2.38-.14,2.11L532,216.29a2.79,2.79,0,0,0,4.31,2.93c9.49-6.62,26.26-15.87,26.45-19.21,0,0,1-5.1,2.32-20.61.08-1,.16-2,.25-3,0-.27.05-.53.07-.78,0-.52.12-1.15.19-1.78a23.34,23.34,0,0,1,.5-3.27,2.35,2.35,0,0,0,.24-.28c3.72-4.19,5.58-7.87,6-10.8-.25-1-.54-2.05-.85-3.07a7.88,7.88,0,0,0-3.29-4.45c-6.73-4.17-8.51,9-8.51,9s-22.74-4.7-28.36-31.27a11.18,11.18,0,0,0-8.67,1.91c-2.67,1.87-5.2,5.29-6.47,11.33h0c.51,3.62,1.13,7.08.84,10.34C516.61,157.7,513.29,164.46,515.08,172.17Z"/><path class="cls-22" d="M522.63,131.57c3.49,9.09,9,17.55,20,23.8,12.14,6.91,17,5.56,17,5.56s-22.74-4.7-28.36-31.27A11.18,11.18,0,0,0,522.63,131.57Z"/><path class="cls-23" d="M537,191.95l-.17,2.38c8.6-1,18.91-4.57,28.2-14.93.08-1,.16-2,.25-3,0-.27.05-.53.07-.78,0-.52.12-1.15.19-1.78-11.37,9.18-21,14-29.22,16.18.27,0,.52.07.76.09Z"/><path class="cls-24" d="M564.79,157.76s2.63-3.11,4.13-.48-1.46,6.7-1.46,6.7Z"/><path class="cls-13" d="M557.29,211.21l-26.1,65-28.35-30.83-9.23,8.78s30.83,46.13,42.76,44.78,38.93-69.31,38.93-69.31"/><path class="cls-25" d="M131.12,98.88l6.29-1.3a1.58,1.58,0,0,1,1.74.85l2.26,4.55a1.58,1.58,0,0,0,1.15.86l3.51.61a1.58,1.58,0,0,1,1.31,1.67l-.27,4.17a1.58,1.58,0,0,0,1.31,1.67l3.18.55a1.58,1.58,0,0,1,1.31,1.64l-.17,3.44a1.58,1.58,0,0,0,.75,1.43l3.81,2.36a1.58,1.58,0,0,1,.36,2.39l-2.44,2.79a1.58,1.58,0,0,0,.28,2.34l4.35,3.08a1.58,1.58,0,0,1,.45,2.09l-1.88,3.21a1.58,1.58,0,0,0,.16,1.82l2.26,2.69a1.58,1.58,0,0,1-.32,2.33l-2.38,1.61a1.58,1.58,0,0,0-.39,2.24l3.72,5.14a1.58,1.58,0,0,1-.11,2l-2.28,2.53a1.58,1.58,0,0,0-.07,2l3.51,4.45a1.58,1.58,0,0,1,0,2l-3.33,4a1.58,1.58,0,0,0-.07,1.93l1.85,2.59a1.58,1.58,0,0,1,.09,1.7l-1.62,2.86c-.12.2.16.69.19,1.34a9.29,9.29,0,0,1,0,1.25"/><path class="cls-26" d="M123.79,98.88l6.29-1.3a1.58,1.58,0,0,1,1.74.85l2.26,4.55a1.58,1.58,0,0,0,1.15.86l3.51.61a1.58,1.58,0,0,1,1.31,1.67l-.27,4.17a1.58,1.58,0,0,0,1.31,1.67l3.18.55a1.58,1.58,0,0,1,1.31,1.64l-.17,3.44a1.58,1.58,0,0,0,.75,1.43l3.81,2.36a1.58,1.58,0,0,1,.36,2.39l-2.44,2.79a1.58,1.58,0,0,0,.28,2.34l4.35,3.08a1.58,1.58,0,0,1,.45,2.09l-1.88,3.21a1.58,1.58,0,0,0,.16,1.82l2.26,2.69a1.58,1.58,0,0,1-.32,2.33l-2.38,1.61a1.58,1.58,0,0,0-.39,2.24l3.72,5.14a1.58,1.58,0,0,1-.11,2l-2.28,2.53a1.58,1.58,0,0,0-.07,2l3.51,4.45a1.58,1.58,0,0,1,0,2l-3.33,4a1.58,1.58,0,0,0-.07,1.93l1.85,2.59a1.58,1.58,0,0,1,.09,1.7l-1.62,2.86c-.12.2.16.69.19,1.34a9.29,9.29,0,0,1,0,1.25"/><path class="cls-27" d="M140.18,96.25l6.29-1.3a1.58,1.58,0,0,1,1.74.85l2.26,4.55a1.58,1.58,0,0,0,1.15.86l3.51.61a1.58,1.58,0,0,1,1.31,1.67l-.27,4.17a1.58,1.58,0,0,0,1.31,1.67l3.18.55a1.58,1.58,0,0,1,1.31,1.64l-.17,3.44a1.58,1.58,0,0,0,.75,1.43l3.81,2.36a1.58,1.58,0,0,1,.36,2.39l-2.44,2.79a1.58,1.58,0,0,0,.28,2.34l4.35,3.08a1.58,1.58,0,0,1,.45,2.09l-1.88,3.21a1.58,1.58,0,0,0,.16,1.82l2.26,2.69a1.58,1.58,0,0,1-.32,2.33l-2.38,1.61a1.58,1.58,0,0,0-.39,2.24l3.72,5.14a1.58,1.58,0,0,1-.11,2L168.14,155a1.58,1.58,0,0,0-.07,2l3.51,4.45a1.58,1.58,0,0,1,0,2l-3.33,4a1.58,1.58,0,0,0-.07,1.93L170,172a1.58,1.58,0,0,1,.09,1.7l-1.62,2.86c-.12.2.16.69.19,1.34a9.29,9.29,0,0,1,0,1.25"/><path class="cls-28" d="M153.77,113.14c-21.27-18.61-55.1-8.21-60.42,15.72-4,16.84,10,54.05-2.45,66.61a16.33,16.33,0,0,0-.59,2.73c0,1.16,47.19-15.5,54.23-12.91C169.22,168.4,172,130.5,153.77,113.14Z"/><path class="cls-29" d="M160.24,122.74c-.12,1.29-.27,2.56-.45,3.81-1.7-6.52-12.83-13.92-25.45-12.76,0,0,0,1.52-2.38,2s-3.42-2.54-4,0-.52,6-3.42,6-4.75,1.84-5,3.69,4.64,8.47,2.18,10.1c-2.81,1.86-4.84,8.83-4.84,8.83s-2.19-16.18-10.9-6.7c-.61,1.74-1.13,3.49-1.57,5.24a6.1,6.1,0,0,1,1.65-5.77,5.28,5.28,0,0,1,1.32-.88,45.15,45.15,0,0,1-2.11-13.3c0-2.49-5.62-11.63-5-14.19C103.8,95.42,127,87.41,138.2,88.18S161.31,110.27,160.24,122.74Z"/><path class="cls-30" d="M111.38,159.53a38.93,38.93,0,0,0,28,16.85l-.08-1.5-.09-1.84c-8-2.36-17.61-7.91-28.77-19.54l.24.27a39.26,39.26,0,0,1,.68,5C111.33,159,111.35,159.26,111.38,159.53Z"/><path class="cls-31" d="M160.86,155.4c-2.51,10.91-12.62,15.88-19.17,17.27-.63.12-1.22.22-1.77.28-.27,0-.51.07-.75.09l.09,1.84.17,2.35.14,2.08,8.94,59.33a2.75,2.75,0,0,1-4.25,2.89c-9.35-6.52-30.15-55.41-30.33-58.71,0,0-1-5-2.29-20.31-.08-1-.16-1.95-.25-3,0-.27-.05-.52-.07-.77,0-.51-.12-1.13-.19-1.76a23,23,0,0,0-.5-3.23,2.31,2.31,0,0,1-.24-.27c-3.66-4.13-5.5-7.76-5.94-10.65.25-1,.53-2,.84-3a7.76,7.76,0,0,1,3.24-4.39c6.63-4.11,8.39,8.87,8.39,8.87s22.41-4.64,27.95-30.81a11,11,0,0,1,8.54,1.88c2.63,1.84,5.12,5.21,6.37,11.17h0c-.51,3.56-1.12,7-.82,10.19C159.34,141.14,162.62,147.79,160.86,155.4Z"/><path class="cls-32" d="M153.41,115.39c-3.44,9-8.91,17.3-19.73,23.45-12,6.81-16.76,5.48-16.76,5.48s22.41-4.64,27.95-30.81A11,11,0,0,1,153.41,115.39Z"/><path class="cls-33" d="M139.25,174.88s-18.46-2.15-27.62-12.37c-.08-1-.16-1.95-.25-3,0-.27-.05-.52-.07-.77,0-.51-.12-1.13-.19-1.76,11.2,9,20.73,13.77,28.79,15.95-.27,0-.51.07-.75.09Z"/><path class="cls-34" d="M111.87,141.19s-2.59-3.06-4.07-.47,1.44,6.6,1.44,6.6Z"/><path class="cls-35" d="M87.08,544.64c1,1.88,18.25-2.78,18.25-2.78l-.4-1.73-5-21.69a89.18,89.18,0,0,1,1.38-19.06c-5.14,2.75-16.3.77-16.3.77s1,7.31-.16,9.68a7.52,7.52,0,0,0-.55,1.65,34,34,0,0,0-.13,11.44c.45,2.45,1.1,9.71,1.75,15.22h0A34.53,34.53,0,0,0,87.08,544.64Z"/><path class="cls-9" d="M85.67,537.09h0c.11.38.21.72.29,1-.65-5.5-1.3-12.77-1.75-15.22a34,34,0,0,1,.13-11.44A8.89,8.89,0,0,0,81.89,518C82,521.79,84.31,532.17,85.67,537.09Z"/><path class="cls-9" d="M85.56,548c1.64,4.87,9,9.48,15.08,8.61,5.66-.81,9.79-9,4.28-16.44l.4,1.73S88,546.52,87.08,544.64a34.53,34.53,0,0,1-1.12-6.5h0c-.08-.32-.81-6.26-.92-6.64C84.46,535,84.65,545.24,85.56,548Z"/><path class="cls-36" d="M165.65,538.68c0,1.44-7.66,5.11-9.65,5.75s-5.84-2.08-5.68-7.35-9.26-26.49-9.74-27.78c-.35-.94.5-2,1-2.43.17-.17.3-.28.3-.28l-1.27-6.39L158,496.54s1.13,10.06,1.77,12.93.48,7.83,1.44,12.89c.87,4.6,3.84,13.08,4.39,15.71A3.25,3.25,0,0,1,165.65,538.68Z"/><path class="cls-9" d="M174.11,552.73c-2.56,1.75-14.2-1-19.8-2.24s-5.9-10.54-6.23-14c-.14-1.63-2.06-5.14-4.36-8.88h0c-1.48-2.41-3.11-4.91-4.54-7h0c-.57-.88-1.12-1.7-1.6-2.42a5,5,0,0,1-.67-4c1.06-4.07,3-6.13,4.65-7.16-.48.47-1.33,1.49-1,2.43.48,1.28,9.89,22.51,9.74,27.78s3.71,8,5.68,7.35,9.65-4.31,9.65-5.75a3.25,3.25,0,0,0-.09-.61C169.33,542.21,176.17,551.3,174.11,552.73Z"/><path class="cls-9" d="M144.17,540.91H142l-2.84-20.39c1.43,2.13,3.06,4.63,4.54,7h0Z"/><path class="cls-37" d="M158.06,276.84c13.81,41.44,9.83,125.58,9.83,125.58l-8.11,100.45H138.2c-5.29-60.73,1.63-97.21,1.63-97.21L132.07,339l-10.8,68-17.82,95.92h-22c-.65-16.19,3.58-56.65,12-99.15-6.47-37.55-8.11-46.71-5.52-79s18.78-48.56,18.78-48.56Z"/><path class="cls-9" d="M112.52,180.37l16.83,12.95,14.89,42.09v47.91L104,276.2l-8.32-44.35L74.32,267.78l9.06,24.6L69.14,305.33,49.49,268.43S56.84,204.33,112.52,180.37Z"/><path class="cls-9" d="M140.36,178.43l-.39,1.94-1.77,8.85,6,46.19v47.91l16.2-7.12s-4.55-19.64-2.39-24,6.47-18.13,6.47-18.13l35.4,17.7,3.88-20.93S163.33,207,160.3,192.32C144.25,181.64,140.36,178.43,140.36,178.43Z"/><path class="cls-38" d="M289.4,223.06c-.81-2.15-14.5,4.81-14.71,3.29-.12-.89,12.88-5.59,12.12-7.22s-7.51,1.77-11.94,3.05-9.51,1.17-10.88-.49,9-6.17,6.37-8.84c-1.34-1.36-17,11.43-17,11.43a14.93,14.93,0,0,0-2.66,3.45l-.11-.09c-7.45,5.34-47.21,5.54-47.21,5.54A43.63,43.63,0,0,0,200.45,249c21.56,4.54,54.35-9.56,54.35-9.56v0a69.75,69.75,0,0,0,12.53.53,58,58,0,0,0,10-2.24c4.16-1.24,9.56-2.9,8.78-4.37s-7.62,1.85-8.22,1,12.24-4.81,11.56-6.6-13,4-13.29,3.13S290,224.74,289.4,223.06Z"/><path class="cls-39" d="M81.35,294.23l4.47,8.18,5.6,2.91-3.56,20.19s-7.55-4.65-9.49-8.54-1.13-5.5-1.13-5.5l-5.89-8.15Z"/><path class="cls-9" d="M103.42,280.2s27.55,6,34.79,6.22S160,283.31,160,283.31l1,4.22s-12.12,3.54-22,3.42c-9.53-.11-38.28-6.74-38.28-6.74Z"/><polygon class="cls-40" points="113.72 280.92 116.31 281.56 113.72 288.04 111.03 287.39 113.72 280.92"/><polygon class="cls-40" points="151.04 284.48 153.44 283.32 155.59 289.95 153.1 291.18 151.04 284.48"/><polygon class="cls-41" points="112.52 180.37 103.63 180.37 104.33 191.24 118.2 195.94 116.92 204.35 144.25 235.41 129.36 193.32 112.52 180.37"/><path class="cls-42" d="M126.92,90.77l-6-2.35a1.58,1.58,0,0,0-1.86.54l-3,4.1a1.58,1.58,0,0,1-1.28.65h-3.57a1.58,1.58,0,0,0-1.58,1.42l-.44,4.16a1.58,1.58,0,0,1-1.58,1.42h-3.22a1.58,1.58,0,0,0-1.57,1.39l-.41,3.42a1.58,1.58,0,0,1-1,1.28l-4.16,1.68a1.58,1.58,0,0,0-.76,2.3l1.93,3.16a1.58,1.58,0,0,1-.67,2.26L93,118.49a1.58,1.58,0,0,0-.8,2L93.5,124a1.58,1.58,0,0,1-.46,1.77L90.35,128a1.58,1.58,0,0,0-.08,2.35l2.07,2a1.58,1.58,0,0,1,0,2.28L87.81,139a1.58,1.58,0,0,0-.23,2l1.82,2.88a1.58,1.58,0,0,1-.28,2l-4.21,3.79a1.58,1.58,0,0,0-.31,2l2.6,4.52a1.58,1.58,0,0,1-.26,1.92l-2.27,2.24a1.58,1.58,0,0,0-.38,1.66l1.11,3.1a2.28,2.28,0,0,1-.42,1.29,3.86,3.86,0,0,0,1.17,5l.18,3.76"/><path class="cls-43" d="M133.23,98.09l-6-2.35a1.58,1.58,0,0,0-1.86.54l-3,4.1a1.58,1.58,0,0,1-1.28.65h-3.57a1.58,1.58,0,0,0-1.58,1.42l-.44,4.16A1.58,1.58,0,0,1,114,108h-3.22a1.58,1.58,0,0,0-1.57,1.39l-.41,3.42a1.58,1.58,0,0,1-1,1.28l-4.16,1.68a1.58,1.58,0,0,0-.76,2.3l1.93,3.16a1.58,1.58,0,0,1-.67,2.26l-4.81,2.3a1.58,1.58,0,0,0-.8,2l1.31,3.48a1.58,1.58,0,0,1-.46,1.77l-2.69,2.26a1.58,1.58,0,0,0-.08,2.35l2.07,2a1.58,1.58,0,0,1,0,2.28l-4.54,4.44a1.58,1.58,0,0,0-.23,2l1.82,2.88a1.58,1.58,0,0,1-.28,2L91.21,157a1.58,1.58,0,0,0-.31,2l2.6,4.52a1.58,1.58,0,0,1-.26,1.92L91,167.69a1.58,1.58,0,0,0-.38,1.66l1.11,3.1a2.28,2.28,0,0,1-.42,1.29,3.86,3.86,0,0,0,1.17,5l.18,3.76"/><path class="cls-44" d="M119.17,95.44l-6-2.35a1.58,1.58,0,0,0-1.86.54l-3,4.1a1.58,1.58,0,0,1-1.28.65h-3.57a1.58,1.58,0,0,0-1.58,1.42l-.44,4.16a1.58,1.58,0,0,1-1.58,1.42H96.67a1.58,1.58,0,0,0-1.57,1.39l-.41,3.42a1.58,1.58,0,0,1-1,1.28l-4.16,1.68a1.58,1.58,0,0,0-.76,2.3l1.93,3.16a1.58,1.58,0,0,1-.67,2.26l-4.81,2.3a1.58,1.58,0,0,0-.8,2l1.31,3.48a1.58,1.58,0,0,1-.46,1.77l-2.69,2.26a1.58,1.58,0,0,0-.08,2.35l2.07,2a1.58,1.58,0,0,1,0,2.28l-4.54,4.44a1.58,1.58,0,0,0-.23,2l1.82,2.88a1.58,1.58,0,0,1-.28,2l-4.21,3.79a1.58,1.58,0,0,0-.31,2l2.6,4.52a1.58,1.58,0,0,1-.26,1.92L76.92,165a1.58,1.58,0,0,0-.38,1.66l1.11,3.1a2.28,2.28,0,0,1-.42,1.29c-.61,1.14,2.7,2.68,3.24,3.77"/><path class="cls-45" d="M120.11,91.19l-5.76-2.84a1.58,1.58,0,0,0-1.9.38l-3.34,3.83a1.58,1.58,0,0,1-1.33.54l-3.55-.3a1.58,1.58,0,0,0-1.69,1.28l-.79,4.11a1.58,1.58,0,0,1-1.69,1.28l-3.21-.27a1.58,1.58,0,0,0-1.69,1.26l-.7,3.37A1.58,1.58,0,0,1,93.38,105l-4.29,1.32a1.58,1.58,0,0,0-1,2.22l1.66,3.31a1.58,1.58,0,0,1-.86,2.19l-5,1.88a1.58,1.58,0,0,0-1,1.91l1,3.58a1.58,1.58,0,0,1-.61,1.72l-2.87,2a1.58,1.58,0,0,0-.28,2.34l1.9,2.16A1.58,1.58,0,0,1,82,132l-4.9,4a1.58,1.58,0,0,0-.4,2l1.57,3a1.58,1.58,0,0,1-.45,2l-4.52,3.42a1.58,1.58,0,0,0-.48,1.94L75,153a1.58,1.58,0,0,1-.42,1.89l-2.45,2a1.58,1.58,0,0,0-.52,1.62l.85,3.18c.06.23-.33.63-.53,1.25-.77,2.49-2.16,3.84-1,4"/><path class="cls-46" d="M94.65,171.12l1-7.9c0-.23-3.6.83-3.8.72l-3-4.59a.54.54,0,0,1-.09-.91l7.49-5.91a.54.54,0,0,0,.11-.74l-2.24-3.14a.54.54,0,0,1,0-.63l4-5.57a.54.54,0,0,0,.07-.5l-2-5.44a.54.54,0,0,1,.16-.6l3.28-2.81a.54.54,0,0,0,.15-.62l-2.29-5.55a.54.54,0,0,1,.13-.6l3.36-3.23a.54.54,0,0,0,0-.77l-1.58-1.66a.54.54,0,0,1,.05-.8l4.13-3.29a.54.54,0,0,0,.12-.71l-1.85-3a.54.54,0,0,1,.46-.83h3.75a.54.54,0,0,0,.54-.46l.66-4.2a.54.54,0,0,1,.54-.46h4.7a.54.54,0,0,0,.53-.65l-.67-3.49a.54.54,0,0,1,.53-.65h4.87a.54.54,0,0,0,.54-.54V98a.54.54,0,0,1,.54-.54h3.83a.54.54,0,0,0,.54-.54v-4a.54.54,0,0,1,.54-.54h6.85"/><path class="cls-47" d="M135.17,88l-2.52,2.82a1.08,1.08,0,0,0-.27.87l.39,2.93a1.08,1.08,0,0,1-.85,1.21l-.49.1a1.08,1.08,0,0,0-.53,1.84l2.9,2.8a1.08,1.08,0,0,1-.45,1.82l-1.29.37a1.08,1.08,0,0,0-.62,1.62l1.52,2.44a1.08,1.08,0,0,1-.54,1.59l-.73.27a1.08,1.08,0,0,0-.65,1.37l1.53,4.38a1.08,1.08,0,0,1-.63,1.37l-1.43.56a1.08,1.08,0,0,0-.59,1.46l1.68,3.68a1.08,1.08,0,0,1-1,1.54h-3a1.07,1.07,0,0,0-.69.25c-1.07.89-4.52,3.94-3,4.72,1.39.71-1.85,1-3.44,1.12a1.08,1.08,0,0,0-1,.86l-1,4.93a1.08,1.08,0,0,1-.49.7l-4.94,3.4"/><path class="cls-48" d="M126,97.72l-10,10.17a1.77,1.77,0,0,0-.15,2.16h0a1.77,1.77,0,0,1-.64,2.54l-3.26,1.74a1.76,1.76,0,0,0-.75,2.34,5.1,5.1,0,0,1,.67,1.8c-.1.55-4.09,4.79-4.49,5.34-.25.35.24,2.4.64,3.87a1.76,1.76,0,0,1-1.07,2.11l-1.49.58a1.77,1.77,0,0,0-1.13,1.65v5.63a1.75,1.75,0,0,1-.28,1,21.21,21.21,0,0,1-2.78,3.61c-.88.74-.35,4.07-.11,5.38a1.75,1.75,0,0,1-.13,1l-1.39,3.09a1.77,1.77,0,0,0-.13,1l1.27,7.57a1.77,1.77,0,0,1-.26,1.26l-1.76,2.69a1.77,1.77,0,0,0-.22,1.45l1.71,6.06a1.77,1.77,0,0,1-.46,1.74l-2.92,2.87"/><path class="cls-49" d="M134.65,97.72l-10,10.17a1.77,1.77,0,0,0-.15,2.16h0a1.77,1.77,0,0,1-.64,2.54l-3.26,1.74a1.76,1.76,0,0,0-.75,2.34,5.1,5.1,0,0,1,.67,1.8c-.1.55-4.09,4.79-4.49,5.34-.25.35.24,2.4.64,3.87a1.76,1.76,0,0,1-1.07,2.11l-1.49.58A1.77,1.77,0,0,0,113,132v5.63a1.75,1.75,0,0,1-.28,1,21.21,21.21,0,0,1-2.78,3.61c-.88.74-.35,4.07-.11,5.38a1.75,1.75,0,0,1-.13,1l-1.39,3.09a1.77,1.77,0,0,0-.13,1l1.27,7.57a1.77,1.77,0,0,1-.26,1.26l-1.76,2.69a1.77,1.77,0,0,0-.22,1.45l1.71,6.06a1.77,1.77,0,0,1-.46,1.74l-2.92,2.87"/><path class="cls-50" d="M139.91,90.32,144.49,93a2,2,0,0,1,1.82,1.2l.89,2.11a2,2,0,0,0,1,1h0a2,2,0,0,1,1.16,1.48l-2.76,3.82c.16.95,4.07-.28,5-.28h.91a2,2,0,0,1,1.48.67c1,1.15,2.95,3.4,2.86,3.79a5,5,0,0,1-1.09,1.29A2,2,0,0,0,156,111c1,.82,2.2,1.66,2.87,1.66,1.28,0,2,3.68,1.58,3.87-2.57,1.25,2,3.34,2.89,4.81a2,2,0,0,1,.21,1.65,10.61,10.61,0,0,0-.68,2.82c.12.28,1.84,3.11,2.85,4.77a2,2,0,0,1-.18,2.29l-2.4,2.86a2,2,0,0,0-.22,2.2l5,2.35c.21.39-2.62,2.32-2.69,2.76l-.9,5.18a2,2,0,0,0,.09,1l1.78,4.94a2,2,0,0,1-.11,1.59l-1.48,2.81a2,2,0,0,1-.36.49l-1.28,1.25a2,2,0,0,0,.27,3l.15,6"/><path class="cls-51" d="M139.66,96.78l3.56-2.71a2.26,2.26,0,0,0,.25-.22c.4-.41,1.82-1.81,2.21-1.36s1.62.11,2.73-.1a2.26,2.26,0,0,1,2.34,1l.8,1.26a2.26,2.26,0,0,0,.71.7l3.16,2a2.26,2.26,0,0,1,.95,1.2l1,2.89a2.26,2.26,0,0,0,.82,1.12l2.09,1.52a2.26,2.26,0,0,1,.45.43l1.4,1.78a2.26,2.26,0,0,1,.48,1.32l.07,1.86a2.26,2.26,0,0,0,1.86,2.15h0a2.26,2.26,0,0,1,1.77,2.89l-.26.86a2.26,2.26,0,0,0,.82,2.48l2.46,1.82a2.26,2.26,0,0,1,.8,2.55l-.16.46a2.26,2.26,0,0,0,.69,2.46l2.5,2.1a2.26,2.26,0,0,1,.34,3.11l-1.51,2a2.26,2.26,0,0,0,.4,3.16l.23.18a2.26,2.26,0,0,1,.8,2.33l-.68,2.72a2.26,2.26,0,0,0,.94,2.43l.5.34a2.26,2.26,0,0,1,.61,3.16l-2.37,3.45a2.26,2.26,0,0,0-.27,2l1.21,3.46a2.26,2.26,0,0,1,.07.26l.86,3.94"/><path class="cls-52" d="M142.23,108.17l1.64-1.34a1.57,1.57,0,0,1,2.07.07l1.57,1.46a1.57,1.57,0,0,0,1.85.22h0a1.57,1.57,0,0,1,2.3,1l.72,2.86a1.93,1.93,0,0,0,1.71,1.12,2.52,2.52,0,0,1,2.12,1.79l.44,1.49c.15.51,1.39.83,1.95,1.55a3.2,3.2,0,0,1,.26,3.51l-.62,1.11"/><path class="cls-53" d="M136.83,92.34l2,2.74A1.69,1.69,0,0,1,139,96.7l-.39,1a1.69,1.69,0,0,0,.49,1.93l1.91,1.58a1.69,1.69,0,0,1-.32,2.81l-.43.22a1.69,1.69,0,0,0-.47,2.66l1,1.09a1.69,1.69,0,0,1-.16,2.46l-.26.22a1.68,1.68,0,0,0-.45,2,33.06,33.06,0,0,1,2.1,4.89c0,.34-1.77,1-3.11,1.5a1.68,1.68,0,0,0-1.05,2.06c.53,1.77,1.18,4.48.36,4.72a28.62,28.62,0,0,1-5.31.1,1.69,1.69,0,0,0-1.7,2.07l.64,2.75a1.69,1.69,0,0,1-1.64,2.07h-3.48a1.69,1.69,0,0,0-1.68,1.85l.35,3.59a1.69,1.69,0,0,1-1.22,1.79l-4.22,1.19a1.69,1.69,0,0,0-1.12,1l-1.94,5"/><path class="cls-54" d="M143.89,92.34l2,2.74A1.69,1.69,0,0,1,146,96.7l-.39,1a1.69,1.69,0,0,0,.49,1.93l1.91,1.58a1.69,1.69,0,0,1-.32,2.81l-.43.22a1.69,1.69,0,0,0-.47,2.66l1,1.09a1.69,1.69,0,0,1-.16,2.46l-.26.22a1.68,1.68,0,0,0-.45,2,33.06,33.06,0,0,1,2.1,4.89c0,.34-1.77,1-3.11,1.5a1.68,1.68,0,0,0-1.05,2.06c.53,1.77,1.18,4.48.36,4.72a28.62,28.62,0,0,1-5.31.1,1.69,1.69,0,0,0-1.7,2.07l.64,2.75a1.69,1.69,0,0,1-1.64,2.07l-3.12,1.38c-1,0-3.54,3.84-3.44,4.83"/><path class="cls-55" d="M151.15,93l-6.9-3.41a9.62,9.62,0,0,0-6-2.79l-2,1.26c-1.19-.25-3-1.18-3.33,0-.18.64-1.32-1.19-1.83-1.21H131a2.3,2.3,0,0,0-2.34,2.63l.58,3.95a2.3,2.3,0,0,1-1.3,2.42l-.68.32A2.3,2.3,0,0,0,126,98.77l.36,1.48a2.3,2.3,0,0,1-.87,2.39l-2.26,1.67a2.3,2.3,0,0,0-.73,2.79l.9,2c.35.78,1.11,3.51.58,4.19l-6.11,4.78a2.3,2.3,0,0,0-.26,2.46l1.1,2.21a2.29,2.29,0,0,1-.22,2.41c-1.13,1.49-3.05,3.88-3.56,3.71s-1.14,1.36-1.46,2.26a2.29,2.29,0,0,1-.75,1l-3.79,3a2.3,2.3,0,0,0-.6.71l-1.93,3.57a2.3,2.3,0,0,0-.2.52L105,144.59a2.3,2.3,0,0,0-.06.36l-.34,3.5a2.3,2.3,0,0,0,.77,1.95l1.67,1.47a2.3,2.3,0,0,1-.54,3.81h0a2.3,2.3,0,0,0-.72,3.63l1.24,1.36a2.3,2.3,0,0,1-.07,3.17l-1.27,1.28a2.3,2.3,0,0,0-.64,2l.89,5.68"/></g></svg>
