<svg xmlns="http://www.w3.org/2000/svg" xmlns:xlink="http://www.w3.org/1999/xlink" viewBox="0 0 650 650"><defs><style>.cls-1{fill:url(#Безымянный_градиент_263);}.cls-2{fill:url(#Безымянный_градиент_170);}.cls-3{fill:url(#Безымянный_градиент_170-2);}.cls-4{fill:#fff;}.cls-5{fill:url(#Безымянный_градиент_170-3);}.cls-6{fill:url(#Безымянный_градиент_170-4);}.cls-21,.cls-7,.cls-9{fill:none;stroke-miterlimit:10;}.cls-7{stroke:#f0f2f5;stroke-width:7.56px;}.cls-8{fill:#f0f2f5;}.cls-9{stroke:#fff;stroke-width:2.84px;}.cls-10{fill:url(#Безымянный_градиент_123);}.cls-11{fill:url(#Безымянный_градиент_123-2);}.cls-12{fill:#201f4f;}.cls-13{fill:#1f1844;}.cls-14{fill:url(#Безымянный_градиент_123-3);}.cls-15{fill:url(#Безымянный_градиент_123-4);}.cls-16{fill:url(#Безымянный_градиент_42);}.cls-17{fill:url(#Безымянный_градиент_123-5);}.cls-18{fill:url(#Безымянный_градиент_139);}.cls-19{fill:#361f22;}.cls-20{fill:url(#Безымянный_градиент_42-2);}.cls-21{stroke-width:1.89px;stroke:url(#Безымянный_градиент_42-3);}.cls-22{fill:url(#Безымянный_градиент_54);}.cls-23{fill:url(#Безымянный_градиент_42-4);}.cls-24{fill:url(#Безымянный_градиент_42-5);}.cls-25{fill:url(#Безымянный_градиент_42-6);}.cls-26{fill:url(#Безымянный_градиент_42-7);}</style><linearGradient id="Безымянный_градиент_263" x1="5366.29" y1="309.78" x2="5994.56" y2="309.78" gradientTransform="matrix(-1, 0, 0, 1, 6009.63, 0)" gradientUnits="userSpaceOnUse"><stop offset="0" stop-color="#f0f2f5"/><stop offset="0.99" stop-color="#f5f7f8"/></linearGradient><linearGradient id="Безымянный_градиент_170" x1="316.76" y1="512.4" x2="316.76" y2="421.66" gradientUnits="userSpaceOnUse"><stop offset="0.01" stop-color="#bbbfd9"/><stop offset="1" stop-color="#d6dbf8"/></linearGradient><linearGradient id="Безымянный_градиент_170-2" x1="34.63" y1="253.49" x2="598.88" y2="253.49" xlink:href="#Безымянный_градиент_170"/><linearGradient id="Безымянный_градиент_170-3" x1="34.63" y1="421.55" x2="598.88" y2="421.55" xlink:href="#Безымянный_градиент_170"/><linearGradient id="Безымянный_градиент_170-4" x1="316.76" y1="549.57" x2="316.76" y2="506.33" xlink:href="#Безымянный_градиент_170"/><linearGradient id="Безымянный_градиент_123" x1="85.77" y1="328.25" x2="102.92" y2="328.25" gradientUnits="userSpaceOnUse"><stop offset="0" stop-color="#753200"/><stop offset="1" stop-color="#a04400"/></linearGradient><linearGradient id="Безымянный_градиент_123-2" x1="693.18" y1="2319.69" x2="714.34" y2="2319.69" gradientTransform="matrix(0.68, 0.74, -0.74, 0.68, 1501.93, -1827.82)" xlink:href="#Безымянный_градиент_123"/><linearGradient id="Безымянный_градиент_123-3" x1="128.93" y1="563.57" x2="143.95" y2="563.57" xlink:href="#Безымянный_градиент_123"/><linearGradient id="Безымянный_градиент_123-4" x1="99" y1="556.54" x2="113.77" y2="556.54" xlink:href="#Безымянный_градиент_123"/><linearGradient id="Безымянный_градиент_42" x1="468.03" y1="182.2" x2="512.09" y2="182.2" gradientUnits="userSpaceOnUse"><stop offset="0" stop-color="#67637e"/><stop offset="0.23" stop-color="#544f6f"/><stop offset="0.74" stop-color="#2e2750"/><stop offset="1" stop-color="#1f1844"/></linearGradient><linearGradient id="Безымянный_градиент_123-5" x1="111.71" y1="200.06" x2="162.71" y2="200.06" xlink:href="#Безымянный_градиент_123"/><linearGradient id="Безымянный_градиент_139" x1="81.05" y1="176.49" x2="165.17" y2="176.49" gradientUnits="userSpaceOnUse"><stop offset="0" stop-color="#201f4f"/><stop offset="0.26" stop-color="#27275a"/><stop offset="0.72" stop-color="#393c76"/><stop offset="1" stop-color="#464b8b"/></linearGradient><linearGradient id="Безымянный_градиент_42-2" x1="463.72" y1="321.18" x2="517.13" y2="321.18" xlink:href="#Безымянный_градиент_42"/><linearGradient id="Безымянный_градиент_42-3" x1="473.55" y1="290.96" x2="508.31" y2="290.96" xlink:href="#Безымянный_градиент_42"/><linearGradient id="Безымянный_градиент_54" x1="61.9" y1="291.12" x2="264.01" y2="291.12" gradientUnits="userSpaceOnUse"><stop offset="0.07" stop-color="#361f22"/><stop offset="1" stop-color="#593a33"/></linearGradient><linearGradient id="Безымянный_градиент_42-4" x1="106.34" y1="443.17" x2="126.44" y2="443.17" xlink:href="#Безымянный_градиент_42"/><linearGradient id="Безымянный_градиент_42-5" x1="119.85" y1="519.53" x2="135.64" y2="519.53" xlink:href="#Безымянный_градиент_42"/><linearGradient id="Безымянный_градиент_42-6" x1="286.1" y1="182.06" x2="341.05" y2="182.06" xlink:href="#Безымянный_градиент_42"/><linearGradient id="Безымянный_градиент_42-7" x1="289.62" y1="305.24" x2="337.54" y2="305.24" xlink:href="#Безымянный_градиент_42"/></defs><title>Black Woman Buying Online</title><g id="Слой_4" data-name="Слой 4"><path class="cls-1" d="M36.69,330C92.27,223.69,226,50.71,432.54,50.71c270.35,0,234.56,179,145.54,272.08-73.44,76.79,53.7,124.92-67.75,194.55C387.4,587.82,124.7,581.2,60,526.37S12.67,375.94,36.69,330Z"/><rect class="cls-2" x="229.08" y="444.35" width="175.35" height="72.79"/><rect class="cls-3" x="34.63" y="107.17" width="564.25" height="292.64" rx="12.69" ry="12.69"/><rect class="cls-4" x="52.37" y="126.44" width="528.77" height="254.09" rx="7.2" ry="7.2"/><path class="cls-5" d="M34.63,380.53H598.88a0,0,0,0,1,0,0v43.23a38.81,38.81,0,0,1-38.81,38.81H73.44a38.81,38.81,0,0,1-38.81-38.81V380.53A0,0,0,0,1,34.63,380.53Z"/><circle class="cls-4" cx="316.76" cy="421.55" r="16.39"/><path class="cls-6" d="M229.08,517.14H404.43a34.69,34.69,0,0,1,34.69,34.69v0a0,0,0,0,1,0,0H194.39a0,0,0,0,1,0,0v0A34.69,34.69,0,0,1,229.08,517.14Z"/><path class="cls-7" d="M92.73,141.58h96.6a9.93,9.93,0,0,1,9.93,9.93v86.79a6.78,6.78,0,0,1-6.78,6.78H89.58a6.78,6.78,0,0,1-6.78-6.78V151.51A9.93,9.93,0,0,1,92.73,141.58Z"/><rect class="cls-8" x="82.8" y="219.46" width="116.45" height="25.63"/><rect class="cls-4" x="85.27" y="225.86" width="24.81" height="13.94" rx="2.09" ry="2.09"/><line class="cls-9" x1="120.01" y1="227.74" x2="196.34" y2="227.74"/><line class="cls-9" x1="120.01" y1="237.67" x2="196.34" y2="237.67"/><path class="cls-7" d="M267.32,141.58h96.6a9.93,9.93,0,0,1,9.93,9.93v86.79a6.78,6.78,0,0,1-6.78,6.78H264.17a6.78,6.78,0,0,1-6.78-6.78V151.51A9.93,9.93,0,0,1,267.32,141.58Z"/><rect class="cls-8" x="257.39" y="219.46" width="116.45" height="25.63"/><rect class="cls-4" x="259.85" y="225.86" width="24.81" height="13.94" rx="2.09" ry="2.09"/><line class="cls-9" x1="294.59" y1="227.74" x2="370.93" y2="227.74"/><line class="cls-9" x1="294.59" y1="237.67" x2="370.93" y2="237.67"/><path class="cls-7" d="M441.91,141.58h96.6a9.93,9.93,0,0,1,9.93,9.93v86.79a6.78,6.78,0,0,1-6.78,6.78H438.76a6.78,6.78,0,0,1-6.78-6.78V151.51A9.93,9.93,0,0,1,441.91,141.58Z"/><rect class="cls-8" x="431.98" y="219.46" width="116.45" height="25.63"/><rect class="cls-4" x="434.44" y="225.86" width="24.81" height="13.94" rx="2.09" ry="2.09"/><line class="cls-9" x1="469.18" y1="227.74" x2="545.51" y2="227.74"/><line class="cls-9" x1="469.18" y1="237.67" x2="545.51" y2="237.67"/><path class="cls-7" d="M92.73,262.86h96.6a9.93,9.93,0,0,1,9.93,9.93v86.79a6.78,6.78,0,0,1-6.78,6.78H89.58a6.78,6.78,0,0,1-6.78-6.78V272.79A9.93,9.93,0,0,1,92.73,262.86Z"/><rect class="cls-8" x="82.8" y="340.73" width="116.45" height="25.63"/><rect class="cls-4" x="85.27" y="347.13" width="24.81" height="13.94" rx="2.09" ry="2.09"/><line class="cls-9" x1="120.01" y1="349.02" x2="196.34" y2="349.02"/><line class="cls-9" x1="120.01" y1="358.95" x2="196.34" y2="358.95"/><path class="cls-7" d="M267.32,262.86h96.6a9.93,9.93,0,0,1,9.93,9.93v86.79a6.78,6.78,0,0,1-6.78,6.78H264.17a6.78,6.78,0,0,1-6.78-6.78V272.79A9.93,9.93,0,0,1,267.32,262.86Z"/><rect class="cls-8" x="257.39" y="340.73" width="116.45" height="25.63"/><rect class="cls-4" x="259.85" y="347.13" width="24.81" height="13.94" rx="2.09" ry="2.09"/><line class="cls-9" x1="294.59" y1="349.02" x2="370.93" y2="349.02"/><line class="cls-9" x1="294.59" y1="358.95" x2="370.93" y2="358.95"/><path class="cls-7" d="M441.91,262.86h96.6a9.93,9.93,0,0,1,9.93,9.93v86.79a6.78,6.78,0,0,1-6.78,6.78H438.76a6.78,6.78,0,0,1-6.78-6.78V272.79A9.93,9.93,0,0,1,441.91,262.86Z"/><rect class="cls-8" x="431.98" y="340.73" width="116.45" height="25.63"/><rect class="cls-4" x="434.44" y="347.13" width="24.81" height="13.94" rx="2.09" ry="2.09"/><line class="cls-9" x1="469.18" y1="349.02" x2="545.51" y2="349.02"/><line class="cls-9" x1="469.18" y1="358.95" x2="545.51" y2="358.95"/><path class="cls-10" d="M102.92,324.81,98,337.18A95.77,95.77,0,0,1,85.77,333l11-13.69Z"/><path class="cls-11" d="M275.15,267.43c-3.35,1.3-21.51,16.87-30.79,20.64l-.06-16.44c7-.84,22.19-10.61,24.89-12.69,3.44-2.66.75-3.21,2.74-6.55s4.46-12.18,6.59-14.81,3.3-2.81,3.89-1.45-3.32,8.66-1.43,9.62,6.52-3.53,7.32-4.31,3-9.59,7.42-8.94a1.41,1.41,0,0,1,1,2c-1.25,2.63-3.51,7-3.51,7s1-.18,1.35,2-1,1.27-.37,4.2-.09,2.8-2.59,5.77S279.61,265.69,275.15,267.43Z"/><path class="cls-12" d="M164.91,601.52l-.05,0c-1.57-.87-12.44-6.86-17-10.31s-10.94-3.38-14.32-.84a5.88,5.88,0,0,0-.92.84c-1.57-6.84-.65-14.67.23-19.48l12.21-3.4a125,125,0,0,0,5.16,14C153.78,590.33,163.66,600.28,164.91,601.52Z"/><path class="cls-13" d="M164.86,601.56c-10.3,6.79-20.29-.81-20.29-.81l.94,4.17h-7.82s-.77-2-1.39-3.26c-1.57-3.14-3.35-7.34-3.74-10.53,3.88-4,10.77-3.25,15.27.12S163.29,600.69,164.86,601.56Z"/><path class="cls-12" d="M130.11,604.26s-3.35.31-9,.45h0l-1.79,0c-6.69.12-8.3-6.82-10.91-13.88S95.19,578,89.72,581.82c.15-.87.32-1.59.44-2.12l.05-.22c.15-.58.24-.9.24-.9,1.92-6.46,5.25-14.34,7.58-18,0,.88,11.88,5.47,11.88,5.47a48.73,48.73,0,0,0,3.57,13.59c1.86,4.71,9.54,20.69,13.14,20.82S130.11,604.26,130.11,604.26Z"/><path class="cls-13" d="M121.11,604.71c-3.93.56-13.13-.17-14.57-.58-1.75-.49-1.47-6.69-3.94-7.06s-2.1,7.06-2.1,7.06H88.91a77.27,77.27,0,0,0,0-11.4,47.92,47.92,0,0,1,.76-10.92c5.47-3.83,16.09,2,18.69,9.06s4.22,14,10.91,13.88Z"/><path class="cls-14" d="M134.08,571.42l9.88-2.75s-.56-5.1-1.46-12.94L128.93,560C131.92,566.91,134.08,571.42,134.08,571.42Z"/><path class="cls-15" d="M99.08,561h0c0,.88-.07,1.36-.07,1.36l9.88,3.29s2.11-4.9,4.88-12.3l-14.2-6C99.45,552.12,99.31,556.68,99.08,561Z"/><path class="cls-13" d="M161.07,339.61l-34.53,7.17S110.61,348,99,343.16c-5,11-8.47,19.14-8.44,40.17,0,17.51,15,69.51,15,69.51-.5,4.59-1.23,15,.81,30.87-7.24,18.55-8.43,42.12-9,63.06l18,7.39c1.22-3.26,3.17-11.63,4.47-17.21l.25.69c3,8.38,5.1,16.86,7.7,22.91L144,555.73c-1.62-14.08-5.79-37-8.33-55.2h0c-.05-1.9,0-3.79,0-5.66,9.84-20.16,17.2-26.81,19.2-35.18.35-1.49.94-6,1.6-8.2,3.09-10.32,12.62-45.39,14.23-59.41C173.75,365.37,165.44,351.32,161.07,339.61Z"/><path class="cls-16" d="M507.23,146a57.88,57.88,0,0,1-34.33,0C471.66,148.89,468,158,468,166.6c0,11.77,3.8,44.71,3.8,44.71s7.81,6.95,18.23,7.11c10.42-.16,18.23-7.11,18.23-7.11s3.8-32.94,3.8-44.71C512.09,158,508.47,148.89,507.23,146Z"/><path class="cls-17" d="M160.37,180.77c6.64,14.57-2.58,28.49-6.49,30.89-6,3.67-10,3.24-12.94,8.49-1.91,3.44-.76,7.92.59,13.25a37.2,37.2,0,0,0-5.45-.45,113,113,0,0,0-24.38,2.24l2.77-16c1.08.18-1.69-48.81,19.58-53.54S158.41,180.54,160.37,180.77Z"/><path class="cls-18" d="M156.51,182.15c-11.76,9.21,2.1,34.76,2.1,34.76s-23,1.76-28.29,2c-25.6,1.3-31.58.25-42.47-3.8-7.71-2.86-8.13-27.77-4.88-47.22s18.69-34.59,37.28-34.4c15.52.16,32.79,4.48,39.87,13.74C167.61,157.06,167.06,173.89,156.51,182.15Z"/><path class="cls-19" d="M111.84,225.21h28.89a5,5,0,0,1,5,5v11.08a0,0,0,0,1,0,0H106.84a0,0,0,0,1,0,0V230.2A5,5,0,0,1,111.84,225.21Z"/><rect class="cls-20" x="463.72" y="307" width="53.41" height="28.36" rx="4.37" ry="4.37"/><path class="cls-21" d="M474.59,307s-2.36-31.19,15.83-31.19S507.35,307,507.35,307"/><path class="cls-22" d="M264,281.95s-45.86,19.92-57.43,24.55S160.37,284,160.37,284L156,321.18s3.78,10.4,8.35,21.07c-31.67,14.23-69.92,1-69.92,1l10.05-23.94-5.79-34.65L86,305.92l11.89,11.9-1.21,1.51L85.77,333l-1.06,1.32s-22.48-14.87-22.8-23.75,22.72-52.34,27.18-61.75c3-6.4,11.44-11.75,24.14-14.46,7.3-1.56,19.61-1,26,0,27.71,4.23,67.44,49.47,67.44,49.47l48.81-19.38Z"/><path class="cls-23" d="M126.44,402.65l-4.28,58.2s-9.45,7-15.75,22.85C105.24,470.89,118.86,459,118.86,459Z"/><path class="cls-24" d="M119.85,537s8.75-31.93,15.79-42c-2,16.38-13.36,49.25-13.36,49.25Z"/><polygon class="cls-25" points="328.15 168.39 338.08 146.63 323.66 146.63 313.58 168.39 303.5 146.63 289.08 146.63 299 168.39 286.1 217.49 341.05 217.49 328.15 168.39"/><path class="cls-26" d="M328.15,299l6.4-21.47a5.46,5.46,0,0,0-5-7.73h-5.92l-2,4.37a8.88,8.88,0,0,1-16.11,0l-2-4.37h-4.82a6.17,6.17,0,0,0-5.61,8.73L299,299l-8.93,28.85a9.88,9.88,0,0,0,9.44,12.81h28.13a9.88,9.88,0,0,0,9.44-12.81Z"/></g></svg>
