<svg xmlns="http://www.w3.org/2000/svg" xmlns:xlink="http://www.w3.org/1999/xlink" viewBox="0 0 650 650"><defs><style>.cls-1{fill:url(#Безымянный_градиент_263);}.cls-2{fill:url(#Безымянный_градиент_5);}.cls-18,.cls-26,.cls-3,.cls-30,.cls-39,.cls-44,.cls-5{fill:none;stroke-miterlimit:10;}.cls-3{stroke-width:0.73px;stroke:url(#Безымянный_градиент_10);}.cls-4{fill:url(#Безымянный_градиент_17);}.cls-5{stroke-width:2.1px;stroke:url(#Безымянный_градиент_164);}.cls-6{fill:url(#Безымянный_градиент_5-2);}.cls-7{fill:url(#Безымянный_градиент_5-3);}.cls-8{fill:url(#Безымянный_градиент_5-4);}.cls-9{fill:url(#Безымянный_градиент_5-5);}.cls-10{fill:url(#Безымянный_градиент_5-6);}.cls-11{fill:url(#Безымянный_градиент_5-7);}.cls-12{fill:url(#Безымянный_градиент_18);}.cls-13{fill:url(#Безымянный_градиент_33);}.cls-14{fill:url(#Безымянный_градиент_33-2);}.cls-15{fill:url(#Безымянный_градиент_33-3);}.cls-16{fill:url(#Безымянный_градиент_17-2);}.cls-17{fill:url(#Безымянный_градиент_33-4);}.cls-18{stroke-width:1.22px;stroke:url(#Безымянный_градиент_33-5);}.cls-19{fill:url(#Безымянный_градиент_33-6);}.cls-20{fill:url(#Безымянный_градиент_17-3);}.cls-21{fill:url(#Безымянный_градиент_33-7);}.cls-22{fill:url(#Безымянный_градиент_11);}.cls-23{fill:url(#Безымянный_градиент_16);}.cls-24{fill:url(#Безымянный_градиент_94);}.cls-25{fill:url(#Безымянный_градиент_250);}.cls-26,.cls-30,.cls-39,.cls-44{stroke:#fff;}.cls-26{stroke-width:0.54px;}.cls-27{fill:#1f1844;}.cls-28{fill:#737cbd;}.cls-29{fill:#f0eff3;}.cls-30{stroke-width:6px;}.cls-31{fill:#fff;}.cls-32{fill:url(#Безымянный_градиент_95);}.cls-33{fill:url(#Безымянный_градиент_250-2);}.cls-34{fill:url(#Безымянный_градиент_123);}.cls-35{fill:url(#Безымянный_градиент_92);}.cls-36{fill:url(#Безымянный_градиент_93);}.cls-37{fill:url(#Безымянный_градиент_61);}.cls-38{fill:url(#Безымянный_градиент_123-2);}.cls-39,.cls-44{stroke-linecap:round;}.cls-39{stroke-width:0.67px;}.cls-40{fill:url(#Безымянный_градиент_23);}.cls-41{fill:url(#Безымянный_градиент_157);}.cls-42{fill:url(#Безымянный_градиент_157-2);}.cls-43{fill:url(#Безымянный_градиент_250-3);}.cls-44{stroke-width:0.69px;}.cls-45{fill:url(#Безымянный_градиент_123-3);}</style><linearGradient id="Безымянный_градиент_263" x1="6.07" y1="310.87" x2="632.58" y2="310.87" gradientUnits="userSpaceOnUse"><stop offset="0" stop-color="#f0f2f5"/><stop offset="0.99" stop-color="#f5f7f8"/></linearGradient><linearGradient id="Безымянный_градиент_5" x1="94.23" y1="473.86" x2="74.94" y2="327.51" gradientUnits="userSpaceOnUse"><stop offset="0" stop-color="#1f1844"/><stop offset="0.99" stop-color="#3d3c99"/></linearGradient><linearGradient id="Безымянный_градиент_10" x1="93.25" y1="470.09" x2="76.29" y2="341.36" gradientUnits="userSpaceOnUse"><stop offset="0" stop-color="#3f3d9e"/><stop offset="0.99" stop-color="#423e9f"/></linearGradient><linearGradient id="Безымянный_градиент_17" x1="103.14" y1="420.03" x2="174.71" y2="403.58" gradientUnits="userSpaceOnUse"><stop offset="0.01" stop-color="#bbc0d9"/><stop offset="1" stop-color="#d6dbf8"/></linearGradient><linearGradient id="Безымянный_градиент_164" x1="370.53" y1="103.81" x2="425.29" y2="113.84" gradientTransform="translate(-277.23 396.09) rotate(-10.18)" gradientUnits="userSpaceOnUse"><stop offset="0" stop-color="#bac6d8"/><stop offset="0.99" stop-color="#d6dbf8"/></linearGradient><linearGradient id="Безымянный_градиент_5-2" x1="92.86" y1="423.03" x2="70.92" y2="401.46" xlink:href="#Безымянный_градиент_5"/><linearGradient id="Безымянный_градиент_5-3" x1="92.17" y1="441.15" x2="66.63" y2="432.26" xlink:href="#Безымянный_градиент_5"/><linearGradient id="Безымянный_градиент_5-4" x1="94.07" y1="422.97" x2="117.3" y2="404.7" xlink:href="#Безымянный_градиент_5"/><linearGradient id="Безымянный_градиент_5-5" x1="92.38" y1="441.18" x2="114.92" y2="430.38" xlink:href="#Безымянный_градиент_5"/><linearGradient id="Безымянный_градиент_5-6" x1="96.4" y1="458.14" x2="66.39" y2="454.56" xlink:href="#Безымянный_градиент_5"/><linearGradient id="Безымянный_градиент_5-7" x1="93.07" y1="460.25" x2="113.58" y2="447.72" xlink:href="#Безымянный_градиент_5"/><linearGradient id="Безымянный_градиент_18" x1="100.76" y1="375.7" x2="93.75" y2="404.39" gradientUnits="userSpaceOnUse"><stop offset="0.01" stop-color="#3d3c99"/><stop offset="1" stop-color="#1f1844"/></linearGradient><linearGradient id="Безымянный_градиент_33" x1="1503.33" y1="-401.58" x2="1512.6" y2="-401.58" gradientTransform="translate(-691.56 1768.01) rotate(-45.37)" gradientUnits="userSpaceOnUse"><stop offset="0" stop-color="#e0e4eb"/><stop offset="0.99" stop-color="#f3f6fd"/></linearGradient><linearGradient id="Безымянный_градиент_33-2" x1="2450.79" y1="-195.34" x2="2460.15" y2="-195.34" gradientTransform="translate(-484.77 2835.66) rotate(-72.22)" xlink:href="#Безымянный_градиент_33"/><linearGradient id="Безымянный_градиент_33-3" x1="-334.91" y1="2189.46" x2="-325.63" y2="2189.46" gradientTransform="matrix(0.63, 0.78, -0.78, 0.63, 2013.26, -712.23)" xlink:href="#Безымянный_градиент_33"/><linearGradient id="Безымянный_градиент_17-2" x1="105.86" y1="440.22" x2="115.53" y2="430.3" xlink:href="#Безымянный_градиент_17"/><linearGradient id="Безымянный_градиент_33-4" x1="-233.76" y1="2653.38" x2="-224.25" y2="2653.38" gradientTransform="matrix(0.5, 0.87, -0.77, 0.45, 2260.03, -552.32)" xlink:href="#Безымянный_градиент_33"/><linearGradient id="Безымянный_градиент_33-5" x1="451.62" y1="36.37" x2="465.28" y2="36.37" gradientTransform="translate(-356.7 507.42) rotate(-13.38)" xlink:href="#Безымянный_градиент_33"/><linearGradient id="Безымянный_градиент_33-6" x1="3078.31" y1="86.63" x2="3088.02" y2="86.63" gradientTransform="matrix(0.04, -0.93, 1, 0.04, -128.69, 3324.37)" xlink:href="#Безымянный_градиент_33"/><linearGradient id="Безымянный_градиент_17-3" x1="106.08" y1="455.8" x2="115.73" y2="445.1" xlink:href="#Безымянный_градиент_17"/><linearGradient id="Безымянный_градиент_33-7" x1="-24.09" y1="3228.54" x2="-13.57" y2="3228.54" gradientTransform="matrix(0.35, 0.94, -0.74, 0.28, 2506.31, -424)" xlink:href="#Безымянный_градиент_33"/><linearGradient id="Безымянный_градиент_11" x1="102.27" y1="375.28" x2="95.25" y2="403.97" gradientUnits="userSpaceOnUse"><stop offset="0" stop-color="#e6eaf1"/><stop offset="0.99" stop-color="#f3f6fd"/></linearGradient><linearGradient id="Безымянный_градиент_16" x1="73.58" y1="501.17" x2="127.05" y2="488.89" gradientUnits="userSpaceOnUse"><stop offset="0.11" stop-color="#8988d5"/><stop offset="0.56" stop-color="#9d9ce8"/><stop offset="1" stop-color="#a7a5ee"/></linearGradient><linearGradient id="Безымянный_градиент_94" x1="-172.41" y1="1917.51" x2="-182.49" y2="1899.79" gradientTransform="translate(1574.3 -926.06) rotate(37)" gradientUnits="userSpaceOnUse"><stop offset="0" stop-color="#ffd0b9"/><stop offset="1" stop-color="#a96e46"/></linearGradient><linearGradient id="Безымянный_градиент_250" x1="246.72" y1="503.03" x2="297.57" y2="503.03" gradientUnits="userSpaceOnUse"><stop offset="0" stop-color="#a7a5ee"/><stop offset="0.44" stop-color="#9d9ce8"/><stop offset="0.89" stop-color="#8988d5"/></linearGradient><linearGradient id="Безымянный_градиент_95" x1="3854.67" y1="120.74" x2="3865.46" y2="100.62" gradientTransform="translate(710.17 4261.36) rotate(-97.51)" xlink:href="#Безымянный_градиент_94"/><linearGradient id="Безымянный_градиент_250-2" x1="230.82" y1="278.49" x2="333.89" y2="278.49" xlink:href="#Безымянный_градиент_250"/><linearGradient id="Безымянный_градиент_123" x1="-19.29" y1="1335.14" x2="-14.59" y2="1335.14" gradientTransform="translate(842.51 -1052) rotate(22.37)" gradientUnits="userSpaceOnUse"><stop offset="0" stop-color="#753200"/><stop offset="1" stop-color="#a04400"/></linearGradient><linearGradient id="Безымянный_градиент_92" x1="-70.74" y1="1370.08" x2="-21.26" y2="1341.81" gradientTransform="translate(842.51 -1052) rotate(22.37)" xlink:href="#Безымянный_градиент_94"/><linearGradient id="Безымянный_градиент_93" x1="292.29" y1="155.2" x2="313.09" y2="168.22" gradientUnits="userSpaceOnUse"><stop offset="0" stop-color="#a96e46"/><stop offset="1" stop-color="#ffd0b9" stop-opacity="0"/></linearGradient><linearGradient id="Безымянный_градиент_61" x1="-17.1" y1="1353.62" x2="-35.11" y2="1371.3" gradientTransform="translate(842.51 -1052) rotate(22.37)" gradientUnits="userSpaceOnUse"><stop offset="0" stop-color="#ffd0b9" stop-opacity="0"/><stop offset="1" stop-color="#a96e46"/></linearGradient><linearGradient id="Безымянный_градиент_123-2" x1="-17.02" y1="1341.17" x2="-19.34" y2="1343.45" xlink:href="#Безымянный_градиент_123"/><linearGradient id="Безымянный_градиент_23" x1="4442.7" y1="1011.99" x2="4454.27" y2="948.56" gradientTransform="matrix(-0.95, -0.32, -0.32, 0.95, 4781.84, 796.7)" gradientUnits="userSpaceOnUse"><stop offset="0" stop-color="#9594e0"/><stop offset="0.63" stop-color="#7170b0"/></linearGradient><linearGradient id="Безымянный_градиент_157" x1="3259.31" y1="-473.01" x2="3311.33" y2="-473.01" gradientTransform="translate(429.45 3674.89) rotate(-84)" gradientUnits="userSpaceOnUse"><stop offset="0" stop-color="#a96e46"/><stop offset="1" stop-color="#ffd0b9"/></linearGradient><linearGradient id="Безымянный_градиент_157-2" x1="3457.33" y1="3596.27" x2="3507.61" y2="3596.27" gradientTransform="matrix(0.01, -1, -1, -0.01, 3810.05, 3846.53)" xlink:href="#Безымянный_градиент_157"/><linearGradient id="Безымянный_градиент_250-3" x1="395.28" y1="316.34" x2="423.84" y2="316.34" gradientTransform="translate(-108.43 142.52) rotate(-3.55)" xlink:href="#Безымянный_градиент_250"/><linearGradient id="Безымянный_градиент_123-3" x1="512.56" y1="47.62" x2="508.84" y2="51.27" gradientTransform="matrix(1, 0, 0, 1, 0, 0)" xlink:href="#Безымянный_градиент_123"/></defs><title>Black Man : Woman Using Mobile Phone</title><g id="Слой_2" data-name="Слой 2"><path class="cls-1" d="M611.19,323.36c-55-112.47-212.37-277.21-416.84-277.63-213.36-.44-234,211.17-119,270S22.2,447.85,142.4,521.52c121.66,74.56,381.67,67.56,445.67,9.56S635,371.95,611.19,323.36Z"/><path class="cls-2" d="M94.44,474.91s21.23-23.63,19-32.95,10.92-20.63,11.18-34.19c.29-15.36-7.92-11.26-10.76-17.83-4.21-9.74,5.16-18.36-9-22.09-9.68-2.54-16.48,2.42-15.6-9.55S85.78,331.51,78,326.13c-11.08-7.68-33.61-8.29-26,7.2,8,16.28.95,43.09-.91,50.43C31.45,461.34,94.44,474.91,94.44,474.91Z"/><path class="cls-3" d="M70.76,342.09c2.43,20,27.55,52,16.17,73.43S92.8,470,92.8,470"/><path class="cls-4" d="M158.78,430.16C145,435,159.92,452.87,144.84,460.9s-34.41,12.11-35.29,8.21c-.06-.26-.87-2.85-1.73-6.63-.2-.87-.39-1.82-.59-2.81,0-.28-.1-.56-.16-.84a76.31,76.31,0,0,1-1.14-9.13c0-.09,0-.19,0-.28-.07-1.22-.09-2.44-.07-3.66s.09-2.34.21-3.48c.45-4.34,1.69-8.34,4.23-11.21a12,12,0,0,1,2.2-2c10.48-7.29,14.66-3.75,14.58-14.52-.14-18.46,5.12-21.22,11.3-19.39s11,2.33,11.92-4.49-4.68-37.23,9.37-37.17c24.34.08,12,31.14,9.57,36.18-5.9,12.08,6.37,14,9.28,22.78S172.56,425.28,158.78,430.16Z"/><path class="cls-5" d="M106.85,495.63s-3.7-34,22.19-53c11.7-8.6,33.44-39.31,31.47-72.54"/><path class="cls-6" d="M70.54,401.13c3.22-5.45,26.34,17,22.29,22S67.48,406.33,70.54,401.13Z"/><path class="cls-7" d="M64.71,431.81c.46-6.35,28.38,2.78,26.94,9.06S64.27,437.86,64.71,431.81Z"/><path class="cls-8" d="M117.4,403.78c4.94,3.87-19.47,24.9-23.82,20.24S112.69,400.09,117.4,403.78Z"/><path class="cls-9" d="M114.84,430.27c4.16,4.7-19.41,16.51-23,11.18S110.89,425.79,114.84,430.27Z"/><path class="cls-10" d="M66.56,454.65c-1.22-5.83,29.55-2.47,29.82,3.53S67.72,460.2,66.56,454.65Z"/><path class="cls-11" d="M113.35,447.85c3.19,5.4-18.86,18.86-21.42,13S110.31,442.71,113.35,447.85Z"/><path class="cls-12" d="M101.18,374.9c6.21.45-1.82,31.75-8,30.3S95.27,374.47,101.18,374.9Z"/><path class="cls-13" d="M72.88,399.65c3.22-5.45,26.34,17,22.29,22S69.81,404.84,72.88,399.65Z"/><path class="cls-14" d="M66.57,430.51c.46-6.35,28.38,2.78,26.94,9.06S66.13,436.56,66.57,430.51Z"/><path class="cls-15" d="M118.35,402.38c4.94,3.87-19.47,24.9-23.82,20.24S113.63,398.69,118.35,402.38Z"/><path class="cls-16" d="M106.57,441.07c.43-4.26,1.62-8.19,4.06-11,3-.59,5.43-.47,6.51.75C119.45,433.42,113.19,438.23,106.57,441.07Z"/><path class="cls-17" d="M116,429.27c4.16,4.7-19.41,16.51-23,11.18S112.05,424.79,116,429.27Z"/><path class="cls-18" d="M94.88,397.82s.71,16.26-1.44,30.45,3.28,38.2,12.12,45.88"/><path class="cls-19" d="M66.56,453.53c-1.22-5.83,29.55-2.47,29.82,3.53S67.72,459.09,66.56,453.53Z"/><path class="cls-20" d="M107.69,458.15c0-.27-.1-.55-.15-.83a76.58,76.58,0,0,1-1.09-9c0-.09,0-.19,0-.28,5-2.78,10.39-4.18,11.8-1.78C120,449.34,113.88,454.9,107.69,458.15Z"/><path class="cls-21" d="M117.11,444c3.19,5.4-18.86,18.86-21.42,13S114.07,438.86,117.11,444Z"/><path class="cls-22" d="M102.69,374.49c6.21.45-1.82,31.75-8,30.3S96.77,374.06,102.69,374.49Z"/><path class="cls-23" d="M108,524.65H88.89a17.22,17.22,0,0,1-17.07-14.92l-4.75-35.2A4,4,0,0,1,71,470h54.87a4,4,0,0,1,3.94,4.51l-4.75,35.2A17.22,17.22,0,0,1,108,524.65Z"/><polygon class="cls-24" points="276.24 480.57 274.8 490.62 278.2 499.93 281.28 501.66 291.39 496.07 293.16 491.38 289.49 481.75 276.24 480.57"/><path class="cls-25" d="M274.7,485.71s5.27,7.19,4.93,10.41,9.31-.12,10.19-5.46,3.14-2.65,3.85.32,3.08,3,3.56,5.1,1.3,6.62-4.17,9.79-11.4,1.84-15.78,4-9.11,9.74-13.8,10.38-12.37.18-16-7,7.37-11.06,10.17-12,8-7.32,10.17-10S272,484.91,274.7,485.71Z"/><path class="cls-26" d="M292.88,491.7s2.94,4-1.89,7.7-12.34,3.6-16.55,8.16-7.46,9-14.92,8.95-9.17-2.09-9.17-2.09"/><rect class="cls-27" x="324.59" y="79.37" width="214.33" height="443.86" rx="16.49" ry="16.49"/><rect class="cls-28" x="337.19" y="97.58" width="189.14" height="407.42" rx="12.18" ry="12.18"/><path class="cls-27" d="M385.87,91.16h91.77a0,0,0,0,1,0,0v0a19.19,19.19,0,0,1-19.19,19.19H405.07a19.19,19.19,0,0,1-19.19-19.19v0a0,0,0,0,1,0,0Z"/><path class="cls-27" d="M295.45,425.31l-1,44a13.24,13.24,0,0,1-.25,2.57l-3.17,10.3a21.15,21.15,0,0,1-8,2c-3.87,0-8.88-2.43-8.88-2.43l-3-8.45a13.24,13.24,0,0,1-.43-2.69l-3.76-51.3Z"/><rect class="cls-29" x="460.54" y="121.42" width="53.58" height="16.88" rx="4.2" ry="4.2"/><rect class="cls-29" x="351.67" y="154.14" width="63.18" height="18.01" rx="4.2" ry="4.2"/><rect class="cls-29" x="356.87" y="126.64" width="52.78" height="6.44" rx="3.22" ry="3.22"/><rect class="cls-29" x="356.98" y="182.78" width="149.55" height="225.42" rx="7.07" ry="7.07"/><rect class="cls-29" x="356.98" y="428.99" width="149.55" height="39.89" rx="7.07" ry="7.07"/><circle class="cls-30" cx="431.76" cy="255.08" r="54.78"/><rect class="cls-31" x="371.76" y="326.09" width="119.99" height="29.19" rx="7.41" ry="7.41"/><rect class="cls-31" x="371.76" y="367.27" width="119.99" height="29.19" rx="7.41" ry="7.41"/><path class="cls-32" d="M307.63,408.41a99.77,99.77,0,0,1-4.54,13.35s10.82,7.67,11.86,8.53c.87-3.48,10.63-3.07,11.76-6s-6.34-9.3-6-12.89C317.64,411.49,309.41,409.13,307.63,408.41Z"/><path class="cls-27" d="M297.33,400.45s.53-18.26,4.41-33.17c2.25-8.66,6-33.46,1-50.72-3.27-11.39-55.58-9.13-55.58-9.13l-5.42,13.92-25.44,67.42a18.42,18.42,0,0,0,14.25,23.51l67.37,14.14a6.52,6.52,0,0,0,2.26.09l6.64-.9,3.84-17.21-5.5-4.79a9.05,9.05,0,0,0-2.19-.84Zm-47.86-11,16-36.7,1.6,41Z"/><path class="cls-33" d="M313,352.12l-13.4-4.37,13.68-55.42s1-21.14-.29-31.25C308.53,297.33,305.4,322,305.4,322s-4.27.09-9.56.12c-7.61,0-18.89-.44-28.62-3-10-2.64-21.27-5.83-21.27-5.83l-3.15,12.81-12,3.65s7.08-100.49,29.83-118.66c7.56-6,21-7.34,26.9-5.38s35.15,9,40.93,16.38c9.12,11.63,4.19,63,3.05,73.7a17.67,17.67,0,0,1-.83,3.78Z"/><path class="cls-34" d="M318.13,180.51c1.28-1.51,3.48-6,4.37-7.27-2.44-.64-5.89,2-6.75,4.08C316.38,177.49,317.66,179.79,318.13,180.51Z"/><path class="cls-35" d="M294.48,215.7a8.93,8.93,0,0,1-7.14-8.19,13.32,13.32,0,0,1,.55-3.37l.28-1.19.26-1.1.31-1.35a16.08,16.08,0,0,1-1.83-.61C282.24,198,275.4,193,275,184.56c-.3-5.87,3-10.37,3.86-13.56s.14-5.8.48-9.53c.43-4.78,3.76-10,6.36-10.82,11.74-3.51,28.68,6.93,28.68,6.93s5.46,4.32-.3,16.54c.74-.26-1.21,2.14-.3,2.19a5.63,5.63,0,0,1,4.22,1.91c1.87,2.39.77,6.77-5.35,11.6l-.21.17a29.55,29.55,0,0,0-1.16,3.6c0,.18-.1.37-.15.56-.59,2.25-1.37,5.17-2.11,8-1.07,4.07-1.83,7.61-2.15,9C306.06,214.44,301.47,217.33,294.48,215.7Z"/><path class="cls-36" d="M314.07,174.12c5.76-12.21.3-16.54.3-16.54s-16.94-10.43-28.68-6.93c-1.84.54-3.52,2.63-4.43,4.66,4.9-2.19,13.52,1.6,20,3.49,3.08.91.82,3.86,1.64,4.24,7.2.56,10.82,5.21,7,14.6l3.81-1.36C313,176.09,314.78,173.87,314.07,174.12Z"/><path class="cls-27" d="M323.06,172.62a31.88,31.88,0,0,0,2.09-8.07c1.23-7.41-2.15-12.12-8.74-16.32l-6.46-3.58c-.59-.33-11.63-5.84-18.21-4.9-2.47.35-6.25,2.12-7,4-1.91,4.87-3.08,7.42-3.47,11.55,6.4-9,6.9,4.81,23.46-.17,3.07-.92.82,3.86,1.64,4.24,8.13.64,11.7,6.46,5.22,18.43,2.32-.34,4-1,5.18-.67C318.9,176,322.54,173.74,323.06,172.62Z"/><path class="cls-37" d="M311.1,194.15a29.3,29.3,0,0,1-22.94,8.8l.26-1.1.31-1.35a16.08,16.08,0,0,1-1.83-.61c4.93-1.64,18.7-6.33,25.73-10.07l-.21.17a29.55,29.55,0,0,0-1.16,3.6C311.21,193.77,311.16,194,311.1,194.15Z"/><path class="cls-27" d="M313.08,177.78c.33-.16,1.27-.5,1.27-.5l.42-2.53-4.15.83a2.14,2.14,0,0,0-1.65,1.55l-2.28,8.65c-5.66.91-19.23,4.63-21.31,4.16-2.64-.6-2.2-4-3.82-3.86s-2.19,2.11-3.12,1.72a15.16,15.16,0,0,1-3.31-5.23s-.55,5.89-.58,7c-.08,2.46,2.8,8.68,2.8,8.68a2.36,2.36,0,0,0,1.55,1.38l6.12,1.7,3.68-.61c5.05-.67,18.32-6,18.87-7.29C310.82,186.08,309.83,179.38,313.08,177.78Z"/><path class="cls-38" d="M313.16,180.5s2.33-1.93,3.08.19-1.94,4.7-1.94,4.7Z"/><path class="cls-39" d="M284,206.83s-.09,9.68,10,12,16-6,16-6"/><path class="cls-40" d="M262.49,249.92c-9.75,6.17-16.53,63.36-16.53,63.36l10,2.79S256.48,280.58,262.49,249.92Z"/><path class="cls-41" d="M299.66,352.51a8.44,8.44,0,0,0-3.25,3.4,12.9,12.9,0,0,0-1,5.06c-.15,2.25-.25,4.5-1.19,6.15s-1.37,1.51-.9,2.36,2.88,1,3.82-.29,2.46-3.54,2.46-3.54a18.54,18.54,0,0,0,1.17,3.18c.69,1.44-.18,5.53-1.07,6.86-1.85,2.8-3.8,6.19-3.56,7.49s2.85-.34,2.85-.34,6.33-4.68,7.76-7.71c.81-1.72,2.33-4.33,2.22-7.71s-.16-10.86-.16-10.86l1.29-5.36-8.64-2.82S300.11,352.31,299.66,352.51Z"/><path class="cls-42" d="M243.41,330.75a8.44,8.44,0,0,1,2.85,3.75,12.9,12.9,0,0,1,.41,5.14c-.11,2.26-.26,4.5.49,6.25s1.19,1.65.63,2.44-3,.66-3.76-.71-2.05-3.79-2.05-3.79a18.54,18.54,0,0,1-1.52,3c-.85,1.36-.44,5.51.29,6.94,1.53,3,3.08,6.58,2.7,7.84s-2.79-.66-2.79-.66-5.77-5.36-6.85-8.53c-.62-1.8-1.83-4.56-1.34-7.91s1.37-10.77,1.37-10.77l-.7-5.36s5.5-1.33,8.42-2.32C242.58,327.26,243,330.51,243.41,330.75Z"/><path class="cls-43" d="M316.55,447.71s-.58,6.7.64,9.08,3.18,2.76,5.17,2.69,4.54-2.55,6.48-11A246.82,246.82,0,0,0,333,422.17a46.87,46.87,0,0,0-.33-11.11,5,5,0,0,0-4.41-4,13.78,13.78,0,0,1-2.41-.49c-1.48-.48-3,0-4.26-.28s-9.08-.17-9.94,2.15,6.3,5,6.39,9.94-5.92,6.28-5.92,6.28-2.43-2-3.75-.6-2.7.17-3.15,1.23,2.08,4.28,2.08,4.28,6.1,10.62,8.53,14.77A12.46,12.46,0,0,1,316.55,447.71Z"/><path class="cls-44" d="M323.58,456.34c6.33-15.53,4.3-32.29,4.3-32.29.47-4.83,3-9.93-1.4-15.47l-.36-.49"/><path class="cls-45" d="M507,47.68s2.27-4.26,4.67-1.6,0,8.13,0,8.13Z"/></g></svg>
