<svg xmlns="http://www.w3.org/2000/svg" xmlns:xlink="http://www.w3.org/1999/xlink" viewBox="0 0 650 650"><defs><style>.cls-1{fill:url(#Безымянный_градиент_36);}.cls-2{fill:url(#Безымянный_градиент_170);}.cls-3{fill:url(#Безымянный_градиент_170-2);}.cls-4{fill:url(#Безымянный_градиент_170-3);}.cls-5{fill:url(#Безымянный_градиент_216);}.cls-6{fill:url(#Безымянный_градиент_40);}.cls-7{fill:url(#Безымянный_градиент_108);}.cls-8{fill:url(#Безымянный_градиент_108-2);}.cls-9{fill:#191337;}.cls-10,.cls-11,.cls-14,.cls-20,.cls-44,.cls-46,.cls-47,.cls-54,.cls-56,.cls-67{fill:none;stroke-miterlimit:10;}.cls-10,.cls-11,.cls-20{stroke:#fff;}.cls-10,.cls-14,.cls-20,.cls-46,.cls-47{stroke-linecap:round;}.cls-10{stroke-width:0.99px;}.cls-11{stroke-width:0.76px;}.cls-12{fill:url(#Безымянный_градиент_123);}.cls-13{fill:url(#Безымянный_градиент_60);}.cls-14{stroke:#f3f6fd;}.cls-14,.cls-20{stroke-width:1.03px;}.cls-15{fill:url(#Безымянный_градиент_250);}.cls-16{fill:#fff;}.cls-17{fill:url(#Безымянный_градиент_108-3);}.cls-18{fill:url(#Безымянный_градиент_59);}.cls-19{fill:url(#Безымянный_градиент_108-4);}.cls-21{fill:url(#Безымянный_градиент_90);}.cls-22{fill:url(#Безымянный_градиент_90-2);}.cls-23{fill:url(#Безымянный_градиент_170-4);}.cls-24{fill:url(#Безымянный_градиент_170-5);}.cls-25{fill:url(#Безымянный_градиент_170-6);}.cls-26{fill:url(#Безымянный_градиент_216-2);}.cls-27{fill:url(#Безымянный_градиент_40-2);}.cls-28{fill:url(#Безымянный_градиент_58);}.cls-29{fill:#13122e;}.cls-30{fill:url(#Безымянный_градиент_123-2);}.cls-31{fill:#201f4f;}.cls-32{fill:url(#Безымянный_градиент_57);}.cls-33{fill:url(#Безымянный_градиент_123-3);}.cls-34{fill:url(#Безымянный_градиент_57-2);}.cls-35{fill:url(#Безымянный_градиент_57-3);}.cls-36{fill:url(#Безымянный_градиент_48);}.cls-37{fill:url(#Безымянный_градиент_123-4);}.cls-38{fill:url(#Безымянный_градиент_140);}.cls-39{fill:url(#Безымянный_градиент_48-2);}.cls-40{fill:url(#Безымянный_градиент_123-5);}.cls-41{fill:url(#Безымянный_градиент_139);}.cls-42{fill:url(#Безымянный_градиент_57-4);}.cls-43{fill:url(#Безымянный_градиент_123-6);}.cls-44{stroke:#d6d9e8;stroke-width:5.64px;}.cls-45{fill:url(#Безымянный_градиент_269);}.cls-46,.cls-47{stroke-width:15.14px;}.cls-46{stroke:url(#Безымянный_градиент_170-7);}.cls-47{stroke:url(#Безымянный_градиент_170-8);}.cls-48{fill:url(#Безымянный_градиент_40-3);}.cls-49{fill:url(#Безымянный_градиент_269-2);}.cls-50{fill:url(#Безымянный_градиент_108-5);}.cls-51{fill:url(#Безымянный_градиент_90-3);}.cls-52{fill:url(#Безымянный_градиент_56);}.cls-53{fill:url(#Безымянный_градиент_5);}.cls-54{stroke-width:0.8px;stroke:url(#Безымянный_градиент_10);}.cls-55{fill:url(#Безымянный_градиент_17);}.cls-56{stroke-width:1.99px;stroke:url(#Безымянный_градиент_164);}.cls-57{fill:url(#Безымянный_градиент_5-2);}.cls-58{fill:url(#Безымянный_градиент_5-3);}.cls-59{fill:url(#Безымянный_градиент_5-4);}.cls-60{fill:url(#Безымянный_градиент_5-5);}.cls-61{fill:url(#Безымянный_градиент_18);}.cls-62{fill:url(#Безымянный_градиент_33);}.cls-63{fill:url(#Безымянный_градиент_33-2);}.cls-64{fill:url(#Безымянный_градиент_33-3);}.cls-65{fill:url(#Безымянный_градиент_17-2);}.cls-66{fill:url(#Безымянный_градиент_33-4);}.cls-67{stroke-width:1.34px;stroke:url(#Безымянный_градиент_33-5);}.cls-68{fill:url(#Безымянный_градиент_33-6);}.cls-69{fill:url(#Безымянный_градиент_17-3);}.cls-70{fill:url(#Безымянный_градиент_33-7);}.cls-71{fill:url(#Безымянный_градиент_11);}.cls-72{fill:url(#Безымянный_градиент_16);}</style><linearGradient id="Безымянный_градиент_36" x1="26.97" y1="331.99" x2="634.03" y2="331.99" gradientUnits="userSpaceOnUse"><stop offset="0.01" stop-color="#f5f7f8"/><stop offset="1" stop-color="#f0f2f5"/></linearGradient><linearGradient id="Безымянный_градиент_170" x1="470.66" y1="476.62" x2="495.75" y2="476.62" gradientUnits="userSpaceOnUse"><stop offset="0.01" stop-color="#bbbfd9"/><stop offset="1" stop-color="#d6dbf8"/></linearGradient><linearGradient id="Безымянный_градиент_170-2" x1="569.26" y1="473.61" x2="596.89" y2="473.61" xlink:href="#Безымянный_градиент_170"/><linearGradient id="Безымянный_градиент_170-3" x1="531.75" y1="481.31" x2="557.4" y2="481.31" xlink:href="#Безымянный_градиент_170"/><linearGradient id="Безымянный_градиент_216" x1="533.22" y1="422.86" x2="533.22" y2="253.12" gradientUnits="userSpaceOnUse"><stop offset="0" stop-color="#201f4f"/><stop offset="0.39" stop-color="#3d3c99"/><stop offset="1" stop-color="#403da0"/></linearGradient><linearGradient id="Безымянный_градиент_40" x1="586.53" y1="341.65" x2="601.96" y2="343.19" gradientUnits="userSpaceOnUse"><stop offset="0.11" stop-color="#343381"/><stop offset="0.56" stop-color="#3d3c99"/><stop offset="1" stop-color="#403da0"/></linearGradient><linearGradient id="Безымянный_градиент_108" x1="598.22" y1="447.58" x2="694.72" y2="396.58" gradientUnits="userSpaceOnUse"><stop offset="0" stop-color="#a96e46"/><stop offset="1" stop-color="#ffd0b9"/></linearGradient><linearGradient id="Безымянный_градиент_108-2" x1="586.83" y1="426.02" x2="683.33" y2="375.02" xlink:href="#Безымянный_градиент_108"/><linearGradient id="Безымянный_градиент_123" x1="81.19" y1="-515.65" x2="88.42" y2="-515.65" gradientTransform="translate(366.9 664.9) rotate(10.9)" gradientUnits="userSpaceOnUse"><stop offset="0" stop-color="#753200"/><stop offset="1" stop-color="#a04400"/></linearGradient><linearGradient id="Безымянный_градиент_60" x1="407.97" y1="402.08" x2="486.54" y2="402.08" gradientUnits="userSpaceOnUse"><stop offset="0" stop-color="#a7a5ee"/><stop offset="0.53" stop-color="#8988d5"/></linearGradient><linearGradient id="Безымянный_градиент_250" x1="482.3" y1="500.21" x2="453.91" y2="440.13" gradientUnits="userSpaceOnUse"><stop offset="0" stop-color="#a7a5ee"/><stop offset="0.44" stop-color="#9d9ce8"/><stop offset="0.89" stop-color="#8988d5"/></linearGradient><linearGradient id="Безымянный_градиент_108-3" x1="510.67" y1="281.91" x2="607.17" y2="230.91" xlink:href="#Безымянный_градиент_108"/><linearGradient id="Безымянный_градиент_59" x1="388.93" y1="442.45" x2="569.55" y2="442.45" gradientUnits="userSpaceOnUse"><stop offset="0" stop-color="#a7a5ee"/><stop offset="0.71" stop-color="#8988d5"/></linearGradient><linearGradient id="Безымянный_градиент_108-4" x1="474.06" y1="212.63" x2="570.56" y2="161.63" xlink:href="#Безымянный_градиент_108"/><linearGradient id="Безымянный_градиент_90" x1="84.56" y1="-487.16" x2="56.79" y2="-459.91" gradientTransform="translate(366.9 664.9) rotate(10.9)" gradientUnits="userSpaceOnUse"><stop offset="0" stop-color="#a96e46"/><stop offset="1" stop-color="#ffd0b9" stop-opacity="0"/></linearGradient><linearGradient id="Безымянный_градиент_90-2" x1="84.69" y1="-506.36" x2="81.1" y2="-502.84" xlink:href="#Безымянный_градиент_90"/><linearGradient id="Безымянный_градиент_170-4" x1="-7873.95" y1="479.5" x2="-7846.69" y2="479.5" gradientTransform="matrix(-1, 0, 0, 1, -7615.42, 0)" xlink:href="#Безымянный_градиент_170"/><linearGradient id="Безымянный_градиент_170-5" x1="-7772.92" y1="473.67" x2="-7745.2" y2="473.67" gradientTransform="matrix(-1, 0, 0, 1, -7615.42, 0)" xlink:href="#Безымянный_градиент_170"/><linearGradient id="Безымянный_градиент_170-6" x1="-7810.56" y1="481.4" x2="-7784.83" y2="481.4" gradientTransform="matrix(-1, 0, 0, 1, -7615.42, 0)" xlink:href="#Безымянный_градиент_170"/><linearGradient id="Безымянный_градиент_216-2" x1="-7809.07" y1="422.74" x2="-7809.07" y2="252.41" gradientTransform="matrix(-1, 0, 0, 1, -7615.42, 0)" xlink:href="#Безымянный_градиент_216"/><linearGradient id="Безымянный_градиент_40-2" x1="-7755.59" y1="341.25" x2="-7740.11" y2="342.8" gradientTransform="matrix(-1, 0, 0, 1, -7615.42, 0)" xlink:href="#Безымянный_градиент_40"/><linearGradient id="Безымянный_градиент_58" x1="621.7" y1="1465.01" x2="644.95" y2="1475.81" gradientTransform="translate(-694.92 -796.94) rotate(-13.72)" gradientUnits="userSpaceOnUse"><stop offset="0" stop-color="#a04400"/><stop offset="0.71" stop-color="#753200"/></linearGradient><linearGradient id="Безымянный_градиент_123-2" x1="-8759.26" y1="469.94" x2="-8692.6" y2="469.94" gradientTransform="matrix(-1, 0, 0, 1, -8461.53, 0)" xlink:href="#Безымянный_градиент_123"/><linearGradient id="Безымянный_градиент_57" x1="174.28" y1="333" x2="322.9" y2="333" gradientUnits="userSpaceOnUse"><stop offset="0.01" stop-color="#696c7a"/><stop offset="0.25" stop-color="#787b88"/><stop offset="0.71" stop-color="#a0a2ab"/><stop offset="1" stop-color="#bcbec4"/></linearGradient><linearGradient id="Безымянный_градиент_123-3" x1="-8764.06" y1="348.3" x2="-8699.78" y2="348.3" gradientTransform="matrix(-1, 0, 0, 1, -8461.53, 0)" xlink:href="#Безымянный_градиент_123"/><linearGradient id="Безымянный_градиент_57-2" x1="-8694.85" y1="285.72" x2="-8663.14" y2="285.72" gradientTransform="matrix(-1, 0, 0, 1, -8461.53, 0)" xlink:href="#Безымянный_градиент_57"/><linearGradient id="Безымянный_градиент_57-3" x1="-8693.61" y1="304.51" x2="-8641.56" y2="304.51" gradientTransform="matrix(-1, 0, 0, 1, -8461.53, 0)" xlink:href="#Безымянный_градиент_57"/><linearGradient id="Безымянный_градиент_48" x1="-11069.64" y1="1788.5" x2="-11095.24" y2="1813.62" gradientTransform="matrix(-0.98, 0.21, 0.21, 0.98, -11007.23, 815.12)" gradientUnits="userSpaceOnUse"><stop offset="0" stop-color="#a04400"/><stop offset="1" stop-color="#753200"/></linearGradient><linearGradient id="Безымянный_градиент_123-4" x1="243.09" y1="204.99" x2="178.25" y2="190.54" gradientTransform="matrix(1, 0, 0, 1, 0, 0)" xlink:href="#Безымянный_градиент_123"/><linearGradient id="Безымянный_градиент_140" x1="226.17" y1="164.22" x2="188.7" y2="182.04" gradientUnits="userSpaceOnUse"><stop offset="0.1" stop-color="#753200"/><stop offset="0.48" stop-color="#8a3b00" stop-opacity="0.52"/><stop offset="0.82" stop-color="#9a4100" stop-opacity="0.14"/><stop offset="1" stop-color="#a04400" stop-opacity="0"/></linearGradient><linearGradient id="Безымянный_градиент_48-2" x1="2021.08" y1="208.44" x2="2052.38" y2="225.83" gradientTransform="translate(-1836.55)" xlink:href="#Безымянный_градиент_48"/><linearGradient id="Безымянный_градиент_123-5" x1="-11069.7" y1="1770.62" x2="-11073" y2="1773.86" gradientTransform="matrix(-0.98, 0.21, 0.21, 0.98, -11007.23, 815.12)" xlink:href="#Безымянный_градиент_123"/><linearGradient id="Безымянный_градиент_139" x1="163.44" y1="174.76" x2="245.31" y2="174.76" gradientUnits="userSpaceOnUse"><stop offset="0" stop-color="#201f4f"/><stop offset="0.26" stop-color="#27275a"/><stop offset="0.72" stop-color="#393c76"/><stop offset="1" stop-color="#464b8b"/></linearGradient><linearGradient id="Безымянный_градиент_57-4" x1="178.27" y1="292.33" x2="277.54" y2="292.33" xlink:href="#Безымянный_градиент_57"/><linearGradient id="Безымянный_градиент_123-6" x1="297.52" y1="342.11" x2="277.31" y2="327.38" gradientTransform="matrix(1, 0, 0, 1, 0, 0)" xlink:href="#Безымянный_градиент_123"/><linearGradient id="Безымянный_градиент_269" x1="448.21" y1="321.46" x2="477.08" y2="321.46" gradientUnits="userSpaceOnUse"><stop offset="0" stop-color="#fff"/><stop offset="0.16" stop-color="#f2f3f8"/><stop offset="0.71" stop-color="#cacde2"/><stop offset="0.99" stop-color="#bbbfd9"/></linearGradient><linearGradient id="Безымянный_градиент_170-7" x1="279.38" y1="554.56" x2="279.38" y2="344.22" xlink:href="#Безымянный_градиент_170"/><linearGradient id="Безымянный_градиент_170-8" x1="-7372.74" y1="554.87" x2="-7372.74" y2="344.22" gradientTransform="matrix(-1, 0, 0, 1, -6937.15, 0)" xlink:href="#Безымянный_градиент_170"/><linearGradient id="Безымянный_градиент_40-3" x1="359.29" y1="355.45" x2="359.29" y2="337.32" xlink:href="#Безымянный_градиент_40"/><linearGradient id="Безымянный_градиент_269-2" x1="-7499.25" y1="321.46" x2="-7470.37" y2="321.46" gradientTransform="matrix(-1, 0, 0, 1, -7175.49, 0)" xlink:href="#Безымянный_градиент_269"/><linearGradient id="Безымянный_градиент_108-5" x1="532.68" y1="323.55" x2="629.18" y2="272.55" xlink:href="#Безымянный_градиент_108"/><linearGradient id="Безымянный_градиент_90-3" x1="489.36" y1="149.63" x2="537.09" y2="154.72" gradientTransform="matrix(1, 0, 0, 1, 0, 0)" xlink:href="#Безымянный_градиент_90"/><linearGradient id="Безымянный_градиент_56" x1="519.88" y1="175.18" x2="519.88" y2="131.07" gradientUnits="userSpaceOnUse"><stop offset="0" stop-color="#1f1844" stop-opacity="0"/><stop offset="0.03" stop-color="#1f1844" stop-opacity="0.13"/><stop offset="0.11" stop-color="#1f1844" stop-opacity="0.45"/><stop offset="0.21" stop-color="#1f1844" stop-opacity="0.7"/><stop offset="0.33" stop-color="#1f1844" stop-opacity="0.87"/><stop offset="0.5" stop-color="#1f1844" stop-opacity="0.97"/><stop offset="0.96" stop-color="#1f1844"/></linearGradient><linearGradient id="Безымянный_градиент_5" x1="66.32" y1="504.18" x2="44.6" y2="339.42" gradientUnits="userSpaceOnUse"><stop offset="0" stop-color="#1f1844"/><stop offset="0.99" stop-color="#3d3c99"/></linearGradient><linearGradient id="Безымянный_градиент_10" x1="65.2" y1="499.93" x2="46.09" y2="354.94" gradientUnits="userSpaceOnUse"><stop offset="0" stop-color="#3f3d9e"/><stop offset="0.99" stop-color="#423e9f"/></linearGradient><linearGradient id="Безымянный_градиент_17" x1="67.54" y1="454.93" x2="128.83" y2="440.84" gradientUnits="userSpaceOnUse"><stop offset="0.01" stop-color="#bbc0d9"/><stop offset="1" stop-color="#d6dbf8"/></linearGradient><linearGradient id="Безымянный_градиент_164" x1="364.61" y1="1153.54" x2="414.91" y2="1162.75" gradientTransform="translate(-491.65 -602.52) rotate(-10.18)" gradientUnits="userSpaceOnUse"><stop offset="0" stop-color="#bac6d8"/><stop offset="0.99" stop-color="#d6dbf8"/></linearGradient><linearGradient id="Безымянный_градиент_5-2" x1="64.71" y1="446.57" x2="40.68" y2="422.95" xlink:href="#Безымянный_градиент_5"/><linearGradient id="Безымянный_градиент_5-3" x1="63.71" y1="467.08" x2="36.41" y2="457.57" xlink:href="#Безымянный_градиент_5"/><linearGradient id="Безымянный_градиент_5-4" x1="65.34" y1="446.5" x2="90.6" y2="426.63" xlink:href="#Безымянный_градиент_5"/><linearGradient id="Безымянный_градиент_5-5" x1="68.12" y1="486.41" x2="36.22" y2="482.6" xlink:href="#Безымянный_градиент_5"/><linearGradient id="Безымянный_градиент_18" x1="72.96" y1="393.6" x2="65.07" y2="425.84" gradientUnits="userSpaceOnUse"><stop offset="0.01" stop-color="#3d3c99"/><stop offset="1" stop-color="#1f1844"/></linearGradient><linearGradient id="Безымянный_градиент_33" x1="267.8" y1="3868.71" x2="278.07" y2="3868.71" gradientTransform="translate(-2892.42 -2088.23) rotate(-45.37)" gradientUnits="userSpaceOnUse"><stop offset="0" stop-color="#e0e4eb"/><stop offset="0.99" stop-color="#f3f6fd"/></linearGradient><linearGradient id="Безымянный_градиент_33-2" x1="-880.86" y1="5713.55" x2="-870.29" y2="5713.55" gradientTransform="translate(-5123.5 -2115) rotate(-72.22)" xlink:href="#Безымянный_градиент_33"/><linearGradient id="Безымянный_градиент_33-3" x1="-2997.38" y1="-1951.43" x2="-2987.06" y2="-1951.43" gradientTransform="matrix(0.63, 0.78, -0.78, 0.63, 445.6, 3985.76)" xlink:href="#Безымянный_градиент_33"/><linearGradient id="Безымянный_градиент_17-2" x1="77.87" y1="466.1" x2="88.46" y2="455.23" xlink:href="#Безымянный_градиент_17"/><linearGradient id="Безымянный_градиент_33-4" x1="-3685.62" y1="-2556" x2="-3675.23" y2="-2556" gradientTransform="matrix(0.5, 0.87, -0.77, 0.45, -47.69, 4781.61)" xlink:href="#Безымянный_градиент_33"/><linearGradient id="Безымянный_градиент_33-5" x1="425.43" y1="1396.08" x2="440.82" y2="1396.08" gradientTransform="translate(-674.82 -795.68) rotate(-13.38)" xlink:href="#Безымянный_градиент_33"/><linearGradient id="Безымянный_градиент_33-6" x1="-1649.15" y1="6410.57" x2="-1638.16" y2="6410.57" gradientTransform="matrix(0.04, -0.93, 1, 0.04, -6320.9, -1319.35)" xlink:href="#Безымянный_градиент_33"/><linearGradient id="Безымянный_градиент_17-3" x1="78.13" y1="483.78" x2="88.74" y2="472.01" xlink:href="#Безымянный_градиент_17"/><linearGradient id="Безымянный_градиент_33-7" x1="-4393.77" y1="-3101.63" x2="-4381.74" y2="-3101.63" gradientTransform="matrix(0.35, 0.94, -0.74, 0.28, -695.66, 5441.86)" xlink:href="#Безымянный_градиент_33"/><linearGradient id="Безымянный_градиент_11" x1="74.56" y1="393.14" x2="66.67" y2="425.38" gradientUnits="userSpaceOnUse"><stop offset="0" stop-color="#e6eaf1"/><stop offset="0.99" stop-color="#f3f6fd"/></linearGradient><linearGradient id="Безымянный_градиент_16" x1="44.51" y1="530.49" x2="100.2" y2="517.69" gradientUnits="userSpaceOnUse"><stop offset="0.11" stop-color="#8988d5"/><stop offset="0.56" stop-color="#9d9ce8"/><stop offset="1" stop-color="#a7a5ee"/></linearGradient></defs><title>Black Man and Woman in Coffee Shop B</title><g id="Слой_2" data-name="Слой 2"><path class="cls-1" d="M613.3,343.81C560,237.38,407.51,81.5,209.4,81.1,2.66,80.68-17.34,280.92,94.09,336.57s-51.5,125,65,194.75c117.89,70.55,369.82,63.93,431.84,9S636.33,389.79,613.3,343.81Z"/><path class="cls-2" d="M476.95,532.37a6.28,6.28,0,0,1-6.22-7.18l12.75-104.31,12.28,1.39L483.16,527C482.72,530.07,476.95,532.37,476.95,532.37Z"/><path class="cls-3" d="M584.47,529.9l-15.21-112,10.31-4.11,17.21,114c.71,4.05-2.41,4.79-5.48,5.35S585.19,534,584.47,529.9Z"/><path class="cls-4" d="M544.75,543.32l-13-127.68h12.69l12.93,126.77c.28,3.94-2.72,3.79-5.68,4.23C548.4,547.14,545.07,547.77,544.75,543.32Z"/><path class="cls-5" d="M591.86,400.77C589.17,420.61,560,423.44,526,424.5c-1,.52-38.53.29-56-5.6l.61-134.36c0-11.35,4.85-30.07,21.4-30.34,27.8-.46,79.36-4.7,99.55,1.54,4.61,16.58,8,34.89.29,82.78C587.46,365.93,593.15,391.25,591.86,400.77Z"/><path class="cls-6" d="M584.2,264.08c6.14,18.48,5.39,29.21-2.83,59.11-13.69,49.83,8.78,75.42-38.71,100.55,28.79-1.64,46.9-6.08,49.19-23,1.3-9.52-4.39-34.84,0-62.25,5.67-35.27,16.24-64.09,2.18-81.13C590.15,252.68,582.13,257.83,584.2,264.08Z"/><polygon class="cls-7" points="474.79 502.38 480.09 511.99 491.86 519.62 496.8 518.95 503.46 504.04 499.62 497.23 489.13 487.45 474.79 502.38"/><path class="cls-8" d="M414.69,519c-7.76-2.87-18.15-9-18.15-9s-12.94,14-14.37,15.29c4.79,1.89,2.38,15.71,6.33,17.86s14.43-7.28,19.47-6.12C408.43,532.69,413.33,521.42,414.69,519Z"/><path class="cls-9" d="M353.29,531.07s-9.43-2.08-13-.79-4.53,4-4.8,6.85,2.78,6.94,14.49,11.3a354.39,354.39,0,0,0,36.61,10.86c3.83.77,10.34,1.93,15.87,1.61a7.24,7.24,0,0,0,6.51-5.52,19.79,19.79,0,0,1,1.15-3.34c1-2,.62-4.33,1.19-6s1.94-12.89-1.2-14.56-8.31,8-15.35,7.23-7.82-9.6-7.82-9.6,3.36-3.08,1.55-5.23.26-3.87-1.16-4.72-6.48,2.16-6.48,2.16-16.26,6.68-22.63,9.38C356.94,531.24,353.29,531.07,353.29,531.07Z"/><path class="cls-10" d="M339.69,539.47c20.92,11.93,45.16,12.18,45.16,12.18,6.79,1.58,13.57,6.09,22.29.91l.77-.41"/><path class="cls-9" d="M475.81,506.53s12.07,3.63,14.42,7.55,10.41-8.05,6.86-14.82,1.29-5.66,4.62-2.91,6,.75,8.36,2.74,7.11,6.37,3.62,14.6-11.31,11.78-14.41,18-2,18.75-6.75,23.46-13.81,10.72-24.07,5.69-1.09-18.76,1.29-22.17,2.85-15.11,3-19.92S472.06,508,475.81,506.53Z"/><path class="cls-11" d="M501.42,497.85s6.75,2,4.42,10.3S495,522.71,494.1,531.44s-.8,16.47-9.24,22.79-12.13,5.44-12.13,5.44"/><path class="cls-12" d="M548.12,181.26c1.47-2.67,3.43-10.06,4.37-12.32-3.88-.22-8.29,4.81-8.95,8.23C544.56,177.23,547.2,180.32,548.12,181.26Z"/><path class="cls-13" d="M486.54,361.85c-10.3,1.75-39.79,16.29-47.49,25.9-5.92,7.41-10.26,29.12-20.67,54.61-3-7.57-6.84-21.3-8.75-28.49-2.66-10-5.11-32.35,17.6-38.14C442.27,371.9,475.2,361.11,486.54,361.85Z"/><path class="cls-14" d="M468.59,361.14s-25.35,12-36.8,26c-9,11-17.1,44.42-17.1,44.42"/><path class="cls-15" d="M491,487.31l-20.23,19.87C468.1,505.09,438,460.55,438,460.55l29.72-45.18S494.5,486,491,487.31Z"/><path class="cls-16" d="M555.22,296.47c7,3.12,29.38.14,36.64-1.09,0,0-1-41.72-13.05-54.84s-38.09-10.37-38.09-10.37L514.53,232c-19.78,2.81-30.74,8.22-38.44,20.12-9.13,14.11-14.09,31.3-14.59,35.45a3.76,3.76,0,0,0,.56.7c3.2,3.24,14,5.32,14,5.32S474.78,308,474.5,316c0,.95-.05,1.81-.05,2.54l.74.17,3.69,40.44,92.31,2.58-3.47-40.45S556,303.4,555.22,296.47Z"/><path class="cls-17" d="M476.09,293.58s0,12.59,1.09,21.59c-20.7,9.33-27.67,16.74-27.4,18.26L444.21,326a6.48,6.48,0,0,1,3.7-9.16l8.67-2.52,5.48-26.1C465.26,291.5,476.09,293.58,476.09,293.58Z"/><path class="cls-18" d="M568.06,361.81s10.51,36.71-24.28,48.93C521.29,418.64,479,417,479,417s-62.4,109.72-65,108.64L389,514c-2.23-.92,35-116.21,42.6-125.59,7.74-9.57,19.58-23.23,29.88-25,11.17-1.9,20.13-4.15,20.13-4.15Z"/><path class="cls-19" d="M542.68,197l-.27.32a45.75,45.75,0,0,0-.65,5.79c0,.29,0,.59-.06.9-.21,3.59-.48,8.22-.74,12.72-.37,6.47-.44,12.06-.5,14.22-.16,5.26-6.22,11-17.27,10.71a13.77,13.77,0,0,1-13.3-10.18s-.33-1-.2-5.26l.06-1.88,0-1.74.06-2.13a25.44,25.44,0,0,1-2.94-.37c-7.64-1.43-19.5-6.92-22.73-19.49-2.25-8.78,1.36-16.6,1.68-21.68s-1.56-8.8-2.2-14.54a19.62,19.62,0,0,1-.08-3.34,25.24,25.24,0,0,1,4.31-12.89,8.49,8.49,0,0,1,2.06-2.06c29.25-19.16,56.07-14.18,62.53-1.07,7.13,14.5-2,30.07-5.29,32.81C550.75,180.88,550.43,187.82,542.68,197Z"/><line class="cls-20" x1="555.28" y1="296.1" x2="552.84" y2="282.01"/><line class="cls-20" x1="476.09" y1="293.58" x2="478.27" y2="282.01"/><path class="cls-21" d="M541.69,204a45.18,45.18,0,0,1-32,20.32l.05-1.74.06-2.14a24.78,24.78,0,0,1-2.95-.37c6.95-4,26.32-15.29,35.78-23.1l-.27.32a45.56,45.56,0,0,0-.65,5.79C541.74,203.41,541.71,203.7,541.69,204Z"/><path class="cls-22" d="M540.61,182.76s2.93-3.63,4.71-.66-1.48,7.7-1.48,7.7Z"/><path class="cls-20" d="M507.22,239.68s1.46,9.3,17.4,8.4,20.79-13.33,20.79-13.33"/><path class="cls-23" d="M252.22,538.25a6.3,6.3,0,0,0,6.24-7.2L243.59,420.76l-12.32,1.39L246,532.84C246.43,535.95,252.22,538.25,252.22,538.25Z"/><path class="cls-24" d="M142.24,530.15,157.5,417.76l-10.35-4.13L129.88,528c-.71,4.06,2.41,4.81,5.5,5.37S141.52,534.3,142.24,530.15Z"/><path class="cls-25" d="M182.1,543.62l13-128.12H182.4l-13,127.21c-.28,4,2.73,3.8,5.7,4.25C178.43,547.45,181.77,548.09,182.1,543.62Z"/><path class="cls-26" d="M134.83,400.58c2.69,19.91,32,22.75,66.08,23.81.84.42,26.18.35,45-2.93A13.47,13.47,0,0,0,257,408.15L256.49,284c0-11.38-4.87-30.17-21.48-30.45-27.9-.46-79.63-4.71-99.89,1.55-4.63,16.63-8,35-.29,83.06C139.24,365.62,133.53,391,134.83,400.58Z"/><path class="cls-27" d="M142.51,263.41c-6.16,18.55-5.4,29.31,2.84,59.32,13.74,50-8.81,75.68,38.84,100.9-28.89-1.65-47.07-6.1-49.36-23.05-1.3-9.56,4.41-35,0-62.47-5.69-35.39-16.3-64.32-2.19-81.41C136.55,252,144.59,257.14,142.51,263.41Z"/><path class="cls-28" d="M244.43,526.5c2.44,5.9,6.25,10.47,10,9.23a4.29,4.29,0,0,0,3.29-4.51.33.33,0,0,1,0-.09c.5-1.06,2.31-14.86,3.19-19.14.94-4.49,3.53-11.63,3.61-18.61.07-5.45,39.36-54.3,41.72-60.73-8.54-4-26.68-7.33-31.54-8l-24,61.54-2.54.62s-2.36,2.42-3.13,12.54S242,520.59,244.43,526.5Z"/><path class="cls-29" d="M236,501.74s5.6,9.18,3,17.67-4.21,11.7-1.5,15.85,12.58,13.86,19.7,15,4.8-6.56,3.6-10.09c-.72-2.12-2.08-6.19-3.05-9.09a.33.33,0,0,0,0,.09,4.29,4.29,0,0,1-3.29,4.51c-3.73,1.23-7.54-3.33-10-9.23s-.14-17.07.63-27.19,3.13-12.54,3.13-12.54l.15,0a12.76,12.76,0,0,0-8.45,1.39c-4.9,2.87-6.1,8.56-9,12a131.35,131.35,0,0,0-7.56,10.82l1.51,2.54Z"/><path class="cls-30" d="M231.19,506.79c1,6.31,3.59,11.65,7.51,11.34a4.29,4.29,0,0,0,4.26-3.6.33.33,0,0,1,.06-.07c.73-.91,5.77-13.89,7.64-17.84,2-4.14,6.19-10.46,7.92-17.22,1.36-5.28,35.32-45.19,39.14-50.88-7.67-1-23.69-4.92-28.23-6.78l-22.61,47.35h-2.62s-2.87,1.79-6,11.44S230.21,500.46,231.19,506.79Z"/><path class="cls-31" d="M228.91,480.74s3.26,10.24-1.32,17.87-6.86,10.36-5.22,15,8.93,16.45,15.57,19.29,6.22-5.23,5.89-8.94c-.19-2.23-.55-6.51-.81-9.56a.33.33,0,0,0-.06.07,4.29,4.29,0,0,1-4.26,3.6c-3.92.31-6.54-5-7.51-11.34s3.92-16.62,7.06-26.26,6-11.44,6-11.44h.15a12.76,12.76,0,0,0-8.54-.66c-5.44,1.63-8,6.86-11.55,9.48a131.35,131.35,0,0,0-9.92,8.72l.87,2.83Z"/><path class="cls-32" d="M269.5,361.25c-30.4-5.47-40.87-6-40.87-6l-.39-11.87s18.66-58.61,18.66-64.6c0-8.52-8.9-18.38-14.81-29.81-3.29-6.36-12.57-13.51-19.57-15l-20.14-2.07s-13.55,4.33-17.48,25.45,12.15,63.61,10.72,77.28-14.51,32.65-5.59,50.81c10.26,20.9,54.48,25.07,75,23.15,4.07-.38,17,2.68,13.28,12.64,16.51,6.59,38.51,12.44,39.55,12.85C333.23,388.61,330.33,372.24,269.5,361.25Z"/><path class="cls-33" d="M241,327.06l26.41,24.2,18.06,2.24a5.33,5.33,0,0,1,3.51,1.32c2.69,2.35,6.5,7.06,6.78,7.25s4.19,3.93,6.54,6.24c.59.58-.21,1.41-1,1.21-2.49-.62-6.07-1.89-7.84-4.27-2.87-3.86-5.35-4.7-5.73-4.7s-5.61-1-5.23.5,5.73,2.49,6.11,2.87,6.11,2.22,5,4.48-11.77-2.92-14.2-3.39-7.9-.63-10.39-1.38-30.77-19.83-30.77-19.83Z"/><polygon class="cls-34" points="201.6 255.53 201.99 256.35 233.31 315.9 228.2 315.47 201.6 255.53"/><path class="cls-35" d="M180,271.85s29.89,61.49,41.36,63c3.49,0,10.69-5.15,10.69-5.15a10.58,10.58,0,0,1-11.72,7.39C204.11,335.36,180,271.85,180,271.85Z"/><path class="cls-36" d="M190.08,209.68a41.66,41.66,0,0,0,29.91,18l-.09-1.6-.1-2c-8.58-2.53-18.84-8.47-30.79-20.91l.26.29a42,42,0,0,1,.73,5.33C190,209.12,190.06,209.39,190.08,209.68Z"/><path class="cls-37" d="M241,185.31c-.31-3.44.35-7.1.89-10.91h0c0-.09,0-.17,0-.26.17-1.26.33-2.54.44-3.82a19.31,19.31,0,0,0-.41-6c-2.35-10.64-13.08-18.94-23.26-19.64-12-.82-30.45,3.34-34.14,17.58a32.84,32.84,0,0,0-1,8.21,48.35,48.35,0,0,0,2.25,14.22,5.41,5.41,0,0,0-1.41.95c-1.5,1.34-2.2,3.45-1.76,6.17.47,3.09,2.43,7,6.35,11.39a2.47,2.47,0,0,0,.26.29,24.79,24.79,0,0,1,.53,3.45c.08.66.15,1.32.2,1.88,0,.26,0,.54.08.82.09,1.11.19,2.17.27,3.2,1.41,16.35,2.44,21.73,2.44,21.73.2,3.53,17.88,13.28,27.89,20.26a2.94,2.94,0,0,0,4.54-3.09l-5-20.92-.15-2.22-.18-2.52-.09-2c.26,0,.52,0,.8-.09.59-.07,1.23-.17,1.9-.3,7-1.49,17.83-6.79,20.51-18.47C244.91,197.12,241.41,190,241,185.31Z"/><path class="cls-38" d="M242.37,170.32c-.11,1.29-.27,2.56-.44,3.82-6.27,1.83-19.09.06-29.69,4.16-4.79,1.85-10.05,10.13-15.26,15.81-2.42-7.33-12-21.78-11.18-25.15,3.87-15.23,30.05,9.08,53.7-7a10.16,10.16,0,0,1,2.46,2.43A19.31,19.31,0,0,1,242.37,170.32Z"/><path class="cls-39" d="M219.9,226.11l.18,2.51c-9.07-1.08-19.94-4.82-29.74-15.75-.09-1-.17-2.09-.27-3.2,0-.28-.06-.56-.08-.83,0-.55-.12-1.21-.2-1.88,12,9.68,22.19,14.74,30.81,17.06-.28,0-.55.08-.81.09Z"/><path class="cls-40" d="M190.6,190.06s-2.78-3.28-4.36-.51,1.54,7.07,1.54,7.07Z"/><path class="cls-41" d="M229.15,135.68c-11.13,5.23-8.45-7.74-18.33-2.37-6.52,3.55-9.7,1.77-15.85,1.89s-13.28,5.54-14.94,12.18c-.93,3.71-1.68,1.85-5.08,5.29-1.31,1.32-5.73,3.15-5.38,8.25s-4.51,1.63-6.09,11.81c-.24,1.56.88,3.23.39,5.88A15.71,15.71,0,0,0,167,190.91c7.9,10.35,12.89,8.83,23.77,26.62a113.88,113.88,0,0,0-1.32-13.73c-5.6-8.79-7.77-10.67-6.19-15.36,3.08-9.15,13.72,5.68,13.72,5.68s.71-9.46,14.58-18.76c-7.27-.54-12.22-.54-12.22-.54s20.37-6.36,22.08-5.93c11.89,3,15.86,2.55,22.16-.08,4.16-1.73-2.81-10.87,0-12.06,3.88-1.64,0-7.16,0-9.86C243.58,137.58,233.4,133.69,229.15,135.68Z"/><path class="cls-42" d="M198.21,247.07l30,68.4,49.34,11.59v9.86s-42.87,1.5-56.08,0-43.19-69.41-43.19-69.41"/><path class="cls-43" d="M277.54,327.06s18.79.55,23.76,9.86H277.54Z"/><path class="cls-44" d="M473.78,312s9.4-.77,9.4,7.1-9.4,8-9.4,8"/><path class="cls-45" d="M474.88,337.39H451.5l-3.28-28.55a3.11,3.11,0,0,1,3.21-3.3h22.43a3.11,3.11,0,0,1,3.22,3.21Z"/><line class="cls-46" x1="300.06" y1="351.79" x2="258.7" y2="546.99"/><line class="cls-47" x1="418.87" y1="351.79" x2="452.3" y2="547.3"/><path class="cls-48" d="M176.94,336.92H541.63a10.86,10.86,0,0,1,10.86,10.86v9.27a0,0,0,0,1,0,0H166.08a0,0,0,0,1,0,0v-9.27A10.86,10.86,0,0,1,176.94,336.92Z"/><path class="cls-44" d="M298.18,312s-9.4-.77-9.4,7.1,9.4,8,9.4,8"/><path class="cls-49" d="M297.08,337.39h23.39l3.28-28.55a3.11,3.11,0,0,0-3.21-3.3H298.1a3.11,3.11,0,0,0-3.22,3.21Z"/><path class="cls-50" d="M590.15,295.69c-6.42,1-28,3.88-34.93.78.73,6.93.8,15.51.8,15.51s-28.64,10.94-54.46,12.79a62,62,0,0,1-7.37-1.29s-6.58-1.62-12.46-2.89-10-1.5-14.08-.23-20,10.16-19.73,14,23.43,3.92,26.77,3.23,18.46-2.54,19.5-2.54c.27,0,3.34.57,8,1.4,9.48,0,33.22.8,51.89.49s28.28,3.39,33.2-7.73C591,320.64,590.06,304.51,590.15,295.69Z"/><path class="cls-51" d="M540.61,158.71l-2,13.81-1.85-11.17s-8.16-4.85-14.54-3.2-22.47-1.42-29.93-3.43c-4.4-1.19-7.19,2.83-8.73,6.31a25.24,25.24,0,0,1,4.31-12.89c7.45,1.73,14.9,5.46,16.52,6,2.8,1,9.42-12.62,14.87-17.55s10.06,7.69,10.06,7.69Z"/><path class="cls-52" d="M553.16,167.82c.83-3.55,2.28-7.61,2.09-13-.41-11.57-8.37-17.5-19.62-21.83l-10.86-3.43c-1-.31-19.36-5.26-29-1.83-3.62,1.29-8.79,5.12-9.34,8.23-1.39,7.94-2.37,12.15-1.71,18.52,6.93-15.48,15.31,8.15,38.49-1.63,1.14-.48,6.09-9.44-2.37-12.63,12,1.89,4.73,13.9,4.73,13.9l13.72,4s1,7-1.3,18a18.78,18.78,0,0,1,8.29-.62C549.16,173.06,552.72,169.68,553.16,167.82Z"/><path class="cls-53" d="M66,505.43s22.54-26.65,20.15-37.16S97.77,445,98,429.71c.31-17.33-8.41-12.7-11.42-20.11-4.47-11,5.48-20.71-9.57-24.91-10.27-2.87-17.5,2.73-16.56-10.77S56.83,343.7,48.6,337.63C36.84,329,12.92,328.29,21,345.76c8.47,18.36,1,48.59-1,56.87C-.85,490.13,66,505.43,66,505.43Z"/><path class="cls-54" d="M40.88,355.64c2.58,22.59,29.25,58.69,17.16,82.82s6.23,61.47,6.23,61.47"/><path class="cls-55" d="M119.74,465.85c-12.66,4.75,1,22.14-12.79,30s-31.58,11.8-32.4,8c-.06-.25-.8-2.77-1.59-6.46-.18-.85-.36-1.77-.54-2.74,0-.27-.09-.54-.14-.82a78.83,78.83,0,0,1-1-8.9c0-.09,0-.18,0-.28-.06-1.19-.09-2.38-.06-3.57s.08-2.28.19-3.4c.41-4.23,1.55-8.13,3.88-10.93a11.27,11.27,0,0,1,2-1.92c9.62-7.11,13.46-3.66,13.38-14.16-.13-18,4.7-20.69,10.38-18.91S111.12,434,112,427.37s-11.58-36.25,1.32-36.25c9.4,0,18.33,30.37,16.07,35.28-5.41,11.78,5.84,13.63,8.52,22.21S132.39,461.1,119.74,465.85Z"/><path class="cls-56" d="M72.07,529.7s-3.4-33.13,20.37-51.7c10.74-8.39,30.7-38.34,28.89-70.73"/><path class="cls-57" d="M40.65,422.23c3.42-6.15,28,19.22,23.67,24.79S37.4,428.09,40.65,422.23Z"/><path class="cls-58" d="M34.46,456.83c.49-7.16,30.13,3.13,28.61,10.21S34,463.66,34.46,456.83Z"/><path class="cls-59" d="M90.4,425.21c5.25,4.37-20.67,28.08-25.29,22.82S85.4,421,90.4,425.21Z"/><path class="cls-60" d="M36.42,482.58c-1.3-6.57,31.38-2.79,31.65,4S37.66,488.84,36.42,482.58Z"/><path class="cls-61" d="M73.18,392.64c6.6.51-1.94,35.81-8.46,34.18S66.9,392.16,73.18,392.64Z"/><path class="cls-62" d="M43.13,420.55c3.42-6.15,28,19.22,23.67,24.79S39.87,426.41,43.13,420.55Z"/><path class="cls-63" d="M36.43,455.36c.49-7.16,30.13,3.13,28.61,10.21S36,462.19,36.43,455.36Z"/><path class="cls-64" d="M91.4,423.64c5.25,4.37-20.67,28.08-25.29,22.82S86.4,419.48,91.4,423.64Z"/><path class="cls-65" d="M78.9,467.27c.46-4.81,1.72-9.24,4.31-12.42,3.13-.66,5.76-.53,6.91.84C92.57,458.64,85.93,464.06,78.9,467.27Z"/><path class="cls-66" d="M88.92,454c4.41,5.3-20.61,18.62-24.37,12.61S84.72,448.91,88.92,454Z"/><path class="cls-67" d="M66.49,418.49s.75,18.34-1.53,34.34,3.48,43.09,12.87,51.74"/><path class="cls-68" d="M36.42,481.33c-1.3-6.57,31.38-2.79,31.65,4S37.66,487.59,36.42,481.33Z"/><path class="cls-69" d="M80.09,486.54c0-.3-.1-.62-.16-.93a91.51,91.51,0,0,1-1.16-10.11c0-.1,0-.21,0-.31,5.34-3.13,11-4.72,12.53-2C93.19,476.59,86.67,482.86,80.09,486.54Z"/><path class="cls-70" d="M90.09,470.58c3.38,6.09-20,21.27-22.74,14.64S86.87,464.78,90.09,470.58Z"/><path class="cls-71" d="M74.78,392.18c6.6.51-1.94,35.81-8.46,34.18S68.5,391.69,74.78,392.18Z"/><path class="cls-72" d="M80.44,553.21H60.13C51,553.21,43.24,546,42,536.38L37,505a4.4,4.4,0,0,1,4.18-5.08H99.41A4.4,4.4,0,0,1,103.6,505l-5,31.37C97.34,546,89.59,553.21,80.44,553.21Z"/></g></svg>
