<svg xmlns="http://www.w3.org/2000/svg" xmlns:xlink="http://www.w3.org/1999/xlink" viewBox="0 0 650 650"><defs><style>.cls-1{fill:url(#Безымянный_градиент_263);}.cls-2{fill:url(#Безымянный_градиент_170);}.cls-3{fill:#fff;}.cls-4{fill:#e9ecf5;}.cls-14,.cls-44,.cls-5,.cls-6,.cls-9{fill:none;}.cls-44,.cls-5,.cls-6{stroke-linecap:round;}.cls-13,.cls-14,.cls-44,.cls-5,.cls-6,.cls-9{stroke-miterlimit:10;}.cls-5,.cls-6{stroke-width:10.58px;}.cls-5{stroke:url(#Безымянный_градиент_263-2);}.cls-6{stroke:url(#Безымянный_градиент_263-3);}.cls-7{fill:url(#Безымянный_градиент_35);}.cls-8{fill:#bcc0da;}.cls-13,.cls-14,.cls-9{stroke:#fff;}.cls-9{stroke-width:1.87px;}.cls-10{fill:#aeb1c9;}.cls-11{fill:#dee0ed;}.cls-12{fill:url(#Безымянный_градиент_6);}.cls-13{stroke-width:0.8px;fill:url(#Безымянный_градиент_35-2);}.cls-14{stroke-width:1.71px;}.cls-15{fill:url(#Безымянный_градиент_123);}.cls-16{fill:url(#Безымянный_градиент_123-2);}.cls-17{fill:url(#Безымянный_градиент_123-3);}.cls-18{fill:url(#Безымянный_градиент_123-4);}.cls-19{fill:url(#Безымянный_градиент_122);}.cls-20{fill:#1f1844;}.cls-21{fill:url(#Безымянный_градиент_48);}.cls-22{fill:url(#Безымянный_градиент_123-5);}.cls-23{fill:url(#Безымянный_градиент_123-6);}.cls-24{fill:#201f4f;}.cls-25{fill:url(#Безымянный_градиент_123-7);}.cls-26{fill:url(#Безымянный_градиент_48-2);}.cls-27{fill:url(#Безымянный_градиент_123-8);}.cls-28{fill:url(#Безымянный_градиент_48-3);}.cls-29{fill:url(#Безымянный_градиент_97);}.cls-30{fill:url(#Безымянный_градиент_123-9);}.cls-31{fill:url(#Безымянный_градиент_123-10);}.cls-32{fill:url(#Безымянный_градиент_9);}.cls-33{fill:url(#Безымянный_градиент_123-11);}.cls-34{fill:url(#Безымянный_градиент_139);}.cls-35{fill:url(#Безымянный_градиент_3);}.cls-36{fill:#d5527e;}.cls-37{fill:url(#Безымянный_градиент_250);}.cls-38{fill:url(#Безымянный_градиент_250-2);}.cls-39{fill:url(#Безымянный_градиент_48-4);}.cls-40{fill:url(#Безымянный_градиент_123-12);}.cls-41{fill:url(#Безымянный_градиент_48-5);}.cls-42{fill:url(#Безымянный_градиент_157);}.cls-43{fill:url(#Безымянный_градиент_29);}.cls-44{stroke:#201f4f;stroke-width:4.66px;}.cls-45{fill:url(#Безымянный_градиент_29-2);}.cls-46{fill:url(#Безымянный_градиент_29-3);}.cls-47{fill:url(#Безымянный_градиент_29-4);}.cls-48{fill:url(#Безымянный_градиент_29-5);}.cls-49{fill:url(#Безымянный_градиент_29-6);}.cls-50{fill:url(#Безымянный_градиент_29-7);}.cls-51{fill:url(#Безымянный_градиент_29-8);}.cls-52{fill:url(#Безымянный_градиент_29-9);}.cls-53{fill:url(#Безымянный_градиент_29-10);}.cls-54{fill:url(#Безымянный_градиент_29-11);}.cls-55{fill:url(#Безымянный_градиент_29-12);}.cls-56{fill:url(#Безымянный_градиент_29-13);}.cls-57{fill:url(#Безымянный_градиент_29-14);}.cls-58{fill:url(#Безымянный_градиент_29-15);}.cls-59{fill:url(#Безымянный_градиент_29-16);}.cls-60{fill:url(#Безымянный_градиент_29-17);}.cls-61{fill:url(#Безымянный_градиент_29-18);}.cls-62{fill:url(#Безымянный_градиент_29-19);}.cls-63{fill:url(#Безымянный_градиент_123-13);}.cls-64{fill:url(#Безымянный_градиент_123-14);}.cls-65{fill:url(#Безымянный_градиент_123-15);}.cls-66{fill:url(#Безымянный_градиент_16);}.cls-67{fill:url(#Безымянный_градиент_250-3);}.cls-68{fill:url(#Безымянный_градиент_250-4);}.cls-69{fill:url(#Безымянный_градиент_123-16);}.cls-70{fill:url(#Безымянный_градиент_123-17);}.cls-71{fill:url(#Безымянный_градиент_250-5);}.cls-72{fill:url(#Безымянный_градиент_250-6);}.cls-73{fill:url(#Безымянный_градиент_123-18);}.cls-74{fill:url(#Безымянный_градиент_250-7);}.cls-75{fill:url(#Безымянный_градиент_123-19);}.cls-76{fill:url(#Безымянный_градиент_29-20);}</style><linearGradient id="Безымянный_градиент_263" x1="49.71" y1="337.78" x2="633.51" y2="337.78" gradientUnits="userSpaceOnUse"><stop offset="0" stop-color="#f0f2f5"/><stop offset="0.99" stop-color="#f5f7f8"/></linearGradient><linearGradient id="Безымянный_градиент_170" x1="26.96" y1="270.84" x2="430.26" y2="270.84" gradientUnits="userSpaceOnUse"><stop offset="0.01" stop-color="#bbbfd9"/><stop offset="1" stop-color="#d6dbf8"/></linearGradient><linearGradient id="Безымянный_градиент_263-2" x1="292.44" y1="307.05" x2="404.2" y2="307.05" xlink:href="#Безымянный_градиент_263"/><linearGradient id="Безымянный_градиент_263-3" x1="292.44" y1="346.8" x2="404.2" y2="346.8" xlink:href="#Безымянный_градиент_263"/><linearGradient id="Безымянный_градиент_35" x1="478.26" y1="544.64" x2="580.92" y2="544.64" gradientUnits="userSpaceOnUse"><stop offset="0.01" stop-color="#bbbfd9"/><stop offset="0.69" stop-color="#cacee2"/><stop offset="1" stop-color="#d3d6e7"/></linearGradient><linearGradient id="Безымянный_градиент_6" x1="26.96" y1="522.34" x2="381.1" y2="522.34" gradientUnits="userSpaceOnUse"><stop offset="0" stop-color="#d3d6e7"/><stop offset="0.31" stop-color="#cacee2"/><stop offset="0.99" stop-color="#bbbfd9"/></linearGradient><linearGradient id="Безымянный_градиент_35-2" x1="40.15" y1="520.89" x2="367.91" y2="520.89" xlink:href="#Безымянный_градиент_35"/><linearGradient id="Безымянный_градиент_123" x1="-74.2" y1="1340.23" x2="-90.48" y2="1311.63" gradientTransform="translate(1502.12 -208.7) rotate(49.23)" gradientUnits="userSpaceOnUse"><stop offset="0" stop-color="#753200"/><stop offset="1" stop-color="#a04400"/></linearGradient><linearGradient id="Безымянный_градиент_123-2" x1="-6.92" y1="1383.44" x2="-23.2" y2="1354.85" gradientTransform="matrix(0.59, 0.81, -0.81, 0.59, 1616.09, -192.7)" xlink:href="#Безымянный_градиент_123"/><linearGradient id="Безымянный_градиент_123-3" x1="-91.29" y1="709.2" x2="-84.79" y2="709.2" gradientTransform="translate(783.09 -489.42) rotate(14.6)" xlink:href="#Безымянный_градиент_123"/><linearGradient id="Безымянный_градиент_123-4" x1="-160.42" y1="761.38" x2="-111.9" y2="733.65" gradientTransform="translate(783.09 -489.42) rotate(14.6)" xlink:href="#Безымянный_градиент_123"/><linearGradient id="Безымянный_градиент_122" x1="-127.8" y1="708.93" x2="-99.28" y2="690.5" gradientTransform="translate(783.09 -489.42) rotate(14.6)" gradientUnits="userSpaceOnUse"><stop offset="0" stop-color="#a04400" stop-opacity="0"/><stop offset="0.18" stop-color="#9a4100" stop-opacity="0.14"/><stop offset="0.52" stop-color="#8a3b00" stop-opacity="0.52"/><stop offset="0.9" stop-color="#753200"/></linearGradient><linearGradient id="Безымянный_градиент_48" x1="-88.59" y1="734.91" x2="-116.02" y2="761.83" gradientTransform="translate(783.09 -489.42) rotate(14.6)" gradientUnits="userSpaceOnUse"><stop offset="0" stop-color="#a04400"/><stop offset="1" stop-color="#753200"/></linearGradient><linearGradient id="Безымянный_градиент_123-5" x1="-88.14" y1="717.55" x2="-91.37" y2="720.71" gradientTransform="translate(783.09 -489.42) rotate(14.6)" xlink:href="#Безымянный_градиент_123"/><linearGradient id="Безымянный_градиент_123-6" x1="86.89" y1="585.38" x2="113.85" y2="585.38" gradientTransform="matrix(1, 0, 0, 1, 0, 0)" xlink:href="#Безымянный_градиент_123"/><linearGradient id="Безымянный_градиент_123-7" x1="123.79" y1="592.68" x2="163.02" y2="592.68" gradientTransform="matrix(1, 0, 0, 1, 0, 0)" xlink:href="#Безымянный_градиент_123"/><linearGradient id="Безымянный_градиент_48-2" x1="-1184.12" y1="609.97" x2="-1208.96" y2="634.36" gradientTransform="translate(1621.17 -128.82) rotate(12.28)" xlink:href="#Безымянный_градиент_48"/><linearGradient id="Безымянный_градиент_123-8" x1="945.36" y1="234.21" x2="875.34" y2="218.61" gradientTransform="matrix(-1, 0, 0, 1, 1226.04, 0)" xlink:href="#Безымянный_градиент_123"/><linearGradient id="Безымянный_градиент_48-3" x1="887.18" y1="214.83" x2="916.42" y2="231.07" gradientTransform="matrix(-1, 0, 0, 1, 1226.04, 0)" xlink:href="#Безымянный_градиент_48"/><linearGradient id="Безымянный_градиент_97" x1="-1184.17" y1="592.62" x2="-1190.9" y2="599.22" gradientTransform="translate(1621.17 -128.82) rotate(12.28)" xlink:href="#Безымянный_градиент_123"/><linearGradient id="Безымянный_градиент_123-9" x1="875.63" y1="614.89" x2="872.6" y2="572.86" gradientTransform="matrix(-1, 0, 0, 1, 1226.04, 0)" xlink:href="#Безымянный_градиент_123"/><linearGradient id="Безымянный_градиент_123-10" x1="931.78" y1="570.84" x2="938.84" y2="616.9" gradientTransform="matrix(-1, 0, 0, 1, 1226.04, 0)" xlink:href="#Безымянный_градиент_123"/><linearGradient id="Безымянный_градиент_9" x1="831.17" y1="455.36" x2="966.36" y2="455.36" gradientTransform="matrix(-1, 0, 0, 1, 1226.04, 0)" gradientUnits="userSpaceOnUse"><stop offset="0.05" stop-color="#f7e5e3"/><stop offset="1" stop-color="#f7d6d2"/></linearGradient><linearGradient id="Безымянный_градиент_123-11" x1="850.57" y1="372.64" x2="871.42" y2="372.64" gradientTransform="matrix(-1, 0, 0, 1, 1226.04, 0)" xlink:href="#Безымянный_градиент_123"/><linearGradient id="Безымянный_градиент_139" x1="884.1" y1="266.71" x2="926.29" y2="266.71" gradientTransform="matrix(-1, 0, 0, 1, 1226.04, 0)" gradientUnits="userSpaceOnUse"><stop offset="0" stop-color="#201f4f"/><stop offset="0.26" stop-color="#27275a"/><stop offset="0.72" stop-color="#393c76"/><stop offset="1" stop-color="#464b8b"/></linearGradient><linearGradient id="Безымянный_градиент_3" x1="90.55" y1="473.86" x2="191.6" y2="473.86" gradientUnits="userSpaceOnUse"><stop offset="0.09" stop-color="#d9d9d9"/><stop offset="0.12" stop-color="#d6d6d6"/><stop offset="0.7" stop-color="#aeaeae"/><stop offset="1" stop-color="#9f9f9f"/></linearGradient><linearGradient id="Безымянный_градиент_250" x1="1473.66" y1="610.65" x2="1508.98" y2="610.65" gradientTransform="matrix(-1, 0, 0, 1, 1983.82, 0)" gradientUnits="userSpaceOnUse"><stop offset="0" stop-color="#a7a5ee"/><stop offset="0.44" stop-color="#9d9ce8"/><stop offset="0.89" stop-color="#8988d5"/></linearGradient><linearGradient id="Безымянный_градиент_250-2" x1="1526.05" y1="604.98" x2="1590.84" y2="604.98" xlink:href="#Безымянный_градиент_250"/><linearGradient id="Безымянный_градиент_48-4" x1="-397.73" y1="442.86" x2="-422.7" y2="467.38" gradientTransform="matrix(-0.98, 0.21, 0.21, 0.98, -372.11, -128.82)" xlink:href="#Безымянный_градиент_48"/><linearGradient id="Безымянный_градиент_123-12" x1="137.23" y1="227.97" x2="78.47" y2="214.88" gradientTransform="translate(23.01)" xlink:href="#Безымянный_градиент_123"/><linearGradient id="Безымянный_градиент_48-5" x1="83.21" y1="218.77" x2="112.61" y2="235.11" gradientTransform="translate(23.01)" xlink:href="#Безымянный_градиент_48"/><linearGradient id="Безымянный_градиент_157" x1="-397.78" y1="425.42" x2="-404.45" y2="431.96" gradientTransform="matrix(-0.98, 0.21, 0.21, 0.98, -372.11, -128.82)" gradientUnits="userSpaceOnUse"><stop offset="0" stop-color="#a96e46"/><stop offset="1" stop-color="#ffd0b9"/></linearGradient><linearGradient id="Безымянный_градиент_29" x1="60.5" y1="196.82" x2="126.22" y2="166.4" gradientTransform="translate(23.01)" gradientUnits="userSpaceOnUse"><stop offset="0.28" stop-color="#201f4f"/><stop offset="1" stop-color="#201f4f"/></linearGradient><linearGradient id="Безымянный_градиент_29-2" x1="116.6" y1="169.55" x2="123.44" y2="132.11" gradientTransform="matrix(1, 0, 0, 1, 0, 0)" xlink:href="#Безымянный_градиент_29"/><linearGradient id="Безымянный_градиент_29-3" x1="97.97" y1="165.32" x2="108.01" y2="165.32" gradientTransform="matrix(1, 0, 0, 1, 0, 0)" xlink:href="#Безымянный_градиент_29"/><linearGradient id="Безымянный_градиент_29-4" x1="99.15" y1="174.35" x2="109.19" y2="174.35" gradientTransform="matrix(1, 0, 0, 1, 0, 0)" xlink:href="#Безымянный_градиент_29"/><linearGradient id="Безымянный_градиент_29-5" x1="99.76" y1="183.1" x2="109.8" y2="183.1" gradientTransform="matrix(1, 0, 0, 1, 0, 0)" xlink:href="#Безымянный_градиент_29"/><linearGradient id="Безымянный_градиент_29-6" x1="102.02" y1="191.5" x2="112.06" y2="191.5" gradientTransform="matrix(1, 0, 0, 1, 0, 0)" xlink:href="#Безымянный_градиент_29"/><linearGradient id="Безымянный_градиент_29-7" x1="135.14" y1="153.79" x2="144.02" y2="153.79" gradientTransform="matrix(1, 0, 0, 1, 0, 0)" xlink:href="#Безымянный_градиент_29"/><linearGradient id="Безымянный_градиент_29-8" x1="135.96" y1="147.27" x2="144.85" y2="147.27" gradientTransform="matrix(1, 0, 0, 1, 0, 0)" xlink:href="#Безымянный_градиент_29"/><linearGradient id="Безымянный_градиент_29-9" x1="135.96" y1="140.6" x2="144.85" y2="140.6" gradientTransform="matrix(1, 0, 0, 1, 0, 0)" xlink:href="#Безымянный_градиент_29"/><linearGradient id="Безымянный_градиент_29-10" x1="131.52" y1="135.4" x2="140.4" y2="135.4" gradientTransform="matrix(1, 0, 0, 1, 0, 0)" xlink:href="#Безымянный_градиент_29"/><linearGradient id="Безымянный_градиент_29-11" x1="126.13" y1="130.95" x2="135.02" y2="130.95" gradientTransform="matrix(1, 0, 0, 1, 0, 0)" xlink:href="#Безымянный_градиент_29"/><linearGradient id="Безымянный_градиент_29-12" x1="117.92" y1="129.1" x2="126.81" y2="129.1" gradientTransform="matrix(1, 0, 0, 1, 0, 0)" xlink:href="#Безымянный_градиент_29"/><linearGradient id="Безымянный_градиент_29-13" x1="111.25" y1="129.1" x2="120.14" y2="129.1" gradientTransform="matrix(1, 0, 0, 1, 0, 0)" xlink:href="#Безымянный_градиент_29"/><linearGradient id="Безымянный_градиент_29-14" x1="105.56" y1="131.71" x2="114.45" y2="131.71" gradientTransform="matrix(1, 0, 0, 1, 0, 0)" xlink:href="#Безымянный_градиент_29"/><linearGradient id="Безымянный_градиент_29-15" x1="99.73" y1="134.39" x2="108.62" y2="134.39" gradientTransform="matrix(1, 0, 0, 1, 0, 0)" xlink:href="#Безымянный_градиент_29"/><linearGradient id="Безымянный_градиент_29-16" x1="97.97" y1="161.1" x2="106.86" y2="161.1" gradientTransform="matrix(1, 0, 0, 1, 0, 0)" xlink:href="#Безымянный_градиент_29"/><linearGradient id="Безымянный_градиент_29-17" x1="95.08" y1="154.69" x2="103.97" y2="154.69" gradientTransform="matrix(1, 0, 0, 1, 0, 0)" xlink:href="#Безымянный_градиент_29"/><linearGradient id="Безымянный_градиент_29-18" x1="94.26" y1="147.27" x2="103.14" y2="147.27" gradientTransform="matrix(1, 0, 0, 1, 0, 0)" xlink:href="#Безымянный_градиент_29"/><linearGradient id="Безымянный_градиент_29-19" x1="96.04" y1="140.6" x2="104.93" y2="140.6" gradientTransform="matrix(1, 0, 0, 1, 0, 0)" xlink:href="#Безымянный_градиент_29"/><linearGradient id="Безымянный_градиент_123-13" x1="146.15" y1="315.81" x2="178.23" y2="315.81" gradientTransform="matrix(1, 0, 0, 1, 0, 0)" xlink:href="#Безымянный_градиент_123"/><linearGradient id="Безымянный_градиент_123-14" x1="86.06" y1="298.92" x2="141.79" y2="298.92" gradientTransform="matrix(1, 0, 0, 1, 0, 0)" xlink:href="#Безымянный_градиент_123"/><linearGradient id="Безымянный_градиент_123-15" x1="124.69" y1="307.9" x2="190.35" y2="307.9" gradientTransform="matrix(1, 0, 0, 1, 0, 0)" xlink:href="#Безымянный_градиент_123"/><linearGradient id="Безымянный_градиент_16" x1="500.43" y1="215.98" x2="519.45" y2="215.98" gradientUnits="userSpaceOnUse"><stop offset="0.11" stop-color="#8988d5"/><stop offset="0.56" stop-color="#9d9ce8"/><stop offset="1" stop-color="#a7a5ee"/></linearGradient><linearGradient id="Безымянный_градиент_250-3" x1="422.63" y1="275.99" x2="496.5" y2="275.99" gradientTransform="matrix(1, 0, 0, 1, 0, 0)" xlink:href="#Безымянный_градиент_250"/><linearGradient id="Безымянный_градиент_250-4" x1="447.41" y1="307.66" x2="548.72" y2="307.66" gradientTransform="matrix(1, 0, 0, 1, 0, 0)" xlink:href="#Безымянный_градиент_250"/><linearGradient id="Безымянный_градиент_123-16" x1="458.35" y1="237.75" x2="485.81" y2="237.75" gradientTransform="matrix(1, 0, 0, 1, 0, 0)" xlink:href="#Безымянный_градиент_123"/><linearGradient id="Безымянный_градиент_123-17" x1="479.53" y1="310.8" x2="497.49" y2="310.8" gradientTransform="matrix(1, 0, 0, 1, 0, 0)" xlink:href="#Безымянный_градиент_123"/><linearGradient id="Безымянный_градиент_250-5" x1="449.4" y1="294.65" x2="478.85" y2="294.65" gradientTransform="matrix(1, 0, 0, 1, 0, 0)" xlink:href="#Безымянный_градиент_250"/><linearGradient id="Безымянный_градиент_250-6" x1="470.9" y1="269.35" x2="548.93" y2="269.35" gradientTransform="matrix(1, 0, 0, 1, 0, 0)" xlink:href="#Безымянный_градиент_250"/><linearGradient id="Безымянный_градиент_123-18" x1="501.15" y1="280.58" x2="516.4" y2="280.58" gradientTransform="matrix(1, 0, 0, 1, 0, 0)" xlink:href="#Безымянный_градиент_123"/><linearGradient id="Безымянный_градиент_250-7" x1="483.35" y1="266.08" x2="502.39" y2="266.08" gradientTransform="matrix(1, 0, 0, 1, 0, 0)" xlink:href="#Безымянный_градиент_250"/><linearGradient id="Безымянный_градиент_123-19" x1="191.46" y1="278.61" x2="251.96" y2="278.61" gradientTransform="matrix(1, 0, 0, 1, 0, 0)" xlink:href="#Безымянный_градиент_123"/><linearGradient id="Безымянный_градиент_29-20" x1="161.8" y1="307.24" x2="229.43" y2="307.24" gradientTransform="translate(200.79 -177.74) rotate(14.29)" xlink:href="#Безымянный_градиент_29"/></defs><title>Group of Black Millennials at Office</title><g id="_01" data-name="01"><path class="cls-1" d="M613.57,349.41C562.3,244.61,415.67,91.1,225.15,90.71,26.33,90.29,7.1,287.49,114.26,342.29S64.73,465.42,176.74,534.07C290.11,603.55,532.4,597,592,543S635.72,394.69,613.57,349.41Z"/><rect class="cls-2" x="26.96" y="136.8" width="403.3" height="268.07" rx="14.41" ry="14.41"/><rect class="cls-3" x="38.43" y="148.3" width="380.36" height="245.06" rx="8.6" ry="8.6"/><rect class="cls-4" x="89.46" y="173.8" width="180.97" height="96.43" rx="8.99" ry="8.99"/><rect class="cls-4" x="89.46" y="295.95" width="180.97" height="26.26" rx="13.13" ry="13.13"/><rect class="cls-4" x="89.46" y="333.66" width="180.97" height="26.26" rx="13.13" ry="13.13"/><path class="cls-4" d="M338.11,164.87h-.23a48.08,48.08,0,0,0-48.07,47.78h48.3Z"/><path class="cls-4" d="M297.74,221.92c0,.1,0,.2,0,.31a48.08,48.08,0,0,0,48.08,48.08H346V221.92Z"/><path class="cls-4" d="M346,174.15v47.77h47.84A48.07,48.07,0,0,0,346,174.15Z"/><path class="cls-4" d="M346,221.92V270.3a48.08,48.08,0,0,0,47.85-48.08c0-.1,0-.2,0-.31Z"/><line class="cls-5" x1="297.73" y1="307.05" x2="398.92" y2="307.05"/><line class="cls-6" x1="297.73" y1="346.8" x2="398.92" y2="346.8"/><path class="cls-7" d="M483.62,472.91h97.3a0,0,0,0,1,0,0V616.38a0,0,0,0,1,0,0H485.66a7.4,7.4,0,0,1-7.4-7.4V478.27A5.36,5.36,0,0,1,483.62,472.91Z"/><path class="cls-8" d="M580.92,472.91h24a14.25,14.25,0,0,1,14.25,14.25V609a7.4,7.4,0,0,1-7.4,7.4H580.92a0,0,0,0,1,0,0V472.91A0,0,0,0,1,580.92,472.91Z"/><line class="cls-9" x1="478.26" y1="519.46" x2="580.92" y2="519.46"/><line class="cls-9" x1="478.26" y1="568.87" x2="580.92" y2="568.87"/><rect class="cls-3" x="510.78" y="491.88" width="32.52" height="10.52" rx="5.26" ry="5.26"/><rect class="cls-3" x="510.78" y="539.38" width="32.52" height="10.52" rx="5.26" ry="5.26"/><rect class="cls-3" x="510.78" y="587.05" width="32.52" height="10.52" rx="5.26" ry="5.26"/><path class="cls-10" d="M497.39,423.18H590.8a0,0,0,0,1,0,0v49.74a0,0,0,0,1,0,0H491a0,0,0,0,1,0,0V429.55A6.38,6.38,0,0,1,497.39,423.18Z"/><path class="cls-8" d="M590.8,423.18h2.55a9.25,9.25,0,0,1,9.25,9.25v31.24a9.25,9.25,0,0,1-9.25,9.25H590.8a0,0,0,0,1,0,0V423.18A0,0,0,0,1,590.8,423.18Z"/><path class="cls-11" d="M499.3,423.18h79.07a0,0,0,0,1,0,0v6.22a10,10,0,0,1-10,10h-59a10,10,0,0,1-10-10v-6.22A0,0,0,0,1,499.3,423.18Z"/><path class="cls-3" d="M527,423.18s-2.23-19.77,10.2-25.19h47.82s-12.91,10.51-12.12,25.19Z"/><rect class="cls-11" x="499.3" y="459.52" width="79.07" height="6.06" rx="3.03" ry="3.03"/><path class="cls-10" d="M585.06,423.18l-1.27-3.89a6.4,6.4,0,0,0-6.09-4.42h-3.78l-1,8.31Z"/><rect class="cls-12" x="26.96" y="430.96" width="354.14" height="182.75" rx="6.73" ry="6.73"/><rect class="cls-13" x="40.15" y="442.58" width="327.76" height="156.62" rx="9.24" ry="9.24"/><line class="cls-14" x1="143.41" y1="442.58" x2="143.41" y2="598.18"/><line class="cls-14" x1="258.88" y1="442.58" x2="258.88" y2="598.18"/><polygon class="cls-15" points="436.26 580.82 431.49 593.7 433.32 607 436.89 610.17 451.87 605.67 455.56 599.98 451.72 579.81 436.26 580.82"/><polygon class="cls-16" points="491.09 582.48 486.17 591.6 484.2 606.51 489.2 611.77 504.51 608.58 508.67 603.22 506.58 582.8 491.09 582.48"/><path class="cls-17" d="M519,180.66c1.47-2.31,3.66-8.82,4.63-10.79-3.47-.42-7.71,3.83-8.5,6.86C516.08,176.84,518.27,179.76,519,180.66Z"/><path class="cls-18" d="M489.53,244.28c-9.89-.93-18.62-15.11-18.62-15.11a81.33,81.33,0,0,1,0-9.74l3-5.78,2.61.73.17-1.91c-.78-.1,4.06.86,3.1.62-6.76-1.72-17.09-7.33-19.25-18.8-1.52-8,2.18-14.8,2.77-19.34s-.89-8-1.13-13.17c-.3-6.64,3.28-14.5,6.71-16,15.46-7,40.66,4.14,40.66,4.14s8.3,4.91,2.69,22.76c1-.49-1.26,3.16,0,3.06a7.81,7.81,0,0,1,6.14,1.83c3,2.93,2.32,9.14-5.17,16.93l-.26.28a40.94,40.94,0,0,0-.92,5.16c0,.26-.07.53-.1.8-.39,3.2-.91,7.35-1.4,11.36-.71,5.79-1.09,10.79-1.27,12.73C508.83,229.48,499.43,245.22,489.53,244.28Z"/><path class="cls-19" d="M512.27,172.64c5.61-17.84-2.69-22.76-2.69-22.76s-25.21-11.15-40.66-4.14c-2.42,1.09-3.23,4.58-4.09,7.53,6.31-3.92,17.75-.63,26.93.76,4.39.67,1.84,5.14,3,5.51,10-.57,15.82,5.13,12.39,18.72l5-2.58C511.16,175.55,513.21,172.16,512.27,172.64Z"/><path class="cls-20" d="M524.33,168.9c.95-3.14,1.21-6.64,1.35-11.46.31-10.4-5.22-16.23-15-20.77L501.09,133c-.87-.34-17.05-5.84-25.92-3.32-3.32.94-8.18,4.08-8.85,6.84-1.71,7-2.83,10.76-2.6,16.51,7.11-13.48,10.37,5.32,32.16-4.63,4-1.84,1.85,5.14,3,5.51,11.27-.64,17.26,6.69,10.62,24.32,3.12-.9,5.29-2.1,7-1.89C519.26,174.26,523.84,170.54,524.33,168.9Z"/><path class="cls-21" d="M512,200.69c-9.54,12.43-23.68,15.94-32.31,16.72l-2.85-2.08c-.78-.1,4-2,3-2.24,6.46-3.17,24.49-12.19,33.43-18.64l-.26.28a40.94,40.94,0,0,0-.92,5.16C512,200.15,512,200.41,512,200.69Z"/><path class="cls-20" d="M511.6,177.85c.42-.28,1.65-.92,1.65-.92l.1-3.55-5.54,1.92a3,3,0,0,0-2,2.44L504.33,190c-7.6,2.31-25.52,10-28.47,9.69-3.73-.33-3.77-5.12-6-4.58s-2.62,3.3-4,3c-.7-.18-4.52-4.23-5.52-6.55,0,0,.35,8.19.5,9.66.35,3.39,5.46,11.38,5.46,11.38a3.26,3.26,0,0,0,2.39,1.6l8.72,1.18,4.94-1.53c6.81-1.86,24-11.71,24.54-13.54C510,189.66,507.44,180.65,511.6,177.85Z"/><path class="cls-22" d="M512.22,181.56s2.83-3.08,4.26-.32-1.78,6.82-1.78,6.82Z"/><path class="cls-23" d="M113.85,567.16c-4.4,8.41-8.22,14.11-11.93,17.16-5.33,4.38-7.18,22.31-5.62,29.39a2,2,0,0,1-.36-.06c-5.7-.7-8.09-7.87-7.49-18.37a86,86,0,0,0-1.54-20.59.15.15,0,0,1,0-.06l12.4-17.58C104,561.11,106.88,565.45,113.85,567.16Z"/><path class="cls-24" d="M107.12,623.89s-18.82,1.88-24.79-2.52-3.29-10.5-3.91-19.76-3.61-11-3.61-11l-7.06,7.21-3.59-3.59s5.48-8.47,10.18-14.28c3.33-4.1,9.35-5.06,12.57-5.27a86,86,0,0,1,1.54,20.59c-.6,10.5,1.79,17.67,7.49,18.37,2.58,1.07,6.49.9,9.3,1.77C109.32,616.66,107.12,623.89,107.12,623.89Z"/><path class="cls-25" d="M163,611.33h-5.91c-4.28,0-15.82-5.43-20.74-11.84s-7.84-6.24-7.84-6.24l-.35-1.4L123.79,574H143c1.22,5.91,3.39,15.91,5.28,21.63,2.35,7.08,11.08,13.27,13.9,15.1a0,0,0,0,1,0,0Z"/><path class="cls-24" d="M181.72,624.46s-32.65,3-34.13-1.64-12.32-11-12.32-11v12.64h-5.91s-3.79-11.65-4.12-20.7a23.28,23.28,0,0,1,2.21-10.59s4.69-3.22,9.62,3.19,15.77,15,20.05,15H163l-.87-.55c6.21,2.27,11,5.64,15.6,6.78C185,619.38,181.72,624.46,181.72,624.46Z"/><path class="cls-26" d="M333.9,216.49a40.43,40.43,0,0,1-29,17.5l.08-1.56.1-1.91c8.33-2.46,18.29-8.22,29.88-20.29l-.25.28a40.77,40.77,0,0,0-.71,5.17C333.95,215.94,333.92,216.21,333.9,216.49Z"/><path class="cls-27" d="M282.51,212.2c2.61,11.33,13.11,16.49,19.91,17.93.65.13,1.27.23,1.84.29.28,0,.53.07.78.09l-.09,1.91-.17,2.44-.15,2.16-9.28,61.62a2.85,2.85,0,0,0,4.41,3c9.71-6.78,31.31-57.55,31.5-61,0,0,1-5.22,2.38-21.09.08-1,.17-2,.26-3.1,0-.28.06-.54.07-.8,0-.53.12-1.18.19-1.82a23.89,23.89,0,0,1,.52-3.35,2.4,2.4,0,0,0,.25-.29c3.8-4.29,6.49-8.32,6.65-11.35a13.82,13.82,0,0,0-.48-5c-.57-1.86-.83-27.47-2.49-28.49-6.89-4.27-15.56-4.14-32.57-7.22-8.23-1.49-14.59,2.81-18.21,5.36-2.73,1.91-4,11.71-4.2,18.72h0c.52,3.7,1.16,7.24.86,10.59C284.08,197.39,280.68,204.3,282.51,212.2Z"/><path class="cls-28" d="M305,232.43s19.18-2.24,28.68-12.84c.08-1,.17-2,.26-3.1,0-.28.06-.54.07-.8,0-.53.12-1.18.19-1.82-11.64,9.4-21.53,14.31-29.9,16.56.28,0,.53.07.78.09Z"/><path class="cls-29" d="M333.39,197.45s2.69-3.18,4.23-.49-1.49,6.86-1.49,6.86Z"/><path class="cls-30" d="M359.13,616.46c-1,2-18.95-2.89-18.95-2.89l.41-1.8,5.16-22.53a92.63,92.63,0,0,0-1.43-19.8c5.34,2.86,16.93.79,16.93.79s-1.08,7.59.16,10.06A7.81,7.81,0,0,1,362,582a35.29,35.29,0,0,1,.13,11.88c-.47,2.54-1.14,10.09-1.82,15.81h0A35.86,35.86,0,0,1,359.13,616.46Z"/><path class="cls-24" d="M360.6,608.61h0c-.11.4-.21.75-.3,1.08.68-5.72,1.35-13.27,1.82-15.81A35.29,35.29,0,0,0,362,582a9.23,9.23,0,0,1,2.54,6.78C364.38,592.72,362,603.51,360.6,608.61Z"/><path class="cls-24" d="M360.71,619.9c-1.7,5.06-9.34,9.85-15.67,8.94-5.88-.84-10.17-9.31-4.45-17.08l-.41,1.8s18,4.84,18.95,2.89a35.86,35.86,0,0,0,1.16-6.75h0c.09-.33.84-6.5,1-6.9C361.85,606.47,361.66,617.08,360.71,619.9Z"/><path class="cls-31" d="M277.53,610.26c0,1.49,8,5.3,10,6s6.07-2.16,5.9-7.63,9.62-27.51,10.12-28.85c.37-1-.52-2-1-2.53-.18-.18-.31-.29-.31-.29l1.32-6.64-18.05-3.81s-1.17,10.44-1.84,13.43-.5,8.13-1.49,13.39c-.91,4.77-4,13.59-4.56,16.31A3.38,3.38,0,0,0,277.53,610.26Z"/><path class="cls-24" d="M268.75,624.86c2.66,1.82,14.75-1,20.56-2.33s6.13-10.94,6.47-14.58c.15-1.69,2.14-5.34,4.53-9.22h0c1.54-2.51,3.23-5.1,4.72-7.31h0c.6-.92,1.16-1.76,1.66-2.52a5.21,5.21,0,0,0,.7-4.2c-1.1-4.23-3.11-6.37-4.83-7.44.5.49,1.38,1.55,1,2.53-.5,1.33-10.28,23.38-10.12,28.85s-3.85,8.3-5.9,7.63-10-4.48-10-6a3.38,3.38,0,0,1,.09-.64C273.71,613.94,266.6,623.38,268.75,624.86Z"/><path class="cls-24" d="M299.83,612.58h2.24L305,591.4c-1.48,2.21-3.17,4.8-4.72,7.31h0Z"/><path class="cls-32" d="M285.41,338.33c-14.35,43-10.21,130.42-10.21,130.42l8.42,104.32H306c5.5-63.07-1.7-101-1.7-101l8.06-69.23,11.21,70.57,18.51,99.62H365c.67-16.81-3.71-58.84-12.45-103,6.72-39,8.42-48.52,5.73-82s-19.5-50.43-19.5-50.43Z"/><path class="cls-24" d="M332.71,238.13l-17.48,13.45-15.47,43.71v66.56l51.58-5.46-9.4-22.73,8.25-42.07,22.19,37.32L363,354.47l14.79,13.45,20.41-38.33S390.54,263,332.71,238.13Z"/><path class="cls-24" d="M303.79,236.12l.4,2,1.84,9.19-6.28,48v66.56l-25.11-3s13-41.64,10.77-46.12-6.72-18.83-6.72-18.83l-30.48,23.4a5,5,0,0,1-8-3.59l-1.37-18.47s41.14-29.5,44.27-44.75C299.76,239.45,303.79,236.12,303.79,236.12Z"/><path class="cls-33" d="M365.08,356.39l-4.64,8.5-5.82,3,3.7,21s7.84-4.83,9.86-8.87,1.18-5.72,1.18-5.72l6.12-8.46Z"/><polygon class="cls-34" points="332.71 238.13 341.94 238.13 341.22 249.42 326.81 254.3 328.14 263.04 299.76 295.29 315.22 251.58 332.71 238.13"/><path class="cls-35" d="M176.72,365.62c-4.72,1.72-4.87-1.16-18.08,1.74-3.42.76-6.78,4.56-10.55,4.76-22.68,1.22-36.05-5.48-46.37-8.72-3.43,8-9.92,35.6-2.95,65.84,8.59,37.21,11.1,69.71,15,96.78-13.29,22.45-23.21,41.26-23.21,41.26a36.93,36.93,0,0,0,6.22,7,25,25,0,0,0,10.13,5.55,17.62,17.62,0,0,0,3.15.49c1.62-5,5.17-11.37,10-18.48a217.45,217.45,0,0,0,5.8,22.53H146s-4-20.94-6.75-47.79c25.21-30.72,43-45,49.9-57.43C198.38,462.47,178.81,393.66,176.72,365.62ZM159.07,471.73c-8.14,7.92-16.76,12.71-22.18,22.2.17-12.34,1.5-64.67,6.52-85.65C145.84,425.37,153.48,442.76,159.07,471.73Z"/><path class="cls-36" d="M183,363.26a143.07,143.07,0,0,1-24,7.47,66.22,66.22,0,0,1-10.83,1.39c-22.68,1.22-42.1-6.47-52.42-9.71,2.17-5.37,14.55-39.67,13.61-46.6,3,3-1.24,1.21,2.13,2.49l.63.24c15.88,5.91,27.94,6.83,38.6-2.75,2.57-2.31,4.79-4.44,6.69-6.34a74.26,74.26,0,0,0,15.17-1c-.34,2.09-2.43,9.91-.57,18.8C174.65,340.28,181.87,360.21,183,363.26Z"/><path class="cls-20" d="M510.15,606.07s4.55,2-4.11,22c-2,4.68-11.18,7.46-20.13,7.21s-12.8-1.62-13.42-4.1,4.72-10.49,4.72-10.49Z"/><path class="cls-37" d="M510.07,604.08s.09-4.25-1.84-5.24c-.89,5-3.33,1.12-6.1-1.71-2.39-2.45-3.35-4.48-7.92-4.83s-6,3.36-7.92,4.83c-3.39,2.61-3.46,1.07-4.54,4.9-1,3.39-3.91,15.76-6.53,20.73a2.94,2.94,0,0,0,.43,3.47c4.25,4.19,13.84,2.66,19.1,1.79,6-1,11.35-4.72,13.67-12.67S510.07,604.08,510.07,604.08Z"/><path class="cls-20" d="M457.58,609.48v5.73a4.08,4.08,0,0,1-3.52,4c-4,.56-10.5,1.5-14,2.19-5.35,1-18.13,5.69-25.34,6.16s-15.34.58-18.94-1.74-2.79-7.79-2.79-7.79Z"/><path class="cls-38" d="M455.5,594.14s3.72,14.18,1.63,16.27-17.78,3.14-22,5.81-21.27,6.86-30.33,6.16-11.62-1.86-11.85-4.3,18-5.81,21.27-8.25,5.23-11,9.76-13.95,1-8.14,5.81-8.37,3.49,7.44,10.58,7.9A63.76,63.76,0,0,0,455.5,594.14Z"/><path class="cls-39" d="M111.22,220.45A40.65,40.65,0,0,0,140.4,238l-.08-1.56-.1-1.92c-8.37-2.47-18.38-8.26-30-20.4l.25.29a41,41,0,0,1,.71,5.2C111.17,219.9,111.2,220.17,111.22,220.45Z"/><path class="cls-40" d="M162.88,216.13c-2.62,11.39-13.18,16.58-20,18-.66.13-1.28.23-1.85.3-.28,0-.54.07-.79.09l.09,1.93.18,2.45.15,2.17,2.82,34.67a2.87,2.87,0,0,1-4.43,3c-9.76-6.81-25.87-23.46-26.07-26.91,0,0-.11-12.36-1.49-28.32-.08-1-.17-2-.26-3.12,0-.28-.06-.55-.07-.81,0-.54-.12-1.18-.19-1.83a24,24,0,0,0-.52-3.37,2.41,2.41,0,0,1-.25-.29,31.64,31.64,0,0,1-4.77-6.84,10.06,10.06,0,0,1-.56-7.4v0a8.11,8.11,0,0,1,3.39-4.58c6.92-4.29,10-41.62,37.94-22.91,1.39-.38,8.12-2.83,11.76-.26,2.75,1.93,2.51,7.67,3.81,13.89h0c-.53,3.72-1.17,7.28-.86,10.64C161.3,201.24,164.73,208.19,162.88,216.13Z"/><path class="cls-41" d="M140.32,236.48s-19.28-2.25-28.84-12.91c-.08-1-.17-2-.26-3.12,0-.28-.06-.55-.07-.81,0-.54-.12-1.18-.19-1.83,11.7,9.45,21.65,14.38,30.06,16.65-.28,0-.54.07-.79.09Z"/><path class="cls-42" d="M111.73,201.3s-2.71-3.2-4.25-.5,1.5,6.9,1.5,6.9Z"/><path class="cls-43" d="M162.24,182c-.12,1.34-.29,2.67-.47,4-.6-2.31-3.44-10.24-6-12.38-1.81-1.52-3.32,3-5.82,1.86-4.37-1.91-5-3.34-10.49-2.83a51.68,51.68,0,0,1-6.75,2.06c-2.47.43-3.57-2.65-4.13,0s-.55,6.22-3.57,6.22-5,1.93-5.23,3.85,4.84,8.85,2.28,10.55c-2.93,1.94-5.05,9.22-5.05,9.22s-3.55-12.79-10.75-7.43c-2-6.22-1.37-7.37-1.37-14.92,0-2.6.58-11.07,1.27-13.74,3.6-13.89,21.84-17.46,33.55-16.66S163.36,169,162.24,182Z"/><path class="cls-44" d="M91.07,128.08l2.41.49a1.33,1.33,0,0,1,.94.76l.31.7a1.31,1.31,0,0,0,1.25.79l1.78-.1a1.3,1.3,0,0,1,1.31,1.64l-.1.33a1.3,1.3,0,0,0,1.16,1.64l1.08.07a1.31,1.31,0,0,1,1.21,1.38l0,.24a1.31,1.31,0,0,0,.84,1.3,25.5,25.5,0,0,1,3.6,1.56c.16.2-.35,1.41-.76,2.32a1.27,1.27,0,0,0,.55,1.61c1.19.68,2.93,1.79,2.65,2.32a18.76,18.76,0,0,1-2.58,2.66,1.23,1.23,0,0,0,.24,1.93l1.76,1.14a1.24,1.24,0,0,1,.27,1.9l-1.73,1.71a1.23,1.23,0,0,0,.13,1.8l2,1.73a1.26,1.26,0,0,1,.33,1.55l-1.47,2.7a1.21,1.21,0,0,0,0,1.09l1.67,3.63"/><path class="cls-44" d="M92.53,136.61l2.41-.46a1.33,1.33,0,0,1,1.16.35l.55.53a1.31,1.31,0,0,0,1.46.25l1.61-.76a1.3,1.3,0,0,1,1.83,1l0,.34a1.3,1.3,0,0,0,1.69,1.08l1-.34a1.31,1.31,0,0,1,1.64.82l.08.23a1.31,1.31,0,0,0,1.27.88,25.5,25.5,0,0,1,3.92.08c.22.12.21,1.43.17,2.44a1.27,1.27,0,0,0,1.12,1.28c1.36.18,3.39.55,3.33,1.14a18.76,18.76,0,0,1-1.38,3.44,1.23,1.23,0,0,0,1,1.7l2.06.39a1.24,1.24,0,0,1,1,1.66l-1,2.23a1.23,1.23,0,0,0,.81,1.62l2.55.82a1.26,1.26,0,0,1,.89,1.31l-.34,3.06a1.21,1.21,0,0,0,.39,1l2.92,2.72"/><path class="cls-44" d="M101.36,123.38l2.41.49a1.33,1.33,0,0,1,.94.76l.31.7a1.31,1.31,0,0,0,1.25.79L108,126a1.3,1.3,0,0,1,1.31,1.64l-.1.33a1.3,1.3,0,0,0,1.16,1.64l1.08.07a1.31,1.31,0,0,1,1.21,1.38l0,.24a1.31,1.31,0,0,0,.84,1.3,25.5,25.5,0,0,1,3.6,1.56c.16.2-.35,1.41-.76,2.32a1.27,1.27,0,0,0,.55,1.61c1.19.68,2.93,1.79,2.65,2.32a18.76,18.76,0,0,1-2.58,2.66,1.23,1.23,0,0,0,.24,1.93l1.76,1.14a1.24,1.24,0,0,1,.27,1.9l-1.73,1.71a1.23,1.23,0,0,0,.13,1.8l2,1.73a1.26,1.26,0,0,1,.33,1.55l-1.47,2.7a1.21,1.21,0,0,0,0,1.09l1.67,3.63"/><path class="cls-44" d="M110.7,121.36l2.11,1.25a1.33,1.33,0,0,1,.64,1l.06.77a1.31,1.31,0,0,0,.93,1.15l1.71.49a1.3,1.3,0,0,1,.7,2l-.2.28a1.3,1.3,0,0,0,.56,1.93l1,.42a1.31,1.31,0,0,1,.69,1.7l-.1.22a1.31,1.31,0,0,0,.37,1.5,25.5,25.5,0,0,1,2.89,2.65c.09.24-.79,1.22-1.48,1.94a1.27,1.27,0,0,0,0,1.7c.9,1,2.18,2.65,1.74,3.06a18.76,18.76,0,0,1-3.31,1.67,1.23,1.23,0,0,0-.41,1.9l1.28,1.65a1.24,1.24,0,0,1-.37,1.89l-2.19,1a1.23,1.23,0,0,0-.47,1.75l1.37,2.3a1.26,1.26,0,0,1-.2,1.57l-2.28,2.07a1.21,1.21,0,0,0-.38,1l.39,4"/><path class="cls-44" d="M130.59,122.38l-2.41.49a1.33,1.33,0,0,0-.94.76l-.31.7a1.31,1.31,0,0,1-1.25.79l-1.78-.1a1.3,1.3,0,0,0-1.31,1.64l.1.33a1.3,1.3,0,0,1-1.16,1.64l-1.08.07a1.31,1.31,0,0,0-1.21,1.38l0,.24a1.31,1.31,0,0,1-.84,1.3,25.5,25.5,0,0,0-3.6,1.56c-.16.2.35,1.41.76,2.32a1.27,1.27,0,0,1-.55,1.61c-1.19.68-2.93,1.79-2.65,2.32A18.76,18.76,0,0,0,115,142.1a1.23,1.23,0,0,1-.24,1.93L113,145.17a1.24,1.24,0,0,0-.27,1.9l1.73,1.71a1.23,1.23,0,0,1-.13,1.8l-2,1.73a1.26,1.26,0,0,0-.33,1.55l1.47,2.7a1.21,1.21,0,0,1,0,1.09l-1.67,3.63"/><path class="cls-44" d="M121.24,120.37l-2.11,1.25a1.33,1.33,0,0,0-.64,1l-.06.77a1.31,1.31,0,0,1-.93,1.15l-1.71.49a1.3,1.3,0,0,0-.7,2l.2.28a1.3,1.3,0,0,1-.56,1.93l-1,.42a1.31,1.31,0,0,0-.69,1.7l.1.22a1.31,1.31,0,0,1-.37,1.5,25.5,25.5,0,0,0-2.89,2.65c-.09.24.79,1.22,1.48,1.94a1.27,1.27,0,0,1,0,1.7c-.9,1-2.18,2.65-1.74,3.06a18.76,18.76,0,0,0,3.31,1.67,1.23,1.23,0,0,1,.41,1.9l-1.28,1.65a1.24,1.24,0,0,0,.37,1.89l2.19,1a1.23,1.23,0,0,1,.47,1.75l-1.37,2.3a1.26,1.26,0,0,0,.2,1.57l2.28,2.07a1.21,1.21,0,0,1,.38,1l-.39,4"/><path class="cls-44" d="M141.46,129.9l-2.41.49a1.33,1.33,0,0,0-.94.76l-.31.7a1.31,1.31,0,0,1-1.25.79l-1.78-.1a1.3,1.3,0,0,0-1.31,1.64l.1.33a1.3,1.3,0,0,1-1.16,1.64l-1.08.07a1.31,1.31,0,0,0-1.21,1.38l0,.24a1.31,1.31,0,0,1-.84,1.3,25.5,25.5,0,0,0-3.6,1.56c-.16.2.35,1.41.76,2.32a1.27,1.27,0,0,1-.55,1.61c-1.19.68-2.93,1.79-2.65,2.32a18.76,18.76,0,0,0,2.58,2.66,1.23,1.23,0,0,1-.24,1.93l-1.76,1.14a1.24,1.24,0,0,0-.27,1.9l1.73,1.71a1.23,1.23,0,0,1-.13,1.8l-2,1.73a1.26,1.26,0,0,0-.33,1.55l1.47,2.7a1.21,1.21,0,0,1,0,1.09l-1.67,3.63"/><path class="cls-44" d="M134.72,124.83l-2.11,1.25a1.33,1.33,0,0,0-.64,1l-.06.77A1.31,1.31,0,0,1,131,129l-1.71.49a1.3,1.3,0,0,0-.7,2l.2.28a1.3,1.3,0,0,1-.56,1.93l-1,.42a1.31,1.31,0,0,0-.69,1.7l.1.22a1.31,1.31,0,0,1-.37,1.5,25.5,25.5,0,0,0-2.89,2.65c-.09.24.79,1.22,1.48,1.94a1.27,1.27,0,0,1,0,1.7c-.9,1-2.18,2.65-1.74,3.06a18.76,18.76,0,0,0,3.31,1.67,1.23,1.23,0,0,1,.41,1.9l-1.28,1.65a1.24,1.24,0,0,0,.37,1.89l2.19,1a1.23,1.23,0,0,1,.47,1.75l-1.37,2.3a1.26,1.26,0,0,0,.2,1.57l2.28,2.07a1.21,1.21,0,0,1,.38,1l-.39,4"/><path class="cls-44" d="M147.17,135.24l-2.41.49a1.33,1.33,0,0,0-.94.76l-.31.7a1.31,1.31,0,0,1-1.25.79l-1.78-.1a1.3,1.3,0,0,0-1.31,1.64l.1.33a1.3,1.3,0,0,1-1.16,1.64l-1.08.07a1.31,1.31,0,0,0-1.21,1.38l0,.24a1.31,1.31,0,0,1-.84,1.3,25.5,25.5,0,0,0-3.6,1.56c-.16.2.35,1.41.76,2.32a1.27,1.27,0,0,1-.55,1.61c-1.19.68-2.93,1.79-2.65,2.32a18.76,18.76,0,0,0,2.58,2.66,1.23,1.23,0,0,1-.24,1.93L129.56,158a1.24,1.24,0,0,0-.27,1.9l1.73,1.71a1.23,1.23,0,0,1-.13,1.8l-2,1.73a1.26,1.26,0,0,0-.33,1.55l1.47,2.7a1.21,1.21,0,0,1,0,1.09l-1.67,3.63"/><path class="cls-44" d="M149.54,144.49l-2.35-.71A1.33,1.33,0,0,0,146,144l-.61.47a1.31,1.31,0,0,1-1.48.1l-1.52-.93a1.3,1.3,0,0,0-1.93.83l-.07.34a1.3,1.3,0,0,1-1.8.9l-1-.44a1.31,1.31,0,0,0-1.72.64l-.1.22a1.31,1.31,0,0,1-1.35.74,25.5,25.5,0,0,0-3.91-.33c-.23.1-.36,1.4-.43,2.4a1.27,1.27,0,0,1-1.25,1.16c-1.37,0-3.43.19-3.43.79a18.76,18.76,0,0,0,1,3.56,1.23,1.23,0,0,1-1.12,1.59l-2.09.18a1.24,1.24,0,0,0-1.13,1.55l.71,2.32a1.23,1.23,0,0,1-1,1.53l-2.62.55a1.26,1.26,0,0,0-1,1.21l0,3.08a1.21,1.21,0,0,1-.49,1l-3.19,2.4"/><path class="cls-44" d="M137.83,133.23l-2.11,1.25a1.33,1.33,0,0,0-.64,1l-.06.77a1.31,1.31,0,0,1-.93,1.15l-1.71.49a1.3,1.3,0,0,0-.7,2l.2.28a1.3,1.3,0,0,1-.56,1.93l-1,.42a1.31,1.31,0,0,0-.69,1.7l.1.22a1.31,1.31,0,0,1-.37,1.5,25.5,25.5,0,0,0-2.89,2.65c-.09.24.79,1.22,1.48,1.94a1.27,1.27,0,0,1,0,1.7c-.9,1-2.18,2.65-1.74,3.06a18.76,18.76,0,0,0,3.31,1.67,1.23,1.23,0,0,1,.41,1.9l-1.28,1.65a1.24,1.24,0,0,0,.37,1.89l2.19,1a1.23,1.23,0,0,1,.47,1.75l-1.37,2.3a1.26,1.26,0,0,0,.2,1.57l2.28,2.07a1.21,1.21,0,0,1,.38,1l-.39,4"/><path class="cls-44" d="M99,129.19l2.41-.46a1.33,1.33,0,0,1,1.16.35l.55.53a1.31,1.31,0,0,0,1.46.25l1.61-.76a1.3,1.3,0,0,1,1.83,1l0,.34a1.3,1.3,0,0,0,1.69,1.08l1-.34a1.31,1.31,0,0,1,1.64.82l.08.23a1.31,1.31,0,0,0,1.27.88,25.5,25.5,0,0,1,3.92.08c.22.12.21,1.43.17,2.44a1.27,1.27,0,0,0,1.12,1.28c1.36.18,3.39.55,3.33,1.14a18.76,18.76,0,0,1-1.38,3.44,1.23,1.23,0,0,0,1,1.7l2.06.39a1.24,1.24,0,0,1,1,1.66l-1,2.23a1.23,1.23,0,0,0,.81,1.62l2.55.82a1.26,1.26,0,0,1,.89,1.31l-.34,3.06a1.21,1.21,0,0,0,.39,1l2.92,2.72"/><path class="cls-44" d="M86.46,141.56l2.41-.47a1.33,1.33,0,0,1,1.16.34l.56.53a1.31,1.31,0,0,0,1.46.25l1.6-.77a1.3,1.3,0,0,1,1.84,1l0,.34a1.3,1.3,0,0,0,1.7,1.07l1-.34a1.31,1.31,0,0,1,1.64.81l.08.23a1.31,1.31,0,0,0,1.27.88,25.5,25.5,0,0,1,3.92.06c.22.12.22,1.43.18,2.44a1.27,1.27,0,0,0,1.13,1.27c1.36.17,3.39.53,3.34,1.13a18.76,18.76,0,0,1-1.37,3.44,1.23,1.23,0,0,0,1,1.69l2.06.38a1.24,1.24,0,0,1,1,1.66l-.94,2.24a1.23,1.23,0,0,0,.81,1.62l2.55.81a1.26,1.26,0,0,1,.89,1.3l-.33,3.06a1.21,1.21,0,0,0,.4,1l2.94,2.71"/><path class="cls-44" d="M86.48,147.84l2.05-1.35a1.33,1.33,0,0,1,1.2-.12l.72.28a1.31,1.31,0,0,0,1.44-.33L93.09,145a1.3,1.3,0,0,1,2.09.24l.16.3a1.3,1.3,0,0,0,2,.35l.82-.7a1.31,1.31,0,0,1,1.83.13l.16.18a1.31,1.31,0,0,0,1.51.33,25.5,25.5,0,0,1,3.65-1.43c.25,0,.75,1.24,1.09,2.18a1.27,1.27,0,0,0,1.53.75c1.32-.35,3.34-.79,3.52-.22a18.76,18.76,0,0,1,0,3.71A1.23,1.23,0,0,0,113,152l2.05-.43a1.24,1.24,0,0,1,1.53,1.16l0,2.43a1.23,1.23,0,0,0,1.37,1.19l2.67-.22a1.26,1.26,0,0,1,1.32.87l.86,3a1.21,1.21,0,0,0,.75.79l3.74,1.39"/><path class="cls-44" d="M87.71,155.68l1.64-1.83a1.33,1.33,0,0,1,1.13-.43l.76.09a1.31,1.31,0,0,0,1.31-.69l.81-1.58a1.3,1.3,0,0,1,2.08-.3l.23.25a1.3,1.3,0,0,0,2-.17l.61-.89a1.31,1.31,0,0,1,1.8-.35l.2.14a1.31,1.31,0,0,0,1.54-.07,25.5,25.5,0,0,1,3.16-2.32c.25,0,1,1,1.62,1.83a1.27,1.27,0,0,0,1.67.33c1.19-.68,3-1.62,3.34-1.12a18.76,18.76,0,0,1,1,3.57,1.23,1.23,0,0,0,1.79.77l1.87-.94a1.24,1.24,0,0,1,1.78.73l.6,2.35a1.23,1.23,0,0,0,1.63.8l2.53-.9a1.26,1.26,0,0,1,1.5.5l1.59,2.64a1.21,1.21,0,0,0,.93.57l4,.38"/><path class="cls-44" d="M85.88,167.87l1.06-2.21a1.33,1.33,0,0,1,1-.73l.76-.13a1.31,1.31,0,0,0,1.07-1l.34-1.75a1.3,1.3,0,0,1,1.91-.87l.29.18a1.3,1.3,0,0,0,1.88-.72l.34-1a1.31,1.31,0,0,1,1.63-.83l.23.08a1.31,1.31,0,0,0,1.46-.5,25.5,25.5,0,0,1,2.39-3.11c.23-.11,1.28.68,2.06,1.31a1.27,1.27,0,0,0,1.7-.14c1-1,2.45-2.4,2.9-2a18.76,18.76,0,0,1,1.95,3.15,1.23,1.23,0,0,0,1.93.24l1.54-1.42a1.24,1.24,0,0,1,1.91.21l1.23,2.09a1.23,1.23,0,0,0,1.78.31l2.18-1.56a1.26,1.26,0,0,1,1.58.06l2.26,2.09a1.21,1.21,0,0,0,1,.29l3.93-.74"/><path class="cls-44" d="M88,176.61l1.06-2.21a1.33,1.33,0,0,1,1-.73l.76-.13a1.31,1.31,0,0,0,1.07-1l.34-1.75a1.3,1.3,0,0,1,1.91-.87l.29.18a1.3,1.3,0,0,0,1.88-.72l.34-1a1.31,1.31,0,0,1,1.63-.83l.23.08a1.31,1.31,0,0,0,1.46-.5,25.5,25.5,0,0,1,2.39-3.11c.23-.11,1.28.68,2.06,1.31a1.27,1.27,0,0,0,1.7-.14c1-1,2.45-2.4,2.9-2a18.76,18.76,0,0,1,1.95,3.15,1.23,1.23,0,0,0,1.93.24l1.54-1.42a1.24,1.24,0,0,1,1.91.21l1.23,2.09a1.23,1.23,0,0,0,1.78.31l2.18-1.56a1.26,1.26,0,0,1,1.58.06l2.26,2.09a1.21,1.21,0,0,0,1,.29l3.93-.74"/><path class="cls-44" d="M94.54,183.88l1.06-2.21a1.33,1.33,0,0,1,1-.73l.76-.13a1.31,1.31,0,0,0,1.07-1l.34-1.75a1.3,1.3,0,0,1,1.91-.87l.29.18a1.3,1.3,0,0,0,1.88-.72l.34-1a1.31,1.31,0,0,1,1.63-.83l.23.08a1.31,1.31,0,0,0,1.46-.5,25.5,25.5,0,0,1,2.39-3.11c.23-.11,1.28.68,2.06,1.31a1.27,1.27,0,0,0,1.7-.14c1-1,2.45-2.4,2.9-2a18.76,18.76,0,0,1,1.95,3.15,1.23,1.23,0,0,0,1.93.24l1.54-1.42a1.24,1.24,0,0,1,1.91.21l1.23,2.09a1.23,1.23,0,0,0,1.78.31l2.18-1.56a1.26,1.26,0,0,1,1.58.06l2.26,2.09a1.21,1.21,0,0,0,1,.29l3.93-.74"/><circle class="cls-45" cx="120.19" cy="149.89" r="22.87"/><circle class="cls-46" cx="102.99" cy="165.32" r="5.02"/><circle class="cls-47" cx="104.17" cy="174.35" r="5.02"/><circle class="cls-48" cx="104.78" cy="183.1" r="5.02"/><circle class="cls-49" cx="107.04" cy="191.5" r="5.02"/><circle class="cls-50" cx="139.58" cy="153.79" r="4.44"/><circle class="cls-51" cx="140.4" cy="147.27" r="4.44"/><circle class="cls-52" cx="140.4" cy="140.6" r="4.44"/><circle class="cls-53" cx="135.96" cy="135.4" r="4.44"/><circle class="cls-54" cx="130.57" cy="130.95" r="4.44"/><circle class="cls-55" cx="122.37" cy="129.1" r="4.44"/><circle class="cls-56" cx="115.7" cy="129.1" r="4.44"/><circle class="cls-57" cx="110" cy="131.71" r="4.44"/><circle class="cls-58" cx="104.17" cy="134.39" r="4.44"/><circle class="cls-59" cx="102.41" cy="161.1" r="4.44"/><circle class="cls-60" cx="99.53" cy="154.69" r="4.44"/><circle class="cls-61" cx="98.7" cy="147.27" r="4.44"/><circle class="cls-62" cx="100.49" cy="140.6" r="4.44"/><path class="cls-20" d="M524.77,337.78l-46.43,11.14-24.7-4.5S416.46,450.27,414,462.3s17.8,123.24,17.8,123.24H456.3s2.51-31.56,0-60.12S449,481.84,449,475.83s32.83-69.15,32.83-69.15,7.72,37.66,10.74,64.63c5.34,47.6-9.34,117.74-9.34,117.74h27.52s10.13-19.24,18.65-65.84-8.69-44.66.92-82C545.73,381.55,524.77,337.78,524.77,337.78Z"/><path class="cls-63" d="M177.62,323.7l0,.19a25.14,25.14,0,0,1-6.75.73c-3.63,0-18.48-2.05-24.67-2.86,4-2.92,21-14,21-14l4.77-.73c2.07,1.48,4.77,3.84,5.64,6.48C178.88,317.48,177.85,322.65,177.62,323.7Z"/><path class="cls-36" d="M186.6,322.43a20.94,20.94,0,0,1-9,1.27c.23-1,1.26-6.22,0-10.22-.87-2.65-3.57-5-5.64-6.48,1-.16,1.82-.28,1.88-.31s8.41-1.89,11-3a5.37,5.37,0,0,1,3.24-.18c.32,2.43,1,7.58,1,10.13C189.21,317.06,188.56,321.54,186.6,322.43Z"/><path class="cls-64" d="M141.79,302.24l-17.11,5.07-.16,0-12.69,3.29s-3.48-2.19-5.55-3.23-8.17-.92-11.59-1S92,304,92.07,303.83c-.2.06-2.94.92-3.77-.55s-.06-2.07,1.65-3.6c-1-.06-3.41.67-3.84-1.4s2.75-2.93,5.67-4.08a31.64,31.64,0,0,1,7.81-1.41s-4-1.4-5.61-.92-4.88.31-5.61-.55-1.34-2.2,1.58-3.17a23.68,23.68,0,0,1,9.15-.86c2.93.25,6.1,1.35,10.37,2.81s2.32,1.1,4,2.19,10.61,8.91,10.61,8.91a8.8,8.8,0,0,0,3.42.92l11.16.09Z"/><path class="cls-65" d="M190,302.61a1.72,1.72,0,0,1-2,.91,5.37,5.37,0,0,0-3.24.18c-2.63,1.1-10.85,2.93-11,3s-.86.14-1.88.31l-4.77.73s-17,11.11-21,14l-.13.1c-3.05,2.26-15.33,7.55-19.73,9.41l-.21.09-.35.15-1,.38a51.83,51.83,0,0,0,1.45-13.69c-.31-4.72-.77-8.73-1.49-10.89l17.11-5.07-3.11,0,15.15-4.92s9.93-4.39,10.74-4.71,14.11-8.42,15.35-8.64l.15,0a4.06,4.06,0,0,1,4.11,3.26,2.66,2.66,0,0,1-.31,1.39s2.44,0,2.93,2a17.8,17.8,0,0,1,.43,4.14s1.53-.61,2.08.61.24,3.85-.43,4.21S191.32,300.6,190,302.61Z"/><path class="cls-36" d="M180.07,283.92l-.15,0c-1.24.22-14.54,8.31-15.35,8.64s-10.74,4.71-10.74,4.71l-15.15,4.92-11.16-.09a8.8,8.8,0,0,1-3.42-.92s-8.9-7.81-10.61-8.91.25-.73-4-2.19-7.44-2.56-10.37-2.81a23.68,23.68,0,0,0-9.15.86c-2.92,1-2.31,2.32-1.58,3.17s4,1,5.61.55,5.61.92,5.61.92a31.64,31.64,0,0,0-7.81,1.41c-2.92,1.15-6.09,2-5.67,4.08s2.87,1.34,3.84,1.4c-1.7,1.53-2.5,2.07-1.65,3.6s3.58.61,3.77.55c0,.16-.66,2.44,2.63,2.56s9.51,0,11.59,1,5.55,3.23,5.55,3.23l12.69-3.29.16,0c.72,2.16,1.18,6.17,1.49,10.89a51.83,51.83,0,0,1-1.45,13.69c-3.27,1.23-10.91,3.78-15.54,2.65-6-1.46-15.94-13.17-19.69-22s-12.3-43.13-10-51.23c4-14.45,28.34-15.26,37.29-15.26,5.81,0,9.26,9.22,17.53,9.2,4.46,0,6.78-10,9.48-9.75C170,248.11,171.94,252.54,180.07,283.92Z"/><path class="cls-66" d="M519.45,214.28v0c0,1.88-1.76,16.66-4.94,13.33-2.15-2.25-9.37-3.38-14.08-3.88,4.27-5.39,12.77-19.94,12.77-19.94S519.45,212.54,519.45,214.28Z"/><path class="cls-67" d="M496.5,319c-.78,1.25-18.42,8-19.46,8.54-1.93,1-20,2.41-29.63,2.82v-.75s-13.94.22-19.61-5.23-6.32-9.37-3.7-20.26,16.12-62.52,18.08-65.79,6.1-11.11,11.33-12.64a64,64,0,0,0,9.68-4.07c-.67.75-1.15,1.39-1.13,1.72.06.82-1.85,2.83-1.74,3.38s-.81,2.28-1.14,3.32a13.63,13.63,0,0,0-.82,3.65c-.1,1.63.55,2.45,2.78,7.08s5,9.75,5,9.75L470.36,263l.54-.42c.42,2.44,1.34,7.42,2.68,15,1.67,9.51,6.81,21.65,12.05,30.16C485.27,308,496.5,319,496.5,319Z"/><path class="cls-68" d="M548.72,255.65q-.09,1.36-.22,2.79c-1.31,14.09-8.86,29.19-10.75,40.66s-6.46,54.24-6.46,54.24-49.27,9.21-63.82,5.4-20-9.86-20-9.86V330.35c9.62-.41,27.7-1.81,29.63-2.82a8.82,8.82,0,0,0,2.82-3.09l14-4.9c2.74,2.89,5.59,4.6,9.58,4.84,7.41.44,24.11-21.35,27.59-29C533.35,290.29,542.6,269.44,548.72,255.65Z"/><path class="cls-69" d="M484.45,219a12,12,0,0,1-3-2.67c-.53-.77-1.1-1.2-1.68-.8-1-.77-2.93-2.22-4.37-2.3-2-.11-3.49-1.42-4.84-.44s-2,4.25-2,4.25-.93-.65-2.18,1c-.75,1-2.14,2.39-3.12,3.51-.67.75-1.15,1.39-1.13,1.72.06.82-1.85,2.83-1.74,3.38s-.81,2.28-1.14,3.32a13.63,13.63,0,0,0-.82,3.65c-.1,1.63.55,2.45,2.78,7.08s5,9.75,5,9.75L470.36,263l.54-.42,12.45-9.77c-1.22-2.7-2.84-7-1.37-8.06,2.18-1.59,3.49-10.6,3.49-10.6l.27-.17c0-2-.07-5.07.05-7.34C486,223.07,485,219.26,484.45,219Zm-5,6c-.33,1.25-.49,3-1.85,2.07a20.75,20.75,0,0,1-3.81-4.36c0-.22.05-3.6,0-4s-.49-1.41.38-1.36a36.62,36.62,0,0,1,4.23,1.26,8,8,0,0,0,.29.81C479.82,222.25,479.76,223.84,479.44,225.09Z"/><path class="cls-70" d="M497.49,314.57l-14,4.9-2.93,1s-1.42-6.32-.87-10.24c.34-2.44,8.09-9.12,8.56-9.15.46.74,1.38,2.94,1.86,3.63A90.94,90.94,0,0,0,497.49,314.57Z"/><path class="cls-71" d="M453.64,303.24l1.4-22.66-5.64,25.14s4.77,1,5.31,1.22,12.85,2.05,17.43,1.74c2.43-.17-19,.45,6.71-1.71Z"/><path class="cls-72" d="M545.88,232.3c-2-2.91-7.26-7-12.93-10.31-4.12-2.43-10.4-5.94-13.51-7.67,0,1.88-1.76,16.66-4.94,13.33-2.15-2.25-9.37-3.38-14.08-3.88a9.44,9.44,0,0,1-1.75,1.84l-13,8.4-.27.17s-1.31,9-3.49,10.6c-1.46,1.07.15,5.36,1.37,8.06l-12.45,9.77c.42,2.44,1.34,7.42,2.68,15a89.06,89.06,0,0,0,11.07,29.28l.42.67q.69,1.1,1.42,2.14a90.94,90.94,0,0,0,7.41,9.83c2.74,2.89,5.59,4.6,9.58,4.84,7.41.44,24.11-21.35,27.59-29,2.28-5,11.53-25.88,17.65-39.68C549.55,243.14,547.78,235,545.88,232.3Z"/><path class="cls-73" d="M512.8,283.36s1.31,2,.32,3-3.37,3.21-3.37,3.21-6.31-5-8.61-9.43a15.57,15.57,0,0,0,2.29-3.26,10.5,10.5,0,0,1,2.45-3.32c.38-.22,2.83-2.4,3.7-2s.24,2.8.22,2.88c.18-.14,4-3.11,5.12-1a3.83,3.83,0,0,1-.54,4.09s1.8-.33,2,1.25S512.8,283.36,512.8,283.36Z"/><polygon class="cls-74" points="483.35 252.84 499.91 279.33 502.38 275.99 483.35 252.84"/><path class="cls-75" d="M240.21,268.55h0a.53.53,0,0,0-.07-.15h0a45.71,45.71,0,0,0-.74-9,37.82,37.82,0,0,0-9.6-18.37c-.73-.84-7.84-3.74-8.62-4.89s-4.05,1.51-.73,5.43,6.27,5.64,5.73,6.05c-.34.26-4.19-2.17-10.83-3.33-9.94-1.74-17.33-1.87-17.35.75a2.05,2.05,0,0,0,2.34,2.23c-1.47.13-8.89.89-8.91,3.25,0,2.62,5,2,5,2s-4.86,1-.11,2.45S209.52,257,209.52,257s-9.33-.4-8.61,2.19,10.24,1.15,13.69,1.75,6.57,2.22,11,5.5a30.63,30.63,0,0,1,3,2.4l.11,1.93c-.37,7.84-.74,29,4.88,45.16a8.13,8.13,0,0,0,12.4,3.92,34.64,34.64,0,0,0,6-5.39S243,279.17,240.21,268.55Z"/><path class="cls-76" d="M309.14,169.23s-17.44-2.08-24.77,4.25c-6.76-10.38-1.61-26.16,13.37-26.61s35.23-3.93,43.42,11.51,4.32,28.52.35,37.49c-3.69-7.56-9.79-4.69-12.1,0a100.08,100.08,0,0,1-10.19-24.19s14.18,1.82,14.18-1.51C333.39,168.19,317.8,172.23,309.14,169.23Z"/></g></svg>
